  0
SECTION
  2
HEADER
  9
$ACADVER
  1
AC1015
  9
$ACADMAINTVER
 70
6
  9
$DWGCODEPAGE
  3
ANSI_1252
  9
$INSBASE
 10
0.0
 20
0.0
 30
0.0
  9
$EXTMIN
 10
1e+20
 20
1e+20
 30
1e+20
  9
$EXTMAX
 10
-1e+20
 20
-1e+20
 30
-1e+20
  9
$LIMMIN
 10
0.0
 20
0.0
  9
$LIMMAX
 10
420.0
 20
297.0
  9
$ORTHOMODE
 70
0
  9
$REGENMODE
 70
1
  9
$FILLMODE
 70
1
  9
$QTEXTMODE
 70
0
  9
$MIRRTEXT
 70
1
  9
$LTSCALE
 40
1.0
  9
$ATTMODE
 70
1
  9
$TEXTSIZE
 40
2.5
  9
$TRACEWID
 40
1.0
  9
$TEXTSTYLE
  7
Standard
  9
$CLAYER
  8
0
  9
$CELTYPE
  6
ByLayer
  9
$CECOLOR
 62
256
  9
$CELTSCALE
 40
1.0
  9
$DISPSILH
 70
0
  9
$DIMSCALE
 40
1.0
  9
$DIMASZ
 40
2.5
  9
$DIMEXO
 40
0.625
  9
$DIMDLI
 40
3.75
  9
$DIMRND
 40
0.0
  9
$DIMDLE
 40
0.0
  9
$DIMEXE
 40
1.25
  9
$DIMTP
 40
0.0
  9
$DIMTM
 40
0.0
  9
$DIMTXT
 40
2.5
  9
$DIMCEN
 40
2.5
  9
$DIMTSZ
 40
0.0
  9
$DIMTOL
 70
0
  9
$DIMLIM
 70
0
  9
$DIMTIH
 70
0
  9
$DIMTOH
 70
0
  9
$DIMSE1
 70
0
  9
$DIMSE2
 70
0
  9
$DIMTAD
 70
1
  9
$DIMZIN
 70
8
  9
$DIMBLK
  1

  9
$DIMASO
 70
1
  9
$DIMSHO
 70
1
  9
$DIMPOST
  1

  9
$DIMAPOST
  1

  9
$DIMALT
 70
0
  9
$DIMALTD
 70
3
  9
$DIMALTF
 40
0.03937007874
  9
$DIMLFAC
 40
1.0
  9
$DIMTOFL
 70
1
  9
$DIMTVP
 40
0.0
  9
$DIMTIX
 70
0
  9
$DIMSOXD
 70
0
  9
$DIMSAH
 70
0
  9
$DIMBLK1
  1

  9
$DIMBLK2
  1

  9
$DIMSTYLE
  2
ISO-25
  9
$DIMCLRD
 70
0
  9
$DIMCLRE
 70
0
  9
$DIMCLRT
 70
0
  9
$DIMTFAC
 40
1.0
  9
$DIMGAP
 40
0.625
  9
$DIMJUST
 70
0
  9
$DIMSD1
 70
0
  9
$DIMSD2
 70
0
  9
$DIMTOLJ
 70
0
  9
$DIMTZIN
 70
8
  9
$DIMALTZ
 70
0
  9
$DIMALTTZ
 70
0
  9
$DIMUPT
 70
0
  9
$DIMDEC
 70
2
  9
$DIMTDEC
 70
2
  9
$DIMALTU
 70
2
  9
$DIMALTTD
 70
3
  9
$DIMTXSTY
  7
Standard
  9
$DIMAUNIT
 70
0
  9
$DIMADEC
 70
0
  9
$DIMALTRND
 40
0.0
  9
$DIMAZIN
 70
0
  9
$DIMDSEP
 70
44
  9
$DIMATFIT
 70
3
  9
$DIMFRAC
 70
0
  9
$DIMLDRBLK
  1

  9
$DIMLUNIT
 70
2
  9
$DIMLWD
 70
-2
  9
$DIMLWE
 70
-2
  9
$DIMTMOVE
 70
0
  9
$LUNITS
 70
2
  9
$LUPREC
 70
4
  9
$SKETCHINC
 40
1.0
  9
$FILLETRAD
 40
10.0
  9
$AUNITS
 70
0
  9
$AUPREC
 70
2
  9
$MENU
  1
.
  9
$ELEVATION
 40
0.0
  9
$PELEVATION
 40
0.0
  9
$THICKNESS
 40
0.0
  9
$LIMCHECK
 70
0
  9
$CHAMFERA
 40
0.0
  9
$CHAMFERB
 40
0.0
  9
$CHAMFERC
 40
0.0
  9
$CHAMFERD
 40
0.0
  9
$SKPOLY
 70
0
  9
$TDCREATE
 40
2461318.6363657406
  9
$TDUCREATE
 40
2458532.153996898
  9
$TDUPDATE
 40
2461318.6363657406
  9
$TDUUPDATE
 40
2458532.1544311
  9
$TDINDWG
 40
0.0
  9
$TDUSRTIMER
 40
0.0
  9
$USRTIMER
 70
1
  9
$ANGBASE
 50
0.0
  9
$ANGDIR
 70
0
  9
$PDMODE
 70
0
  9
$PDSIZE
 40
0.0
  9
$PLINEWID
 40
0.0
  9
$SPLFRAME
 70
0
  9
$SPLINETYPE
 70
6
  9
$SPLINESEGS
 70
8
  9
$HANDSEED
  5
40
  9
$SURFTAB1
 70
6
  9
$SURFTAB2
 70
6
  9
$SURFTYPE
 70
6
  9
$SURFU
 70
6
  9
$SURFV
 70
6
  9
$UCSBASE
  2

  9
$UCSNAME
  2

  9
$UCSORG
 10
0.0
 20
0.0
 30
0.0
  9
$UCSXDIR
 10
1.0
 20
0.0
 30
0.0
  9
$UCSYDIR
 10
0.0
 20
1.0
 30
0.0
  9
$UCSORTHOREF
  2

  9
$UCSORTHOVIEW
 70
0
  9
$UCSORGTOP
 10
0.0
 20
0.0
 30
0.0
  9
$UCSORGBOTTOM
 10
0.0
 20
0.0
 30
0.0
  9
$UCSORGLEFT
 10
0.0
 20
0.0
 30
0.0
  9
$UCSORGRIGHT
 10
0.0
 20
0.0
 30
0.0
  9
$UCSORGFRONT
 10
0.0
 20
0.0
 30
0.0
  9
$UCSORGBACK
 10
0.0
 20
0.0
 30
0.0
  9
$PUCSBASE
  2

  9
$PUCSNAME
  2

  9
$PUCSORG
 10
0.0
 20
0.0
 30
0.0
  9
$PUCSXDIR
 10
1.0
 20
0.0
 30
0.0
  9
$PUCSYDIR
 10
0.0
 20
1.0
 30
0.0
  9
$PUCSORTHOREF
  2

  9
$PUCSORTHOVIEW
 70
0
  9
$PUCSORGTOP
 10
0.0
 20
0.0
 30
0.0
  9
$PUCSORGBOTTOM
 10
0.0
 20
0.0
 30
0.0
  9
$PUCSORGLEFT
 10
0.0
 20
0.0
 30
0.0
  9
$PUCSORGRIGHT
 10
0.0
 20
0.0
 30
0.0
  9
$PUCSORGFRONT
 10
0.0
 20
0.0
 30
0.0
  9
$PUCSORGBACK
 10
0.0
 20
0.0
 30
0.0
  9
$USERI1
 70
0
  9
$USERI2
 70
0
  9
$USERI3
 70
0
  9
$USERI4
 70
0
  9
$USERI5
 70
0
  9
$USERR1
 40
0.0
  9
$USERR2
 40
0.0
  9
$USERR3
 40
0.0
  9
$USERR4
 40
0.0
  9
$USERR5
 40
0.0
  9
$WORLDVIEW
 70
1
  9
$SHADEDGE
 70
3
  9
$SHADEDIF
 70
70
  9
$TILEMODE
 70
1
  9
$MAXACTVP
 70
64
  9
$PINSBASE
 10
0.0
 20
0.0
 30
0.0
  9
$PLIMCHECK
 70
0
  9
$PEXTMIN
 10
1e+20
 20
1e+20
 30
1e+20
  9
$PEXTMAX
 10
-1e+20
 20
-1e+20
 30
-1e+20
  9
$PLIMMIN
 10
0.0
 20
0.0
  9
$PLIMMAX
 10
420.0
 20
297.0
  9
$UNITMODE
 70
0
  9
$VISRETAIN
 70
1
  9
$PLINEGEN
 70
0
  9
$PSLTSCALE
 70
1
  9
$TREEDEPTH
 70
3020
  9
$CMLSTYLE
  2
Standard
  9
$CMLJUST
 70
0
  9
$CMLSCALE
 40
20.0
  9
$PROXYGRAPHICS
 70
1
  9
$MEASUREMENT
 70
0
  9
$CELWEIGHT
370
-1
  9
$ENDCAPS
280
0
  9
$JOINSTYLE
280
0
  9
$LWDISPLAY
290
0
  9
$INSUNITS
 70
1
  9
$HYPERLINKBASE
  1

  9
$STYLESHEET
  1

  9
$XEDIT
290
1
  9
$CEPSNTYPE
380
0
  9
$PSTYLEMODE
290
1
  9
$FINGERPRINTGUID
  2
{1EC05BA5-B0FC-484E-A55D-94D297D904F0}
  9
$VERSIONGUID
  2
{4ED6A3DB-2BB5-48DF-ADB2-3B7DF1119247}
  9
$EXTNAMES
290
1
  9
$PSVPSCALE
 40
0.0
  9
$OLESTARTUP
290
0
  0
ENDSEC
  0
SECTION
  2
CLASSES
  0
CLASS
  1
ACDBDICTIONARYWDFLT
  2
AcDbDictionaryWithDefault
  3
ObjectDBX Classes
 90
0
280
0
281
0
  0
CLASS
  1
SUN
  2
AcDbSun
  3
SCENEOE
 90
1153
280
0
281
0
  0
CLASS
  1
VISUALSTYLE
  2
AcDbVisualStyle
  3
ObjectDBX Classes
 90
4095
280
0
281
0
  0
CLASS
  1
MATERIAL
  2
AcDbMaterial
  3
ObjectDBX Classes
 90
1153
280
0
281
0
  0
CLASS
  1
SCALE
  2
AcDbScale
  3
ObjectDBX Classes
 90
1153
280
0
281
0
  0
CLASS
  1
TABLESTYLE
  2
AcDbTableStyle
  3
ObjectDBX Classes
 90
4095
280
0
281
0
  0
CLASS
  1
MLEADERSTYLE
  2
AcDbMLeaderStyle
  3
ACDB_MLEADERSTYLE_CLASS
 90
4095
280
0
281
0
  0
CLASS
  1
DICTIONARYVAR
  2
AcDbDictionaryVar
  3
ObjectDBX Classes
 90
0
280
0
281
0
  0
CLASS
  1
CELLSTYLEMAP
  2
AcDbCellStyleMap
  3
ObjectDBX Classes
 90
1152
280
0
281
0
  0
CLASS
  1
MENTALRAYRENDERSETTINGS
  2
AcDbMentalRayRenderSettings
  3
SCENEOE
 90
1024
280
0
281
0
  0
CLASS
  1
ACDBDETAILVIEWSTYLE
  2
AcDbDetailViewStyle
  3
ObjectDBX Classes
 90
1025
280
0
281
0
  0
CLASS
  1
ACDBSECTIONVIEWSTYLE
  2
AcDbSectionViewStyle
  3
ObjectDBX Classes
 90
1025
280
0
281
0
  0
CLASS
  1
RASTERVARIABLES
  2
AcDbRasterVariables
  3
ISM
 90
0
280
0
281
0
  0
CLASS
  1
ACDBPLACEHOLDER
  2
AcDbPlaceHolder
  3
ObjectDBX Classes
 90
0
280
0
281
0
  0
CLASS
  1
LAYOUT
  2
AcDbLayout
  3
ObjectDBX Classes
 90
0
280
0
281
0
  0
ENDSEC
  0
SECTION
  2
TABLES
  0
TABLE
  2
VPORT
  5
8
330
0
100
AcDbSymbolTable
 70
1
  0
VPORT
  5
23
330
8
100
AcDbSymbolTableRecord
100
AcDbViewportTableRecord
  2
*Active
 70
0
 10
0.0
 20
0.0
 11
1.0
 21
1.0
 12
0.0
 22
0.0
 13
0.0
 23
0.0
 14
0.5
 24
0.5
 15
0.5
 25
0.5
 16
0.0
 26
0.0
 36
1.0
 17
0.0
 27
0.0
 37
0.0
 40
1000.0
 41
1.34
 42
50.0
 43
0.0
 44
0.0
 50
0.0
 51
0.0
 71
0
 72
1000
 73
1
 74
3
 75
0
 76
0
 77
0
 78
0
281
0
 65
0
146
0.0
  0
ENDTAB
  0
TABLE
  2
LTYPE
  5
2
330
0
100
AcDbSymbolTable
 70
3
  0
LTYPE
  5
24
330
2
100
AcDbSymbolTableRecord
100
AcDbLinetypeTableRecord
  2
ByBlock
 70
0
  3

 72
65
 73
0
 40
0.0
  0
LTYPE
  5
25
330
2
100
AcDbSymbolTableRecord
100
AcDbLinetypeTableRecord
  2
ByLayer
 70
0
  3

 72
65
 73
0
 40
0.0
  0
LTYPE
  5
26
330
2
100
AcDbSymbolTableRecord
100
AcDbLinetypeTableRecord
  2
Continuous
 70
0
  3

 72
65
 73
0
 40
0.0
  0
ENDTAB
  0
TABLE
  2
LAYER
  5
1
330
0
100
AcDbSymbolTable
 70
3
  0
LAYER
  5
27
330
1
100
AcDbSymbolTableRecord
100
AcDbLayerTableRecord
  2
0
 70
0
 62
7
  6
Continuous
370
-3
390
13
  0
LAYER
  5
28
330
1
100
AcDbSymbolTableRecord
100
AcDbLayerTableRecord
  2
Defpoints
 70
0
 62
7
  6
Continuous
290
0
370
-3
390
13
  0
LAYER
  5
2F
330
1
100
AcDbSymbolTableRecord
100
AcDbLayerTableRecord
  2
CUT
 70
0
 62
7
  6
Continuous
370
-3
390
13
  0
ENDTAB
  0
TABLE
  2
STYLE
  5
5
330
0
100
AcDbSymbolTable
 70
1
  0
STYLE
  5
29
330
5
100
AcDbSymbolTableRecord
100
AcDbTextStyleTableRecord
  2
Standard
 70
0
 40
0.0
 41
1.0
 50
0.0
 71
0
 42
2.5
  3
txt
  4

  0
ENDTAB
  0
TABLE
  2
VIEW
  5
7
330
0
100
AcDbSymbolTable
 70
0
  0
ENDTAB
  0
TABLE
  2
UCS
  5
6
330
0
100
AcDbSymbolTable
 70
0
  0
ENDTAB
  0
TABLE
  2
APPID
  5
3
330
0
100
AcDbSymbolTable
 70
3
  0
APPID
  5
2A
330
3
100
AcDbSymbolTableRecord
100
AcDbRegAppTableRecord
  2
ACAD
 70
0
  0
APPID
  5
3D
330
3
100
AcDbSymbolTableRecord
100
AcDbRegAppTableRecord
  2
HATCHBACKGROUNDCOLOR
 70
0
  0
APPID
  5
3E
330
3
100
AcDbSymbolTableRecord
100
AcDbRegAppTableRecord
  2
EZDXF
 70
0
  0
ENDTAB
  0
TABLE
  2
DIMSTYLE
  5
4
330
0
100
AcDbSymbolTable
 70
1
100
AcDbDimStyleTable
  0
DIMSTYLE
105
2B
330
4
100
AcDbSymbolTableRecord
100
AcDbDimStyleTableRecord
  2
Standard
 70
0
  3

  4

 40
1.0
 41
2.5
 42
0.625
 43
3.75
 44
1.25
 45
0.0
 46
0.0
 47
0.0
 48
0.0
140
2.5
141
2.5
142
0.0
143
0.03937007874
144
1.0
145
0.0
146
1.0
147
0.625
148
0.0
 71
0
 72
0
 73
0
 74
0
 75
0
 76
0
 77
1
 78
8
 79
3
170
0
171
3
172
1
173
0
174
0
175
0
176
0
177
0
178
0
179
2
271
2
272
2
273
2
274
3
275
0
276
0
277
2
278
44
279
0
280
0
281
0
282
0
283
0
284
8
285
0
286
0
288
0
289
3
371
-2
372
-2
  0
ENDTAB
  0
TABLE
  2
BLOCK_RECORD
  5
9
330
0
100
AcDbSymbolTable
 70
2
  0
BLOCK_RECORD
  5
17
330
9
100
AcDbSymbolTableRecord
100
AcDbBlockTableRecord
  2
*Model_Space
340
1A
  0
BLOCK_RECORD
  5
1B
330
9
100
AcDbSymbolTableRecord
100
AcDbBlockTableRecord
  2
*Paper_Space
340
1E
  0
ENDTAB
  0
ENDSEC
  0
SECTION
  2
BLOCKS
  0
BLOCK
  5
18
330
17
100
AcDbEntity
  8
0
100
AcDbBlockBegin
  2
*Model_Space
 70
0
 10
0.0
 20
0.0
 30
0.0
  3
*Model_Space
  1

  0
ENDBLK
  5
19
330
17
100
AcDbEntity
  8
0
100
AcDbBlockEnd
  0
BLOCK
  5
1C
330
1B
100
AcDbEntity
  8
0
100
AcDbBlockBegin
  2
*Paper_Space
 70
0
 10
0.0
 20
0.0
 30
0.0
  3
*Paper_Space
  1

  0
ENDBLK
  5
1D
330
1B
100
AcDbEntity
  8
0
100
AcDbBlockEnd
  0
ENDSEC
  0
SECTION
  2
ENTITIES
  0
LWPOLYLINE
  5
30
330
17
100
AcDbEntity
  8
CUT
100
AcDbPolyline
 90
108
 70
1
 10
16.0722
 20
1.9718
 10
16.0606
 20
2.2487
 10
17.0328
 20
2.9141
 10
20.0302
 20
3.039
 10
20.1395
 20
0.4163
 10
10.1491
 20
0.0
 10
10.1481
 20
0.0
 10
10.0702
 20
1.8697
 10
10.07
 20
1.8699
 10
10.0699
 20
1.8699
 10
10.0698
 20
1.87
 10
10.0696
 20
1.87
 10
10.0696
 20
1.8699
 10
10.0694
 20
1.8699
 10
10.0694
 20
1.8698
 10
10.0693
 20
1.8698
 10
10.0693
 20
1.8696
 10
10.0692
 20
1.8696
 10
9.9913
 20
0.0
 10
9.9903
 20
0.0
 10
0.0
 20
0.4163
 10
0.1093
 20
3.039
 10
3.1067
 20
2.9141
 10
4.0788
 20
2.2487
 10
4.0673
 20
1.9717
 10
4.0674
 20
1.9717
 10
4.0674
 20
1.9716
 10
4.0675
 20
1.9716
 10
4.0675
 20
1.9715
 10
4.0676
 20
1.9715
 10
4.0677
 20
1.9714
 10
4.1304
 20
1.9688
 10
4.1304
 20
1.9689
 10
4.1305
 20
1.9689
 10
4.1307
 20
1.9691
 10
4.144
 20
2.2883
 10
4.1439
 20
2.2883
 10
4.1439
 20
2.2884
 10
4.1438
 20
2.2884
 10
4.1438
 20
2.2885
 10
4.0816
 20
2.2911
 10
4.1782
 20
4.6103
 10
4.2404
 20
4.6078
 10
4.2405
 20
4.6079
 10
4.2406
 20
4.6079
 10
4.2406
 20
4.6081
 10
4.2407
 20
4.6081
 10
4.254
 20
4.9271
 10
4.2539
 20
4.9272
 10
4.2539
 20
4.9273
 10
4.2538
 20
4.9273
 10
4.2538
 20
4.9274
 10
4.2537
 20
4.9274
 10
4.2536
 20
4.9275
 10
4.1909
 20
4.9301
 10
4.1908
 20
4.93
 10
4.1907
 20
4.93
 10
4.1907
 20
4.9299
 10
4.1906
 20
4.9299
 10
4.1906
 20
4.9298
 10
4.1905
 20
4.9297
 10
4.179
 20
4.6528
 10
3.1549
 20
4.0706
 10
0.1575
 20
4.1955
 10
0.2667
 20
6.8182
 10
10.0617
 20
6.4101
 10
10.0617
 20
4.525
 10
10.0777
 20
4.525
 10
10.0777
 20
6.4101
 10
19.8727
 20
6.8182
 10
19.982
 20
4.1955
 10
16.9846
 20
4.0706
 10
15.9605
 20
4.6528
 10
15.9489
 20
4.9298
 10
15.9488
 20
4.9299
 10
15.9488
 20
4.93
 10
15.9486
 20
4.93
 10
15.9486
 20
4.9301
 10
15.8858
 20
4.9275
 10
15.8858
 20
4.9274
 10
15.8856
 20
4.9274
 10
15.8856
 20
4.9272
 10
15.8855
 20
4.9272
 10
15.8988
 20
4.608
 10
15.8989
 20
4.608
 10
15.8989
 20
4.6079
 10
15.899
 20
4.6079
 10
15.899
 20
4.6078
 10
15.9612
 20
4.6103
 10
16.0579
 20
2.2911
 10
15.9956
 20
2.2885
 10
15.9956
 20
2.2884
 10
15.9955
 20
2.2883
 10
15.9955
 20
2.2882
 10
15.9954
 20
2.2881
 10
16.0087
 20
1.9692
 10
16.0088
 20
1.9691
 10
16.0088
 20
1.969
 10
16.0089
 20
1.969
 10
16.0089
 20
1.9689
 10
16.009
 20
1.9689
 10
16.0091
 20
1.9688
 10
16.0718
 20
1.9714
 10
16.0718
 20
1.9715
 10
16.072
 20
1.9715
 10
16.072
 20
1.9716
 10
16.0721
 20
1.9716
 10
16.0721
 20
1.9718
  0
CIRCLE
  5
31
330
17
100
AcDbEntity
  8
CUT
100
AcDbCircle
 10
19.587849459405437
 20
1.6444053611908203
 30
0.0
 40
0.12498322364641343
  0
CIRCLE
  5
32
330
17
100
AcDbEntity
  8
CUT
100
AcDbCircle
 10
19.425181190122746
 20
5.548484582657391
 30
0.0
 40
0.12498998545086036
  0
LWPOLYLINE
  5
33
330
17
100
AcDbEntity
  8
CUT
100
AcDbPolyline
 90
35
 70
1
 10
17.8447
 20
1.4712
 42
0.09937710571426481
 10
17.8584
 20
1.3746
 10
17.8676
 20
1.3519
 10
17.8676
 20
1.3518
 10
17.879
 20
1.3302
 42
0.10007114241323548
 10
17.944
 20
1.2574
 10
17.9642
 20
1.2436
 10
17.9643
 20
1.2436
 42
0.14892726314145474
 10
18.1048
 20
1.2073
 10
18.8541
 20
1.2385
 42
0.3032535427311272
 10
19.0784
 20
1.4023
 10
19.0785
 20
1.4023
 10
19.0857
 20
1.4257
 42
0.12437453202474104
 10
19.0866
 20
1.5473
 10
19.0797
 20
1.5707
 42
0.12364181497403824
 10
19.0129
 20
1.6723
 10
18.9941
 20
1.688
 10
18.9738
 20
1.7017
 10
18.9738
 20
1.7018
 10
18.9523
 20
1.7135
 10
18.9522
 20
1.7135
 10
18.9297
 20
1.723
 10
18.9296
 20
1.7231
 10
18.9063
 20
1.7303
 10
18.9062
 20
1.7303
 42
0.07392919573338834
 10
18.8333
 20
1.7381
 10
18.0839
 20
1.7069
 42
0.09928610571070752
 10
17.9891
 20
1.6838
 10
17.9674
 20
1.6725
 10
17.9674
 20
1.6724
 42
0.1481951657831807
 10
17.8692
 20
1.5657
 10
17.8691
 20
1.5656
 10
17.8596
 20
1.5431
 10
17.8596
 20
1.543
 42
0.07604156251403804
 10
17.8448
 20
1.4712
  0
LWPOLYLINE
  5
34
330
17
100
AcDbEntity
  8
CUT
100
AcDbPolyline
 90
27
 70
1
 10
18.7531
 20
5.4061
 10
18.7531
 20
5.4062
 10
18.7758
 20
5.4154
 10
18.7975
 20
5.4268
 42
0.0987061246604391
 10
18.8703
 20
5.4918
 10
18.8841
 20
5.512
 10
18.8841
 20
5.5121
 42
0.4141915215029867
 10
18.8007
 20
5.8556
 10
18.7792
 20
5.8673
 42
0.050290002085022364
 10
18.7331
 20
5.8842
 10
18.7092
 20
5.8892
 10
18.6848
 20
5.8917
 10
18.6847
 20
5.8918
 10
18.6602
 20
5.8919
 10
17.9109
 20
5.8607
 42
0.09944486635244201
 10
17.8161
 20
5.8377
 10
17.816
 20
5.8377
 10
17.7944
 20
5.8263
 10
17.7943
 20
5.8263
 10
17.7739
 20
5.8128
 10
17.7738
 20
5.8128
 10
17.7548
 20
5.7974
 42
0.050477064275799885
 10
17.7216
 20
5.7613
 10
17.7078
 20
5.7411
 10
17.7078
 20
5.741
 42
0.599158999965814
 10
17.9317
 20
5.3611
 10
18.681
 20
5.3924
 42
0.07341919106523326
  0
CIRCLE
  5
35
330
17
100
AcDbEntity
  8
CUT
100
AcDbCircle
 10
16.84022542711139
 20
1.529919148368407
 30
0.0
 40
0.12498825835161519
  0
CIRCLE
  5
36
330
17
100
AcDbEntity
  8
CUT
100
AcDbCircle
 10
16.677555065810456
 20
5.433997822114737
 30
0.0
 40
0.12498327907632659
  0
CIRCLE
  5
37
330
17
100
AcDbEntity
  8
CUT
100
AcDbCircle
 10
3.4618931484861526
 20
5.433995721881416
 30
0.0
 40
0.12499073425818005
  0
CIRCLE
  5
38
330
17
100
AcDbEntity
  8
CUT
100
AcDbCircle
 10
3.299217912194606
 20
1.5299187043719953
 30
0.0
 40
0.12498873667492039
  0
LWPOLYLINE
  5
39
330
17
100
AcDbEntity
  8
CUT
100
AcDbPolyline
 90
37
 70
1
 10
1.4547
 20
5.8918
 10
1.4547
 20
5.8917
 42
0.07446829155269058
 10
1.3829
 20
5.8769
 10
1.3828
 20
5.8769
 10
1.3603
 20
5.8674
 10
1.3602
 20
5.8673
 10
1.3387
 20
5.8556
 10
1.3184
 20
5.8419
 10
1.3184
 20
5.8418
 10
1.2996
 20
5.8261
 42
0.07496577390632915
 10
1.2535
 20
5.7691
 10
1.2534
 20
5.7691
 10
1.2421
 20
5.7474
 42
0.2510766022421623
 10
1.2554
 20
5.512
 10
1.2691
 20
5.4918
 10
1.2848
 20
5.4729
 10
1.2849
 20
5.4729
 10
1.3023
 20
5.4557
 10
1.3214
 20
5.4403
 42
0.14840813320410545
 10
1.4584
 20
5.3924
 10
2.2078
 20
5.3611
 42
0.09866655548824854
 10
2.3041
 20
5.3762
 10
2.3042
 20
5.3762
 10
2.3267
 20
5.3857
 10
2.3268
 20
5.3857
 10
2.3483
 20
5.3974
 10
2.3483
 20
5.3975
 10
2.3686
 20
5.4112
 10
2.3686
 20
5.4113
 10
2.3875
 20
5.427
 10
2.4046
 20
5.4444
 42
0.3303784879229788
 10
2.4316
 20
5.7411
 10
2.4179
 20
5.7613
 10
2.4022
 20
5.7802
 10
2.4021
 20
5.7802
 42
0.19892274190037207
 10
2.2286
 20
5.8607
 10
1.4792
 20
5.8919
  0
LWPOLYLINE
  5
3A
330
17
100
AcDbEntity
  8
CUT
100
AcDbPolyline
 90
45
 70
1
 10
2.2872
 20
1.5196
 10
2.2871
 20
1.5196
 10
2.2799
 20
1.543
 10
2.2798
 20
1.5431
 10
2.2703
 20
1.5656
 42
0.1487152100741263
 10
2.172
 20
1.6724
 10
2.172
 20
1.6725
 10
2.1503
 20
1.6838
 10
2.1503
 20
1.6839
 10
2.1276
 20
1.6931
 10
2.1275
 20
1.6931
 42
0.07165703261537926
 10
2.0555
 20
1.7069
 10
1.3061
 20
1.7381
 42
0.09821789542786873
 10
1.2098
 20
1.723
 10
1.1872
 20
1.7135
 10
1.1657
 20
1.7018
 10
1.1656
 20
1.7017
 10
1.1454
 20
1.688
 42
0.2506593866561836
 10
1.0462
 20
1.4741
 10
1.0487
 20
1.4497
 10
1.0537
 20
1.4258
 42
0.050290002086863204
 10
1.0706
 20
1.3797
 10
1.0823
 20
1.3582
 10
1.096
 20
1.3379
 10
1.0961
 20
1.3379
 10
1.1118
 20
1.319
 10
1.1292
 20
1.3018
 10
1.1293
 20
1.3018
 42
0.17348901272328576
 10
1.2854
 20
1.2385
 10
2.0347
 20
1.2073
 42
0.09766821753617992
 10
2.131
 20
1.2223
 10
2.1311
 20
1.2223
 10
2.1536
 20
1.2319
 42
0.07510909194131207
 10
2.2143
 20
1.2731
 10
2.2144
 20
1.2731
 10
2.2316
 20
1.2905
 10
2.2316
 20
1.2906
 10
2.247
 20
1.3096
 10
2.247
 20
1.3097
 10
2.2605
 20
1.3301
 10
2.2605
 20
1.3302
 10
2.2719
 20
1.3518
 10
2.2719
 20
1.3519
 10
2.2811
 20
1.3746
 10
2.288
 20
1.3981
 42
0.12375945843917847
  0
CIRCLE
  5
3B
330
17
100
AcDbEntity
  8
CUT
100
AcDbCircle
 10
0.7142798697776834
 20
5.548486437410951
 30
0.0
 40
0.12499200521418283
  0
CIRCLE
  5
3C
330
17
100
AcDbEntity
  8
CUT
100
AcDbCircle
 10
0.5516031759245179
 20
1.6444070185433688
 30
0.0
 40
0.12499157487354048
  0
ENDSEC
  0
SECTION
  2
OBJECTS
  0
DICTIONARY
  5
A
330
0
100
AcDbDictionary
281
1
  3
ACAD_COLOR
350
B
  3
ACAD_GROUP
350
C
  3
ACAD_LAYOUT
350
D
  3
ACAD_MATERIAL
350
E
  3
ACAD_MLEADERSTYLE
350
F
  3
ACAD_MLINESTYLE
350
10
  3
ACAD_PLOTSETTINGS
350
11
  3
ACAD_PLOTSTYLENAME
350
12
  3
ACAD_SCALELIST
350
14
  3
ACAD_TABLESTYLE
350
15
  3
ACAD_VISUALSTYLE
350
16
  3
EZDXF_META
350
2D
  0
DICTIONARY
  5
B
330
A
100
AcDbDictionary
281
1
  0
DICTIONARY
  5
C
330
A
100
AcDbDictionary
281
1
  0
DICTIONARY
  5
D
330
A
100
AcDbDictionary
281
1
  3
Model
350
1A
  3
Layout1
350
1E
  0
DICTIONARY
  5
E
330
A
100
AcDbDictionary
281
1
  3
ByBlock
350
1F
  3
ByLayer
350
20
  3
Global
350
21
  0
DICTIONARY
  5
F
330
A
100
AcDbDictionary
281
1
  3
Standard
350
2C
  0
DICTIONARY
  5
10
330
A
100
AcDbDictionary
281
1
  3
Standard
350
22
  0
DICTIONARY
  5
11
330
A
100
AcDbDictionary
281
1
  0
ACDBDICTIONARYWDFLT
  5
12
330
A
100
AcDbDictionary
281
1
  3
Normal
350
13
100
AcDbDictionaryWithDefault
340
13
  0
ACDBPLACEHOLDER
  5
13
330
12
  0
DICTIONARY
  5
14
330
A
100
AcDbDictionary
281
1
  0
DICTIONARY
  5
15
330
A
100
AcDbDictionary
281
1
  0
DICTIONARY
  5
16
330
A
100
AcDbDictionary
281
1
  0
LAYOUT
  5
1A
330
D
100
AcDbPlotSettings
  1

  4
A3
  6

 40
7.5
 41
20.0
 42
7.5
 43
20.0
 44
420.0
 45
297.0
 46
0.0
 47
0.0
 48
0.0
 49
0.0
140
0.0
141
0.0
142
1.0
143
1.0
 70
1024
 72
1
 73
0
 74
5
  7

 75
16
 76
0
 77
2
 78
300
147
1.0
148
0.0
149
0.0
100
AcDbLayout
  1
Model
 70
1
 71
0
 10
0.0
 20
0.0
 11
420.0
 21
297.0
 12
0.0
 22
0.0
 32
0.0
 14
1e+20
 24
1e+20
 34
1e+20
 15
-1e+20
 25
-1e+20
 35
-1e+20
146
0.0
 13
0.0
 23
0.0
 33
0.0
 16
1.0
 26
0.0
 36
0.0
 17
0.0
 27
1.0
 37
0.0
 76
1
330
17
  0
LAYOUT
  5
1E
330
D
100
AcDbPlotSettings
  1

  4
A3
  6

 40
7.5
 41
20.0
 42
7.5
 43
20.0
 44
420.0
 45
297.0
 46
0.0
 47
0.0
 48
0.0
 49
0.0
140
0.0
141
0.0
142
1.0
143
1.0
 70
0
 72
1
 73
0
 74
5
  7

 75
16
 76
0
 77
2
 78
300
147
1.0
148
0.0
149
0.0
100
AcDbLayout
  1
Layout1
 70
1
 71
1
 10
0.0
 20
0.0
 11
420.0
 21
297.0
 12
0.0
 22
0.0
 32
0.0
 14
1e+20
 24
1e+20
 34
1e+20
 15
-1e+20
 25
-1e+20
 35
-1e+20
146
0.0
 13
0.0
 23
0.0
 33
0.0
 16
1.0
 26
0.0
 36
0.0
 17
0.0
 27
1.0
 37
0.0
 76
1
330
1B
  0
MATERIAL
  5
1F
102
{ACAD_REACTORS
330
E
102
}
330
E
100
AcDbMaterial
  1
ByBlock
  2

 70
0
 40
1.0
 71
1
 41
1.0
 91
-1023410177
 42
1.0
 72
1
  3

 73
1
 74
1
 75
1
 44
0.5
 73
0
 45
1.0
 46
1.0
 77
1
  4

 78
1
 79
1
170
1
 48
1.0
171
1
  6

172
1
173
1
174
1
140
1.0
141
1.0
175
1
  7

176
1
177
1
178
1
143
1.0
179
1
  8

270
1
271
1
272
1
145
1.0
146
1.0
273
1
  9

274
1
275
1
276
1
 42
1.0
 72
1
  3

 73
1
 74
1
 75
1
 94
63
  0
MATERIAL
  5
20
102
{ACAD_REACTORS
330
E
102
}
330
E
100
AcDbMaterial
  1
ByLayer
  2

 70
0
 40
1.0
 71
1
 41
1.0
 91
-1023410177
 42
1.0
 72
1
  3

 73
1
 74
1
 75
1
 44
0.5
 73
0
 45
1.0
 46
1.0
 77
1
  4

 78
1
 79
1
170
1
 48
1.0
171
1
  6

172
1
173
1
174
1
140
1.0
141
1.0
175
1
  7

176
1
177
1
178
1
143
1.0
179
1
  8

270
1
271
1
272
1
145
1.0
146
1.0
273
1
  9

274
1
275
1
276
1
 42
1.0
 72
1
  3

 73
1
 74
1
 75
1
 94
63
  0
MATERIAL
  5
21
102
{ACAD_REACTORS
330
E
102
}
330
E
100
AcDbMaterial
  1
Global
  2

 70
0
 40
1.0
 71
1
 41
1.0
 91
-1023410177
 42
1.0
 72
1
  3

 73
1
 74
1
 75
1
 44
0.5
 73
0
 45
1.0
 46
1.0
 77
1
  4

 78
1
 79
1
170
1
 48
1.0
171
1
  6

172
1
173
1
174
1
140
1.0
141
1.0
175
1
  7

176
1
177
1
178
1
143
1.0
179
1
  8

270
1
271
1
272
1
145
1.0
146
1.0
273
1
  9

274
1
275
1
276
1
 42
1.0
 72
1
  3

 73
1
 74
1
 75
1
 94
63
  0
MLINESTYLE
  5
22
102
{ACAD_REACTORS
330
10
102
}
330
10
100
AcDbMlineStyle
  2
Standard
 70
0
  3

 62
256
 51
90.0
 52
90.0
 71
2
 49
0.5
 62
256
  6
BYLAYER
 49
-0.5
 62
256
  6
BYLAYER
  0
MLEADERSTYLE
  5
2C
102
{ACAD_REACTORS
330
F
102
}
330
F
100
AcDbMLeaderStyle
179
2
170
2
171
1
172
0
 90
2
 40
0.0
 41
0.0
173
1
 91
-1056964608
 92
-2
290
1
 42
2.0
291
1
 43
8.0
  3
Standard
 44
4.0
300

342
29
174
1
175
1
176
0
178
1
 93
-1056964608
 45
4.0
292
0
297
0
 46
4.0
 94
-1056964608
 47
1.0
 49
1.0
140
1.0
294
1
141
0.0
177
0
142
1.0
295
0
296
0
143
3.75
271
0
272
9
273
9
  0
DICTIONARY
  5
2D
330
A
100
AcDbDictionary
280
1
281
1
  3
CREATED_BY_EZDXF
350
2E
  3
WRITTEN_BY_EZDXF
350
3F
  0
DICTIONARYVAR
  5
2E
330
2D
100
DictionaryVariables
280
0
  1
1.4.4 @ 2026-10-04T19:16:22.046762+00:00
  0
DICTIONARYVAR
  5
3F
330
2D
100
DictionaryVariables
280
0
  1
1.4.4 @ 2026-10-04T19:16:22.059628+00:00
  0
ENDSEC
  0
EOF
