  0
SECTION
  2
HEADER
  9
$ACADVER
  1
AC1015
  9
$ACADMAINTVER
 70
6
  9
$DWGCODEPAGE
  3
ANSI_1252
  9
$INSBASE
 10
0.0
 20
0.0
 30
0.0
  9
$EXTMIN
 10
1e+20
 20
1e+20
 30
1e+20
  9
$EXTMAX
 10
-1e+20
 20
-1e+20
 30
-1e+20
  9
$LIMMIN
 10
0.0
 20
0.0
  9
$LIMMAX
 10
420.0
 20
297.0
  9
$ORTHOMODE
 70
0
  9
$REGENMODE
 70
1
  9
$FILLMODE
 70
1
  9
$QTEXTMODE
 70
0
  9
$MIRRTEXT
 70
1
  9
$LTSCALE
 40
1.0
  9
$ATTMODE
 70
1
  9
$TEXTSIZE
 40
2.5
  9
$TRACEWID
 40
1.0
  9
$TEXTSTYLE
  7
Standard
  9
$CLAYER
  8
0
  9
$CELTYPE
  6
ByLayer
  9
$CECOLOR
 62
256
  9
$CELTSCALE
 40
1.0
  9
$DISPSILH
 70
0
  9
$DIMSCALE
 40
1.0
  9
$DIMASZ
 40
2.5
  9
$DIMEXO
 40
0.625
  9
$DIMDLI
 40
3.75
  9
$DIMRND
 40
0.0
  9
$DIMDLE
 40
0.0
  9
$DIMEXE
 40
1.25
  9
$DIMTP
 40
0.0
  9
$DIMTM
 40
0.0
  9
$DIMTXT
 40
2.5
  9
$DIMCEN
 40
2.5
  9
$DIMTSZ
 40
0.0
  9
$DIMTOL
 70
0
  9
$DIMLIM
 70
0
  9
$DIMTIH
 70
0
  9
$DIMTOH
 70
0
  9
$DIMSE1
 70
0
  9
$DIMSE2
 70
0
  9
$DIMTAD
 70
1
  9
$DIMZIN
 70
8
  9
$DIMBLK
  1

  9
$DIMASO
 70
1
  9
$DIMSHO
 70
1
  9
$DIMPOST
  1

  9
$DIMAPOST
  1

  9
$DIMALT
 70
0
  9
$DIMALTD
 70
3
  9
$DIMALTF
 40
0.03937007874
  9
$DIMLFAC
 40
1.0
  9
$DIMTOFL
 70
1
  9
$DIMTVP
 40
0.0
  9
$DIMTIX
 70
0
  9
$DIMSOXD
 70
0
  9
$DIMSAH
 70
0
  9
$DIMBLK1
  1

  9
$DIMBLK2
  1

  9
$DIMSTYLE
  2
ISO-25
  9
$DIMCLRD
 70
0
  9
$DIMCLRE
 70
0
  9
$DIMCLRT
 70
0
  9
$DIMTFAC
 40
1.0
  9
$DIMGAP
 40
0.625
  9
$DIMJUST
 70
0
  9
$DIMSD1
 70
0
  9
$DIMSD2
 70
0
  9
$DIMTOLJ
 70
0
  9
$DIMTZIN
 70
8
  9
$DIMALTZ
 70
0
  9
$DIMALTTZ
 70
0
  9
$DIMUPT
 70
0
  9
$DIMDEC
 70
2
  9
$DIMTDEC
 70
2
  9
$DIMALTU
 70
2
  9
$DIMALTTD
 70
3
  9
$DIMTXSTY
  7
Standard
  9
$DIMAUNIT
 70
0
  9
$DIMADEC
 70
0
  9
$DIMALTRND
 40
0.0
  9
$DIMAZIN
 70
0
  9
$DIMDSEP
 70
44
  9
$DIMATFIT
 70
3
  9
$DIMFRAC
 70
0
  9
$DIMLDRBLK
  1

  9
$DIMLUNIT
 70
2
  9
$DIMLWD
 70
-2
  9
$DIMLWE
 70
-2
  9
$DIMTMOVE
 70
0
  9
$LUNITS
 70
2
  9
$LUPREC
 70
4
  9
$SKETCHINC
 40
1.0
  9
$FILLETRAD
 40
10.0
  9
$AUNITS
 70
0
  9
$AUPREC
 70
2
  9
$MENU
  1
.
  9
$ELEVATION
 40
0.0
  9
$PELEVATION
 40
0.0
  9
$THICKNESS
 40
0.0
  9
$LIMCHECK
 70
0
  9
$CHAMFERA
 40
0.0
  9
$CHAMFERB
 40
0.0
  9
$CHAMFERC
 40
0.0
  9
$CHAMFERD
 40
0.0
  9
$SKPOLY
 70
0
  9
$TDCREATE
 40
2461318.6363078705
  9
$TDUCREATE
 40
2458532.153996898
  9
$TDUPDATE
 40
2461318.6363078705
  9
$TDUUPDATE
 40
2458532.1544311
  9
$TDINDWG
 40
0.0
  9
$TDUSRTIMER
 40
0.0
  9
$USRTIMER
 70
1
  9
$ANGBASE
 50
0.0
  9
$ANGDIR
 70
0
  9
$PDMODE
 70
0
  9
$PDSIZE
 40
0.0
  9
$PLINEWID
 40
0.0
  9
$SPLFRAME
 70
0
  9
$SPLINETYPE
 70
6
  9
$SPLINESEGS
 70
8
  9
$HANDSEED
  5
37
  9
$SURFTAB1
 70
6
  9
$SURFTAB2
 70
6
  9
$SURFTYPE
 70
6
  9
$SURFU
 70
6
  9
$SURFV
 70
6
  9
$UCSBASE
  2

  9
$UCSNAME
  2

  9
$UCSORG
 10
0.0
 20
0.0
 30
0.0
  9
$UCSXDIR
 10
1.0
 20
0.0
 30
0.0
  9
$UCSYDIR
 10
0.0
 20
1.0
 30
0.0
  9
$UCSORTHOREF
  2

  9
$UCSORTHOVIEW
 70
0
  9
$UCSORGTOP
 10
0.0
 20
0.0
 30
0.0
  9
$UCSORGBOTTOM
 10
0.0
 20
0.0
 30
0.0
  9
$UCSORGLEFT
 10
0.0
 20
0.0
 30
0.0
  9
$UCSORGRIGHT
 10
0.0
 20
0.0
 30
0.0
  9
$UCSORGFRONT
 10
0.0
 20
0.0
 30
0.0
  9
$UCSORGBACK
 10
0.0
 20
0.0
 30
0.0
  9
$PUCSBASE
  2

  9
$PUCSNAME
  2

  9
$PUCSORG
 10
0.0
 20
0.0
 30
0.0
  9
$PUCSXDIR
 10
1.0
 20
0.0
 30
0.0
  9
$PUCSYDIR
 10
0.0
 20
1.0
 30
0.0
  9
$PUCSORTHOREF
  2

  9
$PUCSORTHOVIEW
 70
0
  9
$PUCSORGTOP
 10
0.0
 20
0.0
 30
0.0
  9
$PUCSORGBOTTOM
 10
0.0
 20
0.0
 30
0.0
  9
$PUCSORGLEFT
 10
0.0
 20
0.0
 30
0.0
  9
$PUCSORGRIGHT
 10
0.0
 20
0.0
 30
0.0
  9
$PUCSORGFRONT
 10
0.0
 20
0.0
 30
0.0
  9
$PUCSORGBACK
 10
0.0
 20
0.0
 30
0.0
  9
$USERI1
 70
0
  9
$USERI2
 70
0
  9
$USERI3
 70
0
  9
$USERI4
 70
0
  9
$USERI5
 70
0
  9
$USERR1
 40
0.0
  9
$USERR2
 40
0.0
  9
$USERR3
 40
0.0
  9
$USERR4
 40
0.0
  9
$USERR5
 40
0.0
  9
$WORLDVIEW
 70
1
  9
$SHADEDGE
 70
3
  9
$SHADEDIF
 70
70
  9
$TILEMODE
 70
1
  9
$MAXACTVP
 70
64
  9
$PINSBASE
 10
0.0
 20
0.0
 30
0.0
  9
$PLIMCHECK
 70
0
  9
$PEXTMIN
 10
1e+20
 20
1e+20
 30
1e+20
  9
$PEXTMAX
 10
-1e+20
 20
-1e+20
 30
-1e+20
  9
$PLIMMIN
 10
0.0
 20
0.0
  9
$PLIMMAX
 10
420.0
 20
297.0
  9
$UNITMODE
 70
0
  9
$VISRETAIN
 70
1
  9
$PLINEGEN
 70
0
  9
$PSLTSCALE
 70
1
  9
$TREEDEPTH
 70
3020
  9
$CMLSTYLE
  2
Standard
  9
$CMLJUST
 70
0
  9
$CMLSCALE
 40
20.0
  9
$PROXYGRAPHICS
 70
1
  9
$MEASUREMENT
 70
0
  9
$CELWEIGHT
370
-1
  9
$ENDCAPS
280
0
  9
$JOINSTYLE
280
0
  9
$LWDISPLAY
290
0
  9
$INSUNITS
 70
1
  9
$HYPERLINKBASE
  1

  9
$STYLESHEET
  1

  9
$XEDIT
290
1
  9
$CEPSNTYPE
380
0
  9
$PSTYLEMODE
290
1
  9
$FINGERPRINTGUID
  2
{FAB1A0CD-2774-4127-B106-A5CD43E46147}
  9
$VERSIONGUID
  2
{DE459E47-8D51-48B6-9E9C-27D7157899C7}
  9
$EXTNAMES
290
1
  9
$PSVPSCALE
 40
0.0
  9
$OLESTARTUP
290
0
  0
ENDSEC
  0
SECTION
  2
CLASSES
  0
CLASS
  1
ACDBDICTIONARYWDFLT
  2
AcDbDictionaryWithDefault
  3
ObjectDBX Classes
 90
0
280
0
281
0
  0
CLASS
  1
SUN
  2
AcDbSun
  3
SCENEOE
 90
1153
280
0
281
0
  0
CLASS
  1
VISUALSTYLE
  2
AcDbVisualStyle
  3
ObjectDBX Classes
 90
4095
280
0
281
0
  0
CLASS
  1
MATERIAL
  2
AcDbMaterial
  3
ObjectDBX Classes
 90
1153
280
0
281
0
  0
CLASS
  1
SCALE
  2
AcDbScale
  3
ObjectDBX Classes
 90
1153
280
0
281
0
  0
CLASS
  1
TABLESTYLE
  2
AcDbTableStyle
  3
ObjectDBX Classes
 90
4095
280
0
281
0
  0
CLASS
  1
MLEADERSTYLE
  2
AcDbMLeaderStyle
  3
ACDB_MLEADERSTYLE_CLASS
 90
4095
280
0
281
0
  0
CLASS
  1
DICTIONARYVAR
  2
AcDbDictionaryVar
  3
ObjectDBX Classes
 90
0
280
0
281
0
  0
CLASS
  1
CELLSTYLEMAP
  2
AcDbCellStyleMap
  3
ObjectDBX Classes
 90
1152
280
0
281
0
  0
CLASS
  1
MENTALRAYRENDERSETTINGS
  2
AcDbMentalRayRenderSettings
  3
SCENEOE
 90
1024
280
0
281
0
  0
CLASS
  1
ACDBDETAILVIEWSTYLE
  2
AcDbDetailViewStyle
  3
ObjectDBX Classes
 90
1025
280
0
281
0
  0
CLASS
  1
ACDBSECTIONVIEWSTYLE
  2
AcDbSectionViewStyle
  3
ObjectDBX Classes
 90
1025
280
0
281
0
  0
CLASS
  1
RASTERVARIABLES
  2
AcDbRasterVariables
  3
ISM
 90
0
280
0
281
0
  0
CLASS
  1
ACDBPLACEHOLDER
  2
AcDbPlaceHolder
  3
ObjectDBX Classes
 90
0
280
0
281
0
  0
CLASS
  1
LAYOUT
  2
AcDbLayout
  3
ObjectDBX Classes
 90
0
280
0
281
0
  0
ENDSEC
  0
SECTION
  2
TABLES
  0
TABLE
  2
VPORT
  5
8
330
0
100
AcDbSymbolTable
 70
1
  0
VPORT
  5
23
330
8
100
AcDbSymbolTableRecord
100
AcDbViewportTableRecord
  2
*Active
 70
0
 10
0.0
 20
0.0
 11
1.0
 21
1.0
 12
0.0
 22
0.0
 13
0.0
 23
0.0
 14
0.5
 24
0.5
 15
0.5
 25
0.5
 16
0.0
 26
0.0
 36
1.0
 17
0.0
 27
0.0
 37
0.0
 40
1000.0
 41
1.34
 42
50.0
 43
0.0
 44
0.0
 50
0.0
 51
0.0
 71
0
 72
1000
 73
1
 74
3
 75
0
 76
0
 77
0
 78
0
281
0
 65
0
146
0.0
  0
ENDTAB
  0
TABLE
  2
LTYPE
  5
2
330
0
100
AcDbSymbolTable
 70
3
  0
LTYPE
  5
24
330
2
100
AcDbSymbolTableRecord
100
AcDbLinetypeTableRecord
  2
ByBlock
 70
0
  3

 72
65
 73
0
 40
0.0
  0
LTYPE
  5
25
330
2
100
AcDbSymbolTableRecord
100
AcDbLinetypeTableRecord
  2
ByLayer
 70
0
  3

 72
65
 73
0
 40
0.0
  0
LTYPE
  5
26
330
2
100
AcDbSymbolTableRecord
100
AcDbLinetypeTableRecord
  2
Continuous
 70
0
  3

 72
65
 73
0
 40
0.0
  0
ENDTAB
  0
TABLE
  2
LAYER
  5
1
330
0
100
AcDbSymbolTable
 70
3
  0
LAYER
  5
27
330
1
100
AcDbSymbolTableRecord
100
AcDbLayerTableRecord
  2
0
 70
0
 62
7
  6
Continuous
370
-3
390
13
  0
LAYER
  5
28
330
1
100
AcDbSymbolTableRecord
100
AcDbLayerTableRecord
  2
Defpoints
 70
0
 62
7
  6
Continuous
290
0
370
-3
390
13
  0
LAYER
  5
2F
330
1
100
AcDbSymbolTableRecord
100
AcDbLayerTableRecord
  2
CUT
 70
0
 62
7
  6
Continuous
370
-3
390
13
  0
ENDTAB
  0
TABLE
  2
STYLE
  5
5
330
0
100
AcDbSymbolTable
 70
1
  0
STYLE
  5
29
330
5
100
AcDbSymbolTableRecord
100
AcDbTextStyleTableRecord
  2
Standard
 70
0
 40
0.0
 41
1.0
 50
0.0
 71
0
 42
2.5
  3
txt
  4

  0
ENDTAB
  0
TABLE
  2
VIEW
  5
7
330
0
100
AcDbSymbolTable
 70
0
  0
ENDTAB
  0
TABLE
  2
UCS
  5
6
330
0
100
AcDbSymbolTable
 70
0
  0
ENDTAB
  0
TABLE
  2
APPID
  5
3
330
0
100
AcDbSymbolTable
 70
3
  0
APPID
  5
2A
330
3
100
AcDbSymbolTableRecord
100
AcDbRegAppTableRecord
  2
ACAD
 70
0
  0
APPID
  5
34
330
3
100
AcDbSymbolTableRecord
100
AcDbRegAppTableRecord
  2
HATCHBACKGROUNDCOLOR
 70
0
  0
APPID
  5
35
330
3
100
AcDbSymbolTableRecord
100
AcDbRegAppTableRecord
  2
EZDXF
 70
0
  0
ENDTAB
  0
TABLE
  2
DIMSTYLE
  5
4
330
0
100
AcDbSymbolTable
 70
1
100
AcDbDimStyleTable
  0
DIMSTYLE
105
2B
330
4
100
AcDbSymbolTableRecord
100
AcDbDimStyleTableRecord
  2
Standard
 70
0
  3

  4

 40
1.0
 41
2.5
 42
0.625
 43
3.75
 44
1.25
 45
0.0
 46
0.0
 47
0.0
 48
0.0
140
2.5
141
2.5
142
0.0
143
0.03937007874
144
1.0
145
0.0
146
1.0
147
0.625
148
0.0
 71
0
 72
0
 73
0
 74
0
 75
0
 76
0
 77
1
 78
8
 79
3
170
0
171
3
172
1
173
0
174
0
175
0
176
0
177
0
178
0
179
2
271
2
272
2
273
2
274
3
275
0
276
0
277
2
278
44
279
0
280
0
281
0
282
0
283
0
284
8
285
0
286
0
288
0
289
3
371
-2
372
-2
  0
ENDTAB
  0
TABLE
  2
BLOCK_RECORD
  5
9
330
0
100
AcDbSymbolTable
 70
2
  0
BLOCK_RECORD
  5
17
330
9
100
AcDbSymbolTableRecord
100
AcDbBlockTableRecord
  2
*Model_Space
340
1A
  0
BLOCK_RECORD
  5
1B
330
9
100
AcDbSymbolTableRecord
100
AcDbBlockTableRecord
  2
*Paper_Space
340
1E
  0
ENDTAB
  0
ENDSEC
  0
SECTION
  2
BLOCKS
  0
BLOCK
  5
18
330
17
100
AcDbEntity
  8
0
100
AcDbBlockBegin
  2
*Model_Space
 70
0
 10
0.0
 20
0.0
 30
0.0
  3
*Model_Space
  1

  0
ENDBLK
  5
19
330
17
100
AcDbEntity
  8
0
100
AcDbBlockEnd
  0
BLOCK
  5
1C
330
1B
100
AcDbEntity
  8
0
100
AcDbBlockBegin
  2
*Paper_Space
 70
0
 10
0.0
 20
0.0
 30
0.0
  3
*Paper_Space
  1

  0
ENDBLK
  5
1D
330
1B
100
AcDbEntity
  8
0
100
AcDbBlockEnd
  0
ENDSEC
  0
SECTION
  2
ENTITIES
  0
LWPOLYLINE
  5
30
330
17
100
AcDbEntity
  8
CUT
100
AcDbPolyline
 90
253
 70
1
 10
4.6908
 20
3.2623
 10
4.6909
 20
3.2623
 10
4.7087
 20
3.2785
 10
4.7088
 20
3.2785
 10
4.7088
 20
3.2786
 10
4.7089
 20
3.2787
 10
4.7089
 20
3.2789
 10
4.709
 20
3.279
 10
4.709
 20
3.2793
 10
4.7089
 20
3.2794
 10
4.7089
 20
3.2796
 10
4.7086
 20
3.2799
 10
4.6776
 20
3.3019
 10
4.6776
 20
3.302
 10
4.6446
 20
3.3226
 10
4.6445
 20
3.3226
 10
4.6105
 20
3.3413
 10
4.5757
 20
3.3583
 10
4.5756
 20
3.3583
 42
0.03867971844403421
 10
4.3551
 20
3.4339
 10
4.28
 20
3.4537
 10
4.2799
 20
3.4537
 42
0.11719658399025727
 10
3.3938
 20
3.473
 42
0.0884938493786244
 10
3.0358
 20
3.3261
 10
3.0357
 20
3.3261
 10
3.0036
 20
3.3043
 10
3.0035
 20
3.3043
 10
2.9723
 20
3.2812
 10
2.9723
 20
3.2811
 10
2.9419
 20
3.2567
 10
2.9127
 20
3.2312
 10
2.9127
 20
3.2311
 10
2.8845
 20
3.2044
 42
0.08329317420200952
 10
2.6816
 20
2.9209
 10
2.6649
 20
2.8859
 10
2.6492
 20
2.8503
 10
2.6492
 20
2.8502
 42
0.023408754272037605
 10
2.6089
 20
2.7408
 10
2.5975
 20
2.7037
 10
2.5975
 20
2.7036
 10
2.5872
 20
2.6662
 10
2.5872
 20
2.6661
 42
0.05718408651464417
 10
2.5287
 20
2.2043
 42
0.006967725940691129
 10
2.5252
 20
1.8157
 42
-0.06379607777490498
 10
2.4746
 20
1.1971
 10
2.4652
 20
1.1594
 10
2.4547
 20
1.1219
 10
2.4546
 20
1.1219
 42
-0.13972490499619683
 10
2.2147
 20
0.7282
 10
2.1851
 20
0.703
 10
2.1851
 20
0.7029
 10
2.1544
 20
0.6792
 10
2.1543
 20
0.6792
 42
-0.055762144496364595
 10
1.8827
 20
0.5299
 10
1.8826
 20
0.5298
 10
1.8825
 20
0.5298
 10
1.8825
 20
0.5297
 10
1.8824
 20
0.5296
 10
1.8823
 20
0.5296
 10
1.8823
 20
0.5295
 10
1.8822
 20
0.5294
 10
1.8822
 20
0.5293
 10
1.8821
 20
0.5292
 10
1.8821
 20
0.3808
 10
1.2839
 20
0.0
 10
-0.0001
 20
0.063
 10
0.1399
 20
12.849
 10
0.7648
 20
12.676
 10
0.7649
 20
12.676
 10
1.8821
 20
12.0895
 10
1.8821
 20
12.0072
 10
1.8822
 20
12.0071
 10
1.8822
 20
12.007
 10
1.8823
 20
12.007
 10
1.8823
 20
12.0069
 10
1.8825
 20
12.0067
 10
1.8826
 20
12.0067
 10
1.8826
 20
12.0066
 10
1.8828
 20
12.0066
 10
1.8829
 20
12.0065
 10
2.0418
 20
11.995
 10
2.0419
 20
11.9951
 10
2.0421
 20
11.9951
 10
2.0422
 20
11.9952
 10
2.0423
 20
11.9952
 10
2.5601
 20
12.531
 10
2.585
 20
12.5396
 10
2.5851
 20
12.5397
 10
2.5852
 20
12.5397
 10
2.5853
 20
12.5398
 10
2.5854
 20
12.5398
 10
2.682
 20
12.6264
 10
2.682
 20
12.6265
 10
2.6821
 20
12.6265
 10
2.6821
 20
12.6266
 10
2.6822
 20
12.6267
 10
2.6822
 20
12.627
 10
2.6851
 20
12.665
 10
2.7518
 20
12.7266
 10
2.7698
 20
12.7063
 10
2.7699
 20
12.7063
 10
2.77
 20
12.7062
 10
2.7701
 20
12.7062
 10
2.7701
 20
12.7061
 10
2.7702
 20
12.7061
 10
2.7703
 20
12.706
 10
2.7708
 20
12.706
 10
2.7709
 20
12.7061
 10
2.771
 20
12.7061
 10
2.7711
 20
12.7062
 10
2.7712
 20
12.7062
 10
2.7712
 20
12.7063
 10
4.0168
 20
13.8215
 10
4.0746
 20
13.8507
 10
4.1392
 20
13.8471
 10
4.1933
 20
13.8117
 10
5.0271
 20
12.8804
 10
5.0563
 20
12.8227
 10
5.0528
 20
12.7581
 10
5.0174
 20
12.7039
 10
3.771
 20
11.5881
 10
3.75
 20
11.57
 10
3.7499
 20
11.57
 10
3.7283
 20
11.5527
 10
3.706
 20
11.5363
 42
-0.035660537389484
 10
3.5386
 20
11.4363
 10
3.3891
 20
11.359
 10
3.389
 20
11.3589
 10
3.3402
 20
11.332
 10
3.3401
 20
11.332
 10
3.2925
 20
11.3035
 10
3.2925
 20
11.3034
 10
3.2465
 20
11.2728
 10
3.2464
 20
11.2728
 10
3.2242
 20
11.2565
 10
3.2242
 20
11.2564
 42
0.09063614565542459
 10
2.9506
 20
10.9419
 10
2.9212
 20
10.8937
 10
2.893
 20
10.8448
 10
2.8929
 20
10.8448
 10
2.8659
 20
10.7955
 10
2.8659
 20
10.7954
 42
0.19727071410694053
 10
2.6903
 20
9.2299
 10
2.6903
 20
9.2298
 10
2.7078
 20
9.1768
 10
2.7079
 20
9.1768
 10
2.7273
 20
9.1244
 10
2.7486
 20
9.0729
 10
2.7486
 20
9.0728
 10
2.772
 20
9.0222
 10
2.772
 20
9.0221
 10
2.7974
 20
8.9725
 10
2.7974
 20
8.9724
 10
2.8249
 20
8.9239
 42
0.05559931292254109
 10
2.9934
 20
8.7012
 10
2.9934
 20
8.7011
 10
3.0328
 20
8.6615
 10
3.0328
 20
8.6614
 10
3.0739
 20
8.6237
 42
0.0244983064168853
 10
3.1612
 20
8.5542
 10
3.1612
 20
8.5541
 10
3.2071
 20
8.5225
 10
3.2072
 20
8.5225
 10
3.2544
 20
8.493
 42
0.10399322245955941
 10
3.9403
 20
8.2716
 42
0.10976070946518361
 10
5.0394
 20
8.3907
 10
5.0913
 20
8.41
 10
5.0914
 20
8.41
 10
5.1427
 20
8.4306
 10
5.1427
 20
8.4307
 10
5.1935
 20
8.4527
 10
5.2437
 20
8.476
 10
5.2437
 20
8.4761
 10
5.2933
 20
8.5007
 42
0.06192313956770744
 10
6.0247
 20
9.0162
 10
6.0248
 20
9.0162
 10
6.1098
 20
9.09
 10
6.1098
 20
9.0901
 10
6.2771
 20
9.2387
 10
7.3867
 20
10.2321
 10
7.4444
 20
10.2613
 10
7.4769
 20
10.2637
 10
7.5384
 20
10.2436
 10
7.5632
 20
10.2223
 10
8.4803
 20
9.1979
 10
8.4987
 20
9.1709
 10
8.512
 20
9.1076
 10
8.4919
 20
9.0461
 10
8.4706
 20
9.0214
 10
7.1385
 20
7.8287
 10
7.1384
 20
7.8287
 10
7.1384
 20
7.8286
 10
7.1383
 20
7.8285
 10
7.1383
 20
7.8284
 10
7.1382
 20
7.8283
 10
7.1382
 20
7.8276
 10
7.1384
 20
7.8274
 10
7.1384
 20
7.8273
 10
7.1385
 20
7.8272
 10
7.1386
 20
7.8272
 10
7.1462
 20
7.8216
 42
-0.08509865883155793
 10
7.1582
 20
7.8077
 10
7.1619
 20
7.8004
 10
7.1619
 20
7.8003
 42
-0.1343331991257222
 10
7.1636
 20
7.7684
 10
7.159
 20
7.752
 42
-0.07994420994296546
 10
7.1184
 20
7.6779
 10
7.1184
 20
7.6778
 10
7.0963
 20
7.6522
 10
7.0963
 20
7.6521
 10
7.0725
 20
7.6283
 10
7.0724
 20
7.6283
 10
7.0472
 20
7.6058
 10
7.021
 20
7.5846
 42
-0.02384601723461667
 10
6.8267
 20
7.4499
 42
0.11299221028899216
 10
6.5806
 20
7.2223
 10
6.5724
 20
7.2076
 10
6.5724
 20
7.2075
 42
0.05958728976609258
 10
6.5481
 20
7.1445
 10
6.5446
 20
7.1281
 42
0.08008676679702835
 10
6.5431
 20
7.027
 10
7.5885
 20
5.8823
 10
7.5886
 20
5.8823
 10
7.5887
 20
5.8822
 10
7.5888
 20
5.8822
 10
7.5888
 20
5.8821
 10
7.5895
 20
5.8821
 10
7.5896
 20
5.8822
 10
7.5897
 20
5.8822
 10
7.5898
 20
5.8823
 10
7.5899
 20
5.8823
 10
7.6013
 20
5.8927
 10
7.993
 20
5.5161
 10
7.9931
 20
5.5161
 10
8.1122
 20
5.3217
 10
7.9397
 20
5.2751
 10
7.9396
 20
5.275
 10
7.9394
 20
5.275
 10
7.9394
 20
5.2749
 10
7.9393
 20
5.2748
 10
7.9392
 20
5.2748
 10
7.9392
 20
5.2747
 10
7.9391
 20
5.2746
 10
7.9391
 20
5.2745
 10
7.939
 20
5.2744
 10
7.939
 20
5.2743
 10
7.9144
 20
5.1744
 10
7.9143
 20
5.1744
 10
5.6293
 20
3.1337
 10
5.6292
 20
3.1337
 10
5.1433
 20
2.6383
 10
5.1432
 20
2.6383
 10
4.6909
 20
3.2623
  0
CIRCLE
  5
31
330
17
100
AcDbEntity
  8
CUT
100
AcDbCircle
 10
3.6320914749067437
 20
5.841602031346754
 30
0.0
 40
0.5117914167367352
  0
CIRCLE
  5
32
330
17
100
AcDbEntity
  8
CUT
100
AcDbCircle
 10
4.050717250096989
 20
12.845137400097972
 30
0.0
 40
0.35435094750372104
  0
CIRCLE
  5
33
330
17
100
AcDbEntity
  8
CUT
100
AcDbCircle
 10
7.481620501094456
 20
9.226495037547545
 30
0.0
 40
0.3543510266591845
  0
ENDSEC
  0
SECTION
  2
OBJECTS
  0
DICTIONARY
  5
A
330
0
100
AcDbDictionary
281
1
  3
ACAD_COLOR
350
B
  3
ACAD_GROUP
350
C
  3
ACAD_LAYOUT
350
D
  3
ACAD_MATERIAL
350
E
  3
ACAD_MLEADERSTYLE
350
F
  3
ACAD_MLINESTYLE
350
10
  3
ACAD_PLOTSETTINGS
350
11
  3
ACAD_PLOTSTYLENAME
350
12
  3
ACAD_SCALELIST
350
14
  3
ACAD_TABLESTYLE
350
15
  3
ACAD_VISUALSTYLE
350
16
  3
EZDXF_META
350
2D
  0
DICTIONARY
  5
B
330
A
100
AcDbDictionary
281
1
  0
DICTIONARY
  5
C
330
A
100
AcDbDictionary
281
1
  0
DICTIONARY
  5
D
330
A
100
AcDbDictionary
281
1
  3
Model
350
1A
  3
Layout1
350
1E
  0
DICTIONARY
  5
E
330
A
100
AcDbDictionary
281
1
  3
ByBlock
350
1F
  3
ByLayer
350
20
  3
Global
350
21
  0
DICTIONARY
  5
F
330
A
100
AcDbDictionary
281
1
  3
Standard
350
2C
  0
DICTIONARY
  5
10
330
A
100
AcDbDictionary
281
1
  3
Standard
350
22
  0
DICTIONARY
  5
11
330
A
100
AcDbDictionary
281
1
  0
ACDBDICTIONARYWDFLT
  5
12
330
A
100
AcDbDictionary
281
1
  3
Normal
350
13
100
AcDbDictionaryWithDefault
340
13
  0
ACDBPLACEHOLDER
  5
13
330
12
  0
DICTIONARY
  5
14
330
A
100
AcDbDictionary
281
1
  0
DICTIONARY
  5
15
330
A
100
AcDbDictionary
281
1
  0
DICTIONARY
  5
16
330
A
100
AcDbDictionary
281
1
  0
LAYOUT
  5
1A
330
D
100
AcDbPlotSettings
  1

  4
A3
  6

 40
7.5
 41
20.0
 42
7.5
 43
20.0
 44
420.0
 45
297.0
 46
0.0
 47
0.0
 48
0.0
 49
0.0
140
0.0
141
0.0
142
1.0
143
1.0
 70
1024
 72
1
 73
0
 74
5
  7

 75
16
 76
0
 77
2
 78
300
147
1.0
148
0.0
149
0.0
100
AcDbLayout
  1
Model
 70
1
 71
0
 10
0.0
 20
0.0
 11
420.0
 21
297.0
 12
0.0
 22
0.0
 32
0.0
 14
1e+20
 24
1e+20
 34
1e+20
 15
-1e+20
 25
-1e+20
 35
-1e+20
146
0.0
 13
0.0
 23
0.0
 33
0.0
 16
1.0
 26
0.0
 36
0.0
 17
0.0
 27
1.0
 37
0.0
 76
1
330
17
  0
LAYOUT
  5
1E
330
D
100
AcDbPlotSettings
  1

  4
A3
  6

 40
7.5
 41
20.0
 42
7.5
 43
20.0
 44
420.0
 45
297.0
 46
0.0
 47
0.0
 48
0.0
 49
0.0
140
0.0
141
0.0
142
1.0
143
1.0
 70
0
 72
1
 73
0
 74
5
  7

 75
16
 76
0
 77
2
 78
300
147
1.0
148
0.0
149
0.0
100
AcDbLayout
  1
Layout1
 70
1
 71
1
 10
0.0
 20
0.0
 11
420.0
 21
297.0
 12
0.0
 22
0.0
 32
0.0
 14
1e+20
 24
1e+20
 34
1e+20
 15
-1e+20
 25
-1e+20
 35
-1e+20
146
0.0
 13
0.0
 23
0.0
 33
0.0
 16
1.0
 26
0.0
 36
0.0
 17
0.0
 27
1.0
 37
0.0
 76
1
330
1B
  0
MATERIAL
  5
1F
102
{ACAD_REACTORS
330
E
102
}
330
E
100
AcDbMaterial
  1
ByBlock
  2

 70
0
 40
1.0
 71
1
 41
1.0
 91
-1023410177
 42
1.0
 72
1
  3

 73
1
 74
1
 75
1
 44
0.5
 73
0
 45
1.0
 46
1.0
 77
1
  4

 78
1
 79
1
170
1
 48
1.0
171
1
  6

172
1
173
1
174
1
140
1.0
141
1.0
175
1
  7

176
1
177
1
178
1
143
1.0
179
1
  8

270
1
271
1
272
1
145
1.0
146
1.0
273
1
  9

274
1
275
1
276
1
 42
1.0
 72
1
  3

 73
1
 74
1
 75
1
 94
63
  0
MATERIAL
  5
20
102
{ACAD_REACTORS
330
E
102
}
330
E
100
AcDbMaterial
  1
ByLayer
  2

 70
0
 40
1.0
 71
1
 41
1.0
 91
-1023410177
 42
1.0
 72
1
  3

 73
1
 74
1
 75
1
 44
0.5
 73
0
 45
1.0
 46
1.0
 77
1
  4

 78
1
 79
1
170
1
 48
1.0
171
1
  6

172
1
173
1
174
1
140
1.0
141
1.0
175
1
  7

176
1
177
1
178
1
143
1.0
179
1
  8

270
1
271
1
272
1
145
1.0
146
1.0
273
1
  9

274
1
275
1
276
1
 42
1.0
 72
1
  3

 73
1
 74
1
 75
1
 94
63
  0
MATERIAL
  5
21
102
{ACAD_REACTORS
330
E
102
}
330
E
100
AcDbMaterial
  1
Global
  2

 70
0
 40
1.0
 71
1
 41
1.0
 91
-1023410177
 42
1.0
 72
1
  3

 73
1
 74
1
 75
1
 44
0.5
 73
0
 45
1.0
 46
1.0
 77
1
  4

 78
1
 79
1
170
1
 48
1.0
171
1
  6

172
1
173
1
174
1
140
1.0
141
1.0
175
1
  7

176
1
177
1
178
1
143
1.0
179
1
  8

270
1
271
1
272
1
145
1.0
146
1.0
273
1
  9

274
1
275
1
276
1
 42
1.0
 72
1
  3

 73
1
 74
1
 75
1
 94
63
  0
MLINESTYLE
  5
22
102
{ACAD_REACTORS
330
10
102
}
330
10
100
AcDbMlineStyle
  2
Standard
 70
0
  3

 62
256
 51
90.0
 52
90.0
 71
2
 49
0.5
 62
256
  6
BYLAYER
 49
-0.5
 62
256
  6
BYLAYER
  0
MLEADERSTYLE
  5
2C
102
{ACAD_REACTORS
330
F
102
}
330
F
100
AcDbMLeaderStyle
179
2
170
2
171
1
172
0
 90
2
 40
0.0
 41
0.0
173
1
 91
-1056964608
 92
-2
290
1
 42
2.0
291
1
 43
8.0
  3
Standard
 44
4.0
300

342
29
174
1
175
1
176
0
178
1
 93
-1056964608
 45
4.0
292
0
297
0
 46
4.0
 94
-1056964608
 47
1.0
 49
1.0
140
1.0
294
1
141
0.0
177
0
142
1.0
295
0
296
0
143
3.75
271
0
272
9
273
9
  0
DICTIONARY
  5
2D
330
A
100
AcDbDictionary
280
1
281
1
  3
CREATED_BY_EZDXF
350
2E
  3
WRITTEN_BY_EZDXF
350
36
  0
DICTIONARYVAR
  5
2E
330
2D
100
DictionaryVariables
280
0
  1
1.4.4 @ 2026-10-04T19:16:17.599868+00:00
  0
DICTIONARYVAR
  5
36
330
2D
100
DictionaryVariables
280
0
  1
1.4.4 @ 2026-10-04T19:16:17.611350+00:00
  0
ENDSEC
  0
EOF
