  0
SECTION
  2
HEADER
  9
$ACADVER
  1
AC1024
  9
$ACADMAINTVER
 70
6
  9
$DWGCODEPAGE
  3
ANSI_1252
  9
$LASTSAVEDBY
  1
ezdxf
  9
$INSBASE
 10
0.0
 20
0.0
 30
0.0
  9
$EXTMIN
 10
1e+20
 20
1e+20
 30
1e+20
  9
$EXTMAX
 10
-1e+20
 20
-1e+20
 30
-1e+20
  9
$LIMMIN
 10
0.0
 20
0.0
  9
$LIMMAX
 10
420.0
 20
297.0
  9
$ORTHOMODE
 70
0
  9
$REGENMODE
 70
1
  9
$FILLMODE
 70
1
  9
$QTEXTMODE
 70
0
  9
$MIRRTEXT
 70
1
  9
$LTSCALE
 40
1.0
  9
$ATTMODE
 70
1
  9
$TEXTSIZE
 40
2.5
  9
$TRACEWID
 40
1.0
  9
$TEXTSTYLE
  7
Standard
  9
$CLAYER
  8
0
  9
$CELTYPE
  6
ByLayer
  9
$CECOLOR
 62
256
  9
$CELTSCALE
 40
1.0
  9
$DISPSILH
 70
0
  9
$DIMSCALE
 40
1.0
  9
$DIMASZ
 40
2.5
  9
$DIMEXO
 40
0.625
  9
$DIMDLI
 40
3.75
  9
$DIMRND
 40
0.0
  9
$DIMDLE
 40
0.0
  9
$DIMEXE
 40
1.25
  9
$DIMTP
 40
0.0
  9
$DIMTM
 40
0.0
  9
$DIMTXT
 40
2.5
  9
$DIMCEN
 40
2.5
  9
$DIMTSZ
 40
0.0
  9
$DIMTOL
 70
0
  9
$DIMLIM
 70
0
  9
$DIMTIH
 70
0
  9
$DIMTOH
 70
0
  9
$DIMSE1
 70
0
  9
$DIMSE2
 70
0
  9
$DIMTAD
 70
1
  9
$DIMZIN
 70
8
  9
$DIMBLK
  1

  9
$DIMASO
 70
1
  9
$DIMSHO
 70
1
  9
$DIMPOST
  1

  9
$DIMAPOST
  1

  9
$DIMALT
 70
0
  9
$DIMALTD
 70
3
  9
$DIMALTF
 40
0.03937007874
  9
$DIMLFAC
 40
1.0
  9
$DIMTOFL
 70
1
  9
$DIMTVP
 40
0.0
  9
$DIMTIX
 70
0
  9
$DIMSOXD
 70
0
  9
$DIMSAH
 70
0
  9
$DIMBLK1
  1

  9
$DIMBLK2
  1

  9
$DIMSTYLE
  2
ISO-25
  9
$DIMCLRD
 70
0
  9
$DIMCLRE
 70
0
  9
$DIMCLRT
 70
0
  9
$DIMTFAC
 40
1.0
  9
$DIMGAP
 40
0.625
  9
$DIMJUST
 70
0
  9
$DIMSD1
 70
0
  9
$DIMSD2
 70
0
  9
$DIMTOLJ
 70
0
  9
$DIMTZIN
 70
8
  9
$DIMALTZ
 70
0
  9
$DIMALTTZ
 70
0
  9
$DIMUPT
 70
0
  9
$DIMDEC
 70
2
  9
$DIMTDEC
 70
2
  9
$DIMALTU
 70
2
  9
$DIMALTTD
 70
3
  9
$DIMTXSTY
  7
Standard
  9
$DIMAUNIT
 70
0
  9
$DIMADEC
 70
0
  9
$DIMALTRND
 40
0.0
  9
$DIMAZIN
 70
0
  9
$DIMDSEP
 70
44
  9
$DIMATFIT
 70
3
  9
$DIMFRAC
 70
0
  9
$DIMLDRBLK
  1

  9
$DIMLUNIT
 70
2
  9
$DIMLWD
 70
-2
  9
$DIMLWE
 70
-2
  9
$DIMTMOVE
 70
0
  9
$DIMFXL
 40
1.0
  9
$DIMFXLON
 70
0
  9
$DIMJOGANG
 40
0.785398163397
  9
$DIMTFILL
 70
0
  9
$DIMTFILLCLR
 70
0
  9
$DIMARCSYM
 70
0
  9
$DIMLTYPE
  6

  9
$DIMLTEX1
  6

  9
$DIMLTEX2
  6

  9
$DIMTXTDIRECTION
 70
0
  9
$LUNITS
 70
2
  9
$LUPREC
 70
4
  9
$SKETCHINC
 40
1.0
  9
$FILLETRAD
 40
10.0
  9
$AUNITS
 70
0
  9
$AUPREC
 70
2
  9
$MENU
  1
.
  9
$ELEVATION
 40
0.0
  9
$PELEVATION
 40
0.0
  9
$THICKNESS
 40
0.0
  9
$LIMCHECK
 70
0
  9
$CHAMFERA
 40
0.0
  9
$CHAMFERB
 40
0.0
  9
$CHAMFERC
 40
0.0
  9
$CHAMFERD
 40
0.0
  9
$SKPOLY
 70
0
  9
$TDCREATE
 40
2461317.446828704
  9
$TDUCREATE
 40
2458532.153996898
  9
$TDUPDATE
 40
2461317.446828704
  9
$TDUUPDATE
 40
2458532.1544311
  9
$TDINDWG
 40
0.0
  9
$TDUSRTIMER
 40
0.0
  9
$USRTIMER
 70
1
  9
$ANGBASE
 50
0.0
  9
$ANGDIR
 70
0
  9
$PDMODE
 70
0
  9
$PDSIZE
 40
0.0
  9
$PLINEWID
 40
0.0
  9
$SPLFRAME
 70
0
  9
$SPLINETYPE
 70
6
  9
$SPLINESEGS
 70
8
  9
$HANDSEED
  5
4C
  9
$SURFTAB1
 70
6
  9
$SURFTAB2
 70
6
  9
$SURFTYPE
 70
6
  9
$SURFU
 70
6
  9
$SURFV
 70
6
  9
$UCSBASE
  2

  9
$UCSNAME
  2

  9
$UCSORG
 10
0.0
 20
0.0
 30
0.0
  9
$UCSXDIR
 10
1.0
 20
0.0
 30
0.0
  9
$UCSYDIR
 10
0.0
 20
1.0
 30
0.0
  9
$UCSORTHOREF
  2

  9
$UCSORTHOVIEW
 70
0
  9
$UCSORGTOP
 10
0.0
 20
0.0
 30
0.0
  9
$UCSORGBOTTOM
 10
0.0
 20
0.0
 30
0.0
  9
$UCSORGLEFT
 10
0.0
 20
0.0
 30
0.0
  9
$UCSORGRIGHT
 10
0.0
 20
0.0
 30
0.0
  9
$UCSORGFRONT
 10
0.0
 20
0.0
 30
0.0
  9
$UCSORGBACK
 10
0.0
 20
0.0
 30
0.0
  9
$PUCSBASE
  2

  9
$PUCSNAME
  2

  9
$PUCSORG
 10
0.0
 20
0.0
 30
0.0
  9
$PUCSXDIR
 10
1.0
 20
0.0
 30
0.0
  9
$PUCSYDIR
 10
0.0
 20
1.0
 30
0.0
  9
$PUCSORTHOREF
  2

  9
$PUCSORTHOVIEW
 70
0
  9
$PUCSORGTOP
 10
0.0
 20
0.0
 30
0.0
  9
$PUCSORGBOTTOM
 10
0.0
 20
0.0
 30
0.0
  9
$PUCSORGLEFT
 10
0.0
 20
0.0
 30
0.0
  9
$PUCSORGRIGHT
 10
0.0
 20
0.0
 30
0.0
  9
$PUCSORGFRONT
 10
0.0
 20
0.0
 30
0.0
  9
$PUCSORGBACK
 10
0.0
 20
0.0
 30
0.0
  9
$USERI1
 70
0
  9
$USERI2
 70
0
  9
$USERI3
 70
0
  9
$USERI4
 70
0
  9
$USERI5
 70
0
  9
$USERR1
 40
0.0
  9
$USERR2
 40
0.0
  9
$USERR3
 40
0.0
  9
$USERR4
 40
0.0
  9
$USERR5
 40
0.0
  9
$WORLDVIEW
 70
1
  9
$SHADEDGE
 70
3
  9
$SHADEDIF
 70
70
  9
$TILEMODE
 70
1
  9
$MAXACTVP
 70
64
  9
$PINSBASE
 10
0.0
 20
0.0
 30
0.0
  9
$PLIMCHECK
 70
0
  9
$PEXTMIN
 10
1e+20
 20
1e+20
 30
1e+20
  9
$PEXTMAX
 10
-1e+20
 20
-1e+20
 30
-1e+20
  9
$PLIMMIN
 10
0.0
 20
0.0
  9
$PLIMMAX
 10
420.0
 20
297.0
  9
$UNITMODE
 70
0
  9
$VISRETAIN
 70
1
  9
$PLINEGEN
 70
0
  9
$PSLTSCALE
 70
1
  9
$TREEDEPTH
 70
3020
  9
$CMLSTYLE
  2
Standard
  9
$CMLJUST
 70
0
  9
$CMLSCALE
 40
20.0
  9
$PROXYGRAPHICS
 70
1
  9
$MEASUREMENT
 70
0
  9
$CELWEIGHT
370
-1
  9
$ENDCAPS
280
0
  9
$JOINSTYLE
280
0
  9
$LWDISPLAY
290
0
  9
$INSUNITS
 70
1
  9
$HYPERLINKBASE
  1

  9
$STYLESHEET
  1

  9
$XEDIT
290
1
  9
$CEPSNTYPE
380
0
  9
$PSTYLEMODE
290
1
  9
$FINGERPRINTGUID
  2
{EBB00DFD-DC91-413F-8EF4-40123D695353}
  9
$VERSIONGUID
  2
{6D4052BA-A41A-4AAB-A725-A11C82846F30}
  9
$EXTNAMES
290
1
  9
$PSVPSCALE
 40
0.0
  9
$OLESTARTUP
290
0
  9
$SORTENTS
280
127
  9
$INDEXCTL
280
0
  9
$HIDETEXT
280
1
  9
$XCLIPFRAME
280
1
  9
$HALOGAP
280
0
  9
$OBSCOLOR
 70
257
  9
$OBSLTYPE
280
0
  9
$INTERSECTIONDISPLAY
280
0
  9
$INTERSECTIONCOLOR
 70
257
  9
$DIMASSOC
280
2
  9
$PROJECTNAME
  1

  9
$CAMERADISPLAY
290
0
  9
$LENSLENGTH
 40
50.0
  9
$CAMERAHEIGHT
 40
0.0
  9
$STEPSPERSEC
 40
24.0
  9
$STEPSIZE
 40
100.0
  9
$3DDWFPREC
 40
2.0
  9
$PSOLWIDTH
 40
0.005
  9
$PSOLHEIGHT
 40
0.08
  9
$LOFTANG1
 40
1.570796326795
  9
$LOFTANG2
 40
1.570796326795
  9
$LOFTMAG1
 40
0.0
  9
$LOFTMAG2
 40
0.0
  9
$LOFTPARAM
 70
7
  9
$LOFTNORMALS
280
1
  9
$LATITUDE
 40
37.795
  9
$LONGITUDE
 40
-122.394
  9
$NORTHDIRECTION
 40
0.0
  9
$TIMEZONE
 70
-8000
  9
$LIGHTGLYPHDISPLAY
280
1
  9
$TILEMODELIGHTSYNCH
280
1
  9
$CMATERIAL
347
20
  9
$SOLIDHIST
280
0
  9
$SHOWHIST
280
1
  9
$DWFFRAME
280
2
  9
$DGNFRAME
280
2
  9
$REALWORLDSCALE
290
1
  9
$INTERFERECOLOR
 62
256
  9
$CSHADOW
280
0
  9
$SHADOWPLANELOCATION
 40
0.0
  0
ENDSEC
  0
SECTION
  2
CLASSES
  0
CLASS
  1
ACDBDICTIONARYWDFLT
  2
AcDbDictionaryWithDefault
  3
ObjectDBX Classes
 90
0
 91
0
280
0
281
0
  0
CLASS
  1
SUN
  2
AcDbSun
  3
SCENEOE
 90
1153
 91
0
280
0
281
0
  0
CLASS
  1
VISUALSTYLE
  2
AcDbVisualStyle
  3
ObjectDBX Classes
 90
4095
 91
0
280
0
281
0
  0
CLASS
  1
MATERIAL
  2
AcDbMaterial
  3
ObjectDBX Classes
 90
1153
 91
0
280
0
281
0
  0
CLASS
  1
SCALE
  2
AcDbScale
  3
ObjectDBX Classes
 90
1153
 91
0
280
0
281
0
  0
CLASS
  1
TABLESTYLE
  2
AcDbTableStyle
  3
ObjectDBX Classes
 90
4095
 91
0
280
0
281
0
  0
CLASS
  1
MLEADERSTYLE
  2
AcDbMLeaderStyle
  3
ACDB_MLEADERSTYLE_CLASS
 90
4095
 91
0
280
0
281
0
  0
CLASS
  1
DICTIONARYVAR
  2
AcDbDictionaryVar
  3
ObjectDBX Classes
 90
0
 91
0
280
0
281
0
  0
CLASS
  1
CELLSTYLEMAP
  2
AcDbCellStyleMap
  3
ObjectDBX Classes
 90
1152
 91
0
280
0
281
0
  0
CLASS
  1
MENTALRAYRENDERSETTINGS
  2
AcDbMentalRayRenderSettings
  3
SCENEOE
 90
1024
 91
0
280
0
281
0
  0
CLASS
  1
ACDBDETAILVIEWSTYLE
  2
AcDbDetailViewStyle
  3
ObjectDBX Classes
 90
1025
 91
0
280
0
281
0
  0
CLASS
  1
ACDBSECTIONVIEWSTYLE
  2
AcDbSectionViewStyle
  3
ObjectDBX Classes
 90
1025
 91
0
280
0
281
0
  0
CLASS
  1
RASTERVARIABLES
  2
AcDbRasterVariables
  3
ISM
 90
0
 91
0
280
0
281
0
  0
CLASS
  1
ACDBPLACEHOLDER
  2
AcDbPlaceHolder
  3
ObjectDBX Classes
 90
0
 91
0
280
0
281
0
  0
CLASS
  1
LAYOUT
  2
AcDbLayout
  3
ObjectDBX Classes
 90
0
 91
0
280
0
281
0
  0
ENDSEC
  0
SECTION
  2
TABLES
  0
TABLE
  2
VPORT
  5
8
330
0
100
AcDbSymbolTable
 70
1
  0
VPORT
  5
23
330
8
100
AcDbSymbolTableRecord
100
AcDbViewportTableRecord
  2
*Active
 70
0
 10
0.0
 20
0.0
 11
1.0
 21
1.0
 12
0.0
 22
0.0
 13
0.0
 23
0.0
 14
0.5
 24
0.5
 15
0.5
 25
0.5
 16
0.0
 26
0.0
 36
1.0
 17
0.0
 27
0.0
 37
0.0
 40
1000.0
 41
1.34
 42
50.0
 43
0.0
 44
0.0
 50
0.0
 51
0.0
 71
0
 72
1000
 73
1
 74
3
 75
0
 76
0
 77
0
 78
0
281
0
 65
0
146
0.0
  0
ENDTAB
  0
TABLE
  2
LTYPE
  5
2
330
0
100
AcDbSymbolTable
 70
3
  0
LTYPE
  5
24
330
2
100
AcDbSymbolTableRecord
100
AcDbLinetypeTableRecord
  2
ByBlock
 70
0
  3

 72
65
 73
0
 40
0.0
  0
LTYPE
  5
25
330
2
100
AcDbSymbolTableRecord
100
AcDbLinetypeTableRecord
  2
ByLayer
 70
0
  3

 72
65
 73
0
 40
0.0
  0
LTYPE
  5
26
330
2
100
AcDbSymbolTableRecord
100
AcDbLinetypeTableRecord
  2
Continuous
 70
0
  3

 72
65
 73
0
 40
0.0
  0
ENDTAB
  0
TABLE
  2
LAYER
  5
1
330
0
100
AcDbSymbolTable
 70
6
  0
LAYER
  5
27
330
1
100
AcDbSymbolTableRecord
100
AcDbLayerTableRecord
  2
0
 70
0
 62
7
  6
Continuous
370
-3
390
13
347
21
  0
LAYER
  5
28
330
1
100
AcDbSymbolTableRecord
100
AcDbLayerTableRecord
  2
Defpoints
 70
0
 62
7
  6
Continuous
290
0
370
-3
390
13
347
21
  0
LAYER
  5
2F
330
1
100
AcDbSymbolTableRecord
100
AcDbLayerTableRecord
  2
CUT
 70
0
 62
7
  6
Continuous
370
-3
390
13
347
21
  0
LAYER
  5
30
330
1
100
AcDbSymbolTableRecord
100
AcDbLayerTableRecord
  2
BEND
 70
0
 62
5
  6
Continuous
370
-3
390
13
347
21
  0
LAYER
  5
31
330
1
100
AcDbSymbolTableRecord
100
AcDbLayerTableRecord
  2
DRILL_LATER
 70
0
 62
1
  6
Continuous
370
-3
390
13
347
21
  0
LAYER
  5
32
330
1
100
AcDbSymbolTableRecord
100
AcDbLayerTableRecord
  2
TEXT
 70
0
 62
3
  6
Continuous
370
-3
390
13
347
21
  0
ENDTAB
  0
TABLE
  2
STYLE
  5
5
330
0
100
AcDbSymbolTable
 70
1
  0
STYLE
  5
29
330
5
100
AcDbSymbolTableRecord
100
AcDbTextStyleTableRecord
  2
Standard
 70
0
 40
0.0
 41
1.0
 50
0.0
 71
0
 42
2.5
  3
txt
  4

  0
ENDTAB
  0
TABLE
  2
VIEW
  5
7
330
0
100
AcDbSymbolTable
 70
0
  0
ENDTAB
  0
TABLE
  2
UCS
  5
6
330
0
100
AcDbSymbolTable
 70
0
  0
ENDTAB
  0
TABLE
  2
APPID
  5
3
330
0
100
AcDbSymbolTable
 70
3
  0
APPID
  5
2A
330
3
100
AcDbSymbolTableRecord
100
AcDbRegAppTableRecord
  2
ACAD
 70
0
  0
APPID
  5
49
330
3
100
AcDbSymbolTableRecord
100
AcDbRegAppTableRecord
  2
HATCHBACKGROUNDCOLOR
 70
0
  0
APPID
  5
4A
330
3
100
AcDbSymbolTableRecord
100
AcDbRegAppTableRecord
  2
EZDXF
 70
0
  0
ENDTAB
  0
TABLE
  2
DIMSTYLE
  5
4
330
0
100
AcDbSymbolTable
 70
1
100
AcDbDimStyleTable
  0
DIMSTYLE
105
2B
330
4
100
AcDbSymbolTableRecord
100
AcDbDimStyleTableRecord
  2
Standard
 70
0
 40
1.0
 41
2.5
 42
0.625
 43
3.75
 44
1.25
 45
0.0
 46
0.0
 47
0.0
 48
0.0
 49
2.5
140
2.5
141
2.5
142
0.0
143
0.03937007874
144
1.0
145
0.0
146
1.0
147
0.625
148
0.0
 69
0
 70
0
 71
0
 72
0
 73
0
 74
0
 75
0
 76
0
 77
1
 78
8
 79
3
170
0
171
3
172
1
173
0
174
0
175
0
176
0
177
0
178
0
179
2
271
2
272
2
273
2
274
3
275
0
276
0
277
2
278
44
279
0
280
0
281
0
282
0
283
0
284
8
285
0
286
0
288
0
289
3
290
0
371
-2
372
-2
  0
ENDTAB
  0
TABLE
  2
BLOCK_RECORD
  5
9
330
0
100
AcDbSymbolTable
 70
2
  0
BLOCK_RECORD
  5
17
330
9
100
AcDbSymbolTableRecord
100
AcDbBlockTableRecord
  2
*Model_Space
340
1A
 70
0
280
1
281
0
  0
BLOCK_RECORD
  5
1B
330
9
100
AcDbSymbolTableRecord
100
AcDbBlockTableRecord
  2
*Paper_Space
340
1E
 70
0
280
1
281
0
  0
ENDTAB
  0
ENDSEC
  0
SECTION
  2
BLOCKS
  0
BLOCK
  5
18
330
17
100
AcDbEntity
  8
0
100
AcDbBlockBegin
  2
*Model_Space
 70
0
 10
0.0
 20
0.0
 30
0.0
  3
*Model_Space
  1

  0
ENDBLK
  5
19
330
17
100
AcDbEntity
  8
0
100
AcDbBlockEnd
  0
BLOCK
  5
1C
330
1B
100
AcDbEntity
  8
0
100
AcDbBlockBegin
  2
*Paper_Space
 70
0
 10
0.0
 20
0.0
 30
0.0
  3
*Paper_Space
  1

  0
ENDBLK
  5
1D
330
1B
100
AcDbEntity
  8
0
100
AcDbBlockEnd
  0
ENDSEC
  0
SECTION
  2
ENTITIES
  0
LWPOLYLINE
  5
33
330
17
100
AcDbEntity
  8
CUT
100
AcDbPolyline
 90
309
 70
1
 10
0.0
 20
0.4163
 10
0.1093
 20
3.039
 10
0.1093
 20
3.039
 10
0.1093
 20
3.039
 10
3.1067
 20
2.9141
 10
3.1067
 20
2.9141
 10
3.1067
 20
2.9141
 10
4.0788
 20
2.2487
 10
4.0788
 20
2.2487
 10
4.0788
 20
2.2487
 10
4.0673
 20
1.9719
 10
4.0673
 20
1.9719
 10
4.0673
 20
1.9718
 10
4.0673
 20
1.9718
 10
4.0673
 20
1.9718
 10
4.0673
 20
1.9717
 10
4.0674
 20
1.9717
 10
4.0674
 20
1.9716
 10
4.0674
 20
1.9716
 10
4.0675
 20
1.9716
 10
4.0675
 20
1.9715
 10
4.0675
 20
1.9715
 10
4.0676
 20
1.9715
 10
4.0676
 20
1.9715
 10
4.0677
 20
1.9714
 10
4.0677
 20
1.9714
 10
4.0678
 20
1.9714
 10
4.1302
 20
1.9688
 10
4.1303
 20
1.9688
 10
4.1303
 20
1.9688
 10
4.1304
 20
1.9688
 10
4.1304
 20
1.9689
 10
4.1305
 20
1.9689
 10
4.1305
 20
1.9689
 10
4.1305
 20
1.9689
 10
4.1306
 20
1.969
 10
4.1306
 20
1.969
 10
4.1306
 20
1.969
 10
4.1307
 20
1.9691
 10
4.1307
 20
1.9691
 10
4.1307
 20
1.9692
 10
4.1307
 20
1.9692
 10
4.1307
 20
1.9693
 10
4.1307
 20
1.9693
 10
4.144
 20
2.288
 10
4.144
 20
2.2881
 10
4.144
 20
2.2881
 10
4.144
 20
2.2882
 10
4.144
 20
2.2882
 10
4.144
 20
2.2883
 10
4.1439
 20
2.2883
 10
4.1439
 20
2.2883
 10
4.1439
 20
2.2884
 10
4.1438
 20
2.2884
 10
4.1438
 20
2.2885
 10
4.1438
 20
2.2885
 10
4.1437
 20
2.2885
 10
4.1437
 20
2.2885
 10
4.1436
 20
2.2885
 10
4.1436
 20
2.2885
 10
4.1435
 20
2.2885
 10
4.0816
 20
2.2911
 10
4.0816
 20
2.2911
 10
4.0816
 20
2.2911
 10
4.1782
 20
4.6103
 10
4.1782
 20
4.6103
 10
4.1782
 20
4.6103
 10
4.2402
 20
4.6078
 10
4.2402
 20
4.6078
 10
4.2403
 20
4.6078
 10
4.2403
 20
4.6078
 10
4.2404
 20
4.6078
 10
4.2404
 20
4.6078
 10
4.2404
 20
4.6078
 10
4.2405
 20
4.6079
 10
4.2405
 20
4.6079
 10
4.2406
 20
4.6079
 10
4.2406
 20
4.608
 10
4.2406
 20
4.608
 10
4.2406
 20
4.6081
 10
4.2407
 20
4.6081
 10
4.2407
 20
4.6081
 10
4.2407
 20
4.6082
 10
4.2407
 20
4.6082
 10
4.254
 20
4.927
 10
4.254
 20
4.927
 10
4.254
 20
4.9271
 10
4.254
 20
4.9271
 10
4.2539
 20
4.9272
 10
4.2539
 20
4.9272
 10
4.2539
 20
4.9272
 10
4.2539
 20
4.9273
 10
4.2538
 20
4.9273
 10
4.2538
 20
4.9274
 10
4.2538
 20
4.9274
 10
4.2537
 20
4.9274
 10
4.2537
 20
4.9274
 10
4.2536
 20
4.9275
 10
4.2536
 20
4.9275
 10
4.2535
 20
4.9275
 10
4.2535
 20
4.9275
 10
4.191
 20
4.9301
 10
4.191
 20
4.9301
 10
4.1909
 20
4.9301
 10
4.1909
 20
4.9301
 10
4.1909
 20
4.9301
 10
4.1908
 20
4.93
 10
4.1908
 20
4.93
 10
4.1907
 20
4.93
 10
4.1907
 20
4.93
 10
4.1907
 20
4.9299
 10
4.1906
 20
4.9299
 10
4.1906
 20
4.9298
 10
4.1906
 20
4.9298
 10
4.1906
 20
4.9298
 10
4.1905
 20
4.9297
 10
4.1905
 20
4.9297
 10
4.1905
 20
4.9296
 10
4.179
 20
4.6529
 10
4.179
 20
4.6528
 10
4.179
 20
4.6528
 10
3.1549
 20
4.0706
 10
3.1549
 20
4.0706
 10
3.1549
 20
4.0706
 10
0.1575
 20
4.1955
 10
0.1575
 20
4.1955
 10
0.1575
 20
4.1955
 10
0.2667
 20
6.8182
 10
0.2667
 20
6.8182
 10
0.2668
 20
6.8182
 10
10.0617
 20
6.4101
 10
10.0617
 20
4.525
 10
10.0777
 20
4.525
 10
10.0777
 20
6.4101
 10
19.8727
 20
6.8182
 10
19.8727
 20
6.8182
 10
19.8727
 20
6.8182
 10
19.982
 20
4.1955
 10
19.982
 20
4.1955
 10
19.982
 20
4.1955
 10
16.9846
 20
4.0706
 10
16.9846
 20
4.0706
 10
16.9846
 20
4.0706
 10
15.9605
 20
4.6528
 10
15.9605
 20
4.6528
 10
15.9605
 20
4.6529
 10
15.9489
 20
4.9296
 10
15.9489
 20
4.9297
 10
15.9489
 20
4.9297
 10
15.9489
 20
4.9298
 10
15.9489
 20
4.9298
 10
15.9489
 20
4.9298
 10
15.9488
 20
4.9299
 10
15.9488
 20
4.9299
 10
15.9488
 20
4.93
 10
15.9487
 20
4.93
 10
15.9487
 20
4.93
 10
15.9486
 20
4.93
 10
15.9486
 20
4.9301
 10
15.9486
 20
4.9301
 10
15.9485
 20
4.9301
 10
15.9485
 20
4.9301
 10
15.9484
 20
4.9301
 10
15.886
 20
4.9275
 10
15.8859
 20
4.9275
 10
15.8859
 20
4.9275
 10
15.8858
 20
4.9275
 10
15.8858
 20
4.9274
 10
15.8857
 20
4.9274
 10
15.8857
 20
4.9274
 10
15.8856
 20
4.9274
 10
15.8856
 20
4.9273
 10
15.8856
 20
4.9273
 10
15.8856
 20
4.9272
 10
15.8855
 20
4.9272
 10
15.8855
 20
4.9272
 10
15.8855
 20
4.9271
 10
15.8855
 20
4.9271
 10
15.8855
 20
4.927
 10
15.8855
 20
4.927
 10
15.8988
 20
4.6082
 10
15.8988
 20
4.6082
 10
15.8988
 20
4.6081
 10
15.8988
 20
4.6081
 10
15.8988
 20
4.6081
 10
15.8988
 20
4.608
 10
15.8989
 20
4.608
 10
15.8989
 20
4.6079
 10
15.8989
 20
4.6079
 10
15.899
 20
4.6079
 10
15.899
 20
4.6078
 10
15.899
 20
4.6078
 10
15.8991
 20
4.6078
 10
15.8991
 20
4.6078
 10
15.8992
 20
4.6078
 10
15.8992
 20
4.6078
 10
15.8993
 20
4.6078
 10
15.9612
 20
4.6103
 10
15.9612
 20
4.6103
 10
15.9612
 20
4.6103
 10
16.0579
 20
2.2911
 10
16.0579
 20
2.2911
 10
16.0579
 20
2.2911
 10
15.9959
 20
2.2885
 10
15.9959
 20
2.2885
 10
15.9958
 20
2.2885
 10
15.9958
 20
2.2885
 10
15.9957
 20
2.2885
 10
15.9957
 20
2.2885
 10
15.9956
 20
2.2885
 10
15.9956
 20
2.2884
 10
15.9956
 20
2.2884
 10
15.9955
 20
2.2883
 10
15.9955
 20
2.2883
 10
15.9955
 20
2.2883
 10
15.9955
 20
2.2882
 10
15.9955
 20
2.2882
 10
15.9954
 20
2.2881
 10
15.9954
 20
2.2881
 10
15.9954
 20
2.288
 10
16.0087
 20
1.9693
 10
16.0087
 20
1.9693
 10
16.0087
 20
1.9692
 10
16.0087
 20
1.9692
 10
16.0088
 20
1.9691
 10
16.0088
 20
1.9691
 10
16.0088
 20
1.969
 10
16.0088
 20
1.969
 10
16.0089
 20
1.969
 10
16.0089
 20
1.9689
 10
16.009
 20
1.9689
 10
16.009
 20
1.9689
 10
16.009
 20
1.9689
 10
16.0091
 20
1.9688
 10
16.0091
 20
1.9688
 10
16.0092
 20
1.9688
 10
16.0092
 20
1.9688
 10
16.0717
 20
1.9714
 10
16.0717
 20
1.9714
 10
16.0718
 20
1.9714
 10
16.0718
 20
1.9715
 10
16.0719
 20
1.9715
 10
16.0719
 20
1.9715
 10
16.072
 20
1.9715
 10
16.072
 20
1.9716
 10
16.072
 20
1.9716
 10
16.0721
 20
1.9716
 10
16.0721
 20
1.9717
 10
16.0721
 20
1.9717
 10
16.0721
 20
1.9718
 10
16.0721
 20
1.9718
 10
16.0722
 20
1.9718
 10
16.0722
 20
1.9719
 10
16.0722
 20
1.9719
 10
16.0606
 20
2.2487
 10
16.0606
 20
2.2487
 10
16.0606
 20
2.2487
 10
17.0328
 20
2.9141
 10
17.0328
 20
2.9141
 10
17.0328
 20
2.9141
 10
20.0302
 20
3.039
 10
20.0302
 20
3.039
 10
20.0302
 20
3.039
 10
20.1395
 20
0.4163
 10
20.1395
 20
0.4163
 10
20.1394
 20
0.4163
 10
10.1491
 20
0.0
 10
10.1481
 20
0.0
 10
10.1481
 20
0.0
 10
10.1481
 20
0.0
 10
10.0702
 20
1.8695
 10
10.0702
 20
1.8695
 10
10.0702
 20
1.8696
 10
10.0702
 20
1.8696
 10
10.0702
 20
1.8697
 10
10.0702
 20
1.8697
 10
10.0701
 20
1.8698
 10
10.0701
 20
1.8698
 10
10.0701
 20
1.8698
 10
10.07
 20
1.8699
 10
10.07
 20
1.8699
 10
10.0699
 20
1.8699
 10
10.0699
 20
1.8699
 10
10.0698
 20
1.87
 10
10.0698
 20
1.87
 10
10.0698
 20
1.87
 10
10.0697
 20
1.87
 10
10.0697
 20
1.87
 10
10.0696
 20
1.87
 10
10.0696
 20
1.8699
 10
10.0695
 20
1.8699
 10
10.0695
 20
1.8699
 10
10.0694
 20
1.8699
 10
10.0694
 20
1.8698
 10
10.0694
 20
1.8698
 10
10.0693
 20
1.8698
 10
10.0693
 20
1.8697
 10
10.0693
 20
1.8697
 10
10.0693
 20
1.8696
 10
10.0692
 20
1.8696
 10
10.0692
 20
1.8695
 10
10.0692
 20
1.8695
 10
9.9913
 20
0.0
 10
9.9913
 20
0.0
 10
9.9913
 20
0.0
 10
9.9903
 20
0.0
 10
0.0
 20
0.4163
 10
0.0
 20
0.4163
 10
0.0
 20
0.4163
  0
CIRCLE
  5
34
330
17
100
AcDbEntity
  8
CUT
100
AcDbCircle
 10
19.587849459405437
 20
1.6444053611908203
 30
0.0
 40
0.12498322364641343
  0
CIRCLE
  5
35
330
17
100
AcDbEntity
  8
CUT
100
AcDbCircle
 10
19.425181190122746
 20
5.548484582657391
 30
0.0
 40
0.12498998545086036
  0
LWPOLYLINE
  5
36
330
17
100
AcDbEntity
  8
CUT
100
AcDbPolyline
 90
133
 70
1
 10
17.8946
 20
1.6075
 10
17.8809
 20
1.5872
 10
17.8809
 20
1.5872
 10
17.8692
 20
1.5657
 10
17.8691
 20
1.5656
 10
17.8596
 20
1.5431
 10
17.8596
 20
1.543
 10
17.8523
 20
1.5196
 10
17.8523
 20
1.5196
 10
17.8473
 20
1.4956
 10
17.8473
 20
1.4956
 10
17.8448
 20
1.4712
 10
17.8447
 20
1.4712
 10
17.8446
 20
1.4467
 10
17.8446
 20
1.4466
 10
17.8468
 20
1.4223
 10
17.8468
 20
1.4222
 10
17.8514
 20
1.3982
 10
17.8514
 20
1.3981
 10
17.8583
 20
1.3746
 10
17.8584
 20
1.3746
 10
17.8676
 20
1.3519
 10
17.8676
 20
1.3518
 10
17.879
 20
1.3302
 10
17.879
 20
1.3301
 10
17.8924
 20
1.3097
 10
17.8925
 20
1.3096
 10
17.9079
 20
1.2906
 10
17.9079
 20
1.2905
 10
17.9251
 20
1.2731
 10
17.9251
 20
1.2731
 10
17.9439
 20
1.2574
 10
17.944
 20
1.2574
 10
17.9642
 20
1.2436
 10
17.9643
 20
1.2436
 10
17.9858
 20
1.2319
 10
17.9858
 20
1.2319
 10
18.0084
 20
1.2223
 10
18.0084
 20
1.2223
 10
18.0318
 20
1.215
 10
18.0318
 20
1.215
 10
18.0558
 20
1.2101
 10
18.0559
 20
1.2101
 10
18.0802
 20
1.2075
 10
18.0802
 20
1.2075
 10
18.1047
 20
1.2073
 10
18.1048
 20
1.2073
 10
18.8541
 20
1.2385
 10
18.8541
 20
1.2385
 10
18.8785
 20
1.2407
 10
18.8786
 20
1.2407
 10
18.9026
 20
1.2453
 10
18.9027
 20
1.2453
 10
18.9261
 20
1.2523
 10
18.9262
 20
1.2523
 10
18.9489
 20
1.2615
 10
18.9489
 20
1.2615
 10
18.9706
 20
1.2729
 10
18.9706
 20
1.2729
 10
18.9911
 20
1.2864
 10
18.9911
 20
1.2864
 10
19.0102
 20
1.3018
 10
19.0102
 20
1.3018
 10
19.0277
 20
1.319
 10
19.0277
 20
1.319
 10
19.0434
 20
1.3379
 10
19.0434
 20
1.3379
 10
19.0572
 20
1.3582
 10
19.0572
 20
1.3582
 10
19.0689
 20
1.3797
 10
19.0689
 20
1.3797
 10
19.0784
 20
1.4023
 10
19.0785
 20
1.4023
 10
19.0857
 20
1.4257
 10
19.0858
 20
1.4258
 10
19.0907
 20
1.4497
 10
19.0907
 20
1.4498
 10
19.0933
 20
1.4741
 10
19.0933
 20
1.4742
 10
19.0935
 20
1.4987
 10
19.0935
 20
1.4987
 10
19.0913
 20
1.5231
 10
19.0913
 20
1.5232
 10
19.0867
 20
1.5472
 10
19.0866
 20
1.5473
 10
19.0797
 20
1.5707
 10
19.0797
 20
1.5708
 10
19.0705
 20
1.5935
 10
19.0705
 20
1.5935
 10
19.0591
 20
1.6152
 10
19.0591
 20
1.6152
 10
19.0456
 20
1.6357
 10
19.0456
 20
1.6357
 10
19.0302
 20
1.6548
 10
19.0302
 20
1.6548
 10
19.013
 20
1.6723
 10
19.0129
 20
1.6723
 10
18.9941
 20
1.688
 10
18.9941
 20
1.688
 10
18.9738
 20
1.7017
 10
18.9738
 20
1.7018
 10
18.9523
 20
1.7135
 10
18.9522
 20
1.7135
 10
18.9297
 20
1.723
 10
18.9296
 20
1.7231
 10
18.9063
 20
1.7303
 10
18.9062
 20
1.7303
 10
18.8822
 20
1.7353
 10
18.8822
 20
1.7353
 10
18.8579
 20
1.7379
 10
18.8578
 20
1.7379
 10
18.8333
 20
1.7381
 10
18.8333
 20
1.7381
 10
18.084
 20
1.7069
 10
18.0839
 20
1.7069
 10
18.0595
 20
1.7046
 10
18.0595
 20
1.7046
 10
18.0354
 20
1.7
 10
18.0354
 20
1.7
 10
18.0119
 20
1.6931
 10
18.0119
 20
1.6931
 10
17.9892
 20
1.6839
 10
17.9891
 20
1.6838
 10
17.9674
 20
1.6725
 10
17.9674
 20
1.6724
 10
17.9469
 20
1.659
 10
17.9469
 20
1.659
 10
17.9279
 20
1.6436
 10
17.9278
 20
1.6435
 10
17.9104
 20
1.6263
 10
17.9104
 20
1.6263
 10
17.8947
 20
1.6075
 10
17.8946
 20
1.6075
  0
LWPOLYLINE
  5
37
330
17
100
AcDbEntity
  8
CUT
100
AcDbPolyline
 90
133
 70
1
 10
17.7738
 20
5.8128
 10
17.7548
 20
5.7974
 10
17.7547
 20
5.7974
 10
17.7373
 20
5.7802
 10
17.7373
 20
5.7802
 10
17.7216
 20
5.7614
 10
17.7216
 20
5.7613
 10
17.7078
 20
5.7411
 10
17.7078
 20
5.741
 10
17.6961
 20
5.7195
 10
17.6961
 20
5.7195
 10
17.6865
 20
5.6969
 10
17.6865
 20
5.6969
 10
17.6792
 20
5.6735
 10
17.6792
 20
5.6735
 10
17.6743
 20
5.6495
 10
17.6743
 20
5.6494
 10
17.6717
 20
5.6251
 10
17.6717
 20
5.625
 10
17.6715
 20
5.6005
 10
17.6715
 20
5.6005
 10
17.6737
 20
5.5761
 10
17.6737
 20
5.5761
 10
17.6783
 20
5.552
 10
17.6783
 20
5.552
 10
17.6853
 20
5.5285
 10
17.6853
 20
5.5284
 10
17.6945
 20
5.5057
 10
17.6945
 20
5.5057
 10
17.7059
 20
5.484
 10
17.7059
 20
5.484
 10
17.7194
 20
5.4635
 10
17.7194
 20
5.4635
 10
17.7348
 20
5.4444
 10
17.7348
 20
5.4444
 10
17.752
 20
5.427
 10
17.752
 20
5.4269
 10
17.7708
 20
5.4113
 10
17.7709
 20
5.4112
 10
17.7911
 20
5.3975
 10
17.7912
 20
5.3974
 10
17.8127
 20
5.3857
 10
17.8127
 20
5.3857
 10
17.8353
 20
5.3762
 10
17.8353
 20
5.3762
 10
17.8587
 20
5.3689
 10
17.8587
 20
5.3689
 10
17.8827
 20
5.3639
 10
17.8828
 20
5.3639
 10
17.9071
 20
5.3613
 10
17.9072
 20
5.3613
 10
17.9317
 20
5.3611
 10
17.9317
 20
5.3611
 10
18.681
 20
5.3924
 10
18.681
 20
5.3924
 10
18.7054
 20
5.3946
 10
18.7055
 20
5.3946
 10
18.7295
 20
5.3992
 10
18.7296
 20
5.3992
 10
18.7531
 20
5.4061
 10
18.7531
 20
5.4062
 10
18.7758
 20
5.4154
 10
18.7758
 20
5.4154
 10
18.7975
 20
5.4268
 10
18.7976
 20
5.4268
 10
18.818
 20
5.4402
 10
18.8181
 20
5.4403
 10
18.8371
 20
5.4557
 10
18.8371
 20
5.4557
 10
18.8546
 20
5.4729
 10
18.8546
 20
5.4729
 10
18.8703
 20
5.4917
 10
18.8703
 20
5.4918
 10
18.8841
 20
5.512
 10
18.8841
 20
5.5121
 10
18.8958
 20
5.5336
 10
18.8958
 20
5.5336
 10
18.9054
 20
5.5562
 10
18.9054
 20
5.5562
 10
18.9127
 20
5.5796
 10
18.9127
 20
5.5796
 10
18.9176
 20
5.6036
 10
18.9176
 20
5.6037
 10
18.9202
 20
5.628
 10
18.9202
 20
5.628
 10
18.9204
 20
5.6525
 10
18.9204
 20
5.6526
 10
18.9182
 20
5.677
 10
18.9182
 20
5.677
 10
18.9136
 20
5.7011
 10
18.9136
 20
5.7011
 10
18.9066
 20
5.7246
 10
18.9066
 20
5.7246
 10
18.8974
 20
5.7473
 10
18.8974
 20
5.7474
 10
18.886
 20
5.7691
 10
18.886
 20
5.7691
 10
18.8725
 20
5.7896
 10
18.8725
 20
5.7896
 10
18.8571
 20
5.8086
 10
18.8571
 20
5.8087
 10
18.8399
 20
5.8261
 10
18.8399
 20
5.8261
 10
18.8211
 20
5.8418
 10
18.821
 20
5.8419
 10
18.8008
 20
5.8556
 10
18.8007
 20
5.8556
 10
18.7792
 20
5.8673
 10
18.7792
 20
5.8674
 10
18.7566
 20
5.8769
 10
18.7566
 20
5.8769
 10
18.7332
 20
5.8842
 10
18.7331
 20
5.8842
 10
18.7092
 20
5.8892
 10
18.7091
 20
5.8892
 10
18.6848
 20
5.8917
 10
18.6847
 20
5.8918
 10
18.6602
 20
5.8919
 10
18.6602
 20
5.8919
 10
17.9109
 20
5.8607
 10
17.9109
 20
5.8607
 10
17.8865
 20
5.8585
 10
17.8864
 20
5.8585
 10
17.8624
 20
5.8539
 10
17.8623
 20
5.8539
 10
17.8388
 20
5.8469
 10
17.8388
 20
5.8469
 10
17.8161
 20
5.8377
 10
17.816
 20
5.8377
 10
17.7944
 20
5.8263
 10
17.7943
 20
5.8263
 10
17.7739
 20
5.8128
 10
17.7738
 20
5.8128
  0
CIRCLE
  5
38
330
17
100
AcDbEntity
  8
CUT
100
AcDbCircle
 10
16.84022542711139
 20
1.529919148368407
 30
0.0
 40
0.12498825835161519
  0
CIRCLE
  5
39
330
17
100
AcDbEntity
  8
CUT
100
AcDbCircle
 10
16.677555065810456
 20
5.433997822114737
 30
0.0
 40
0.12498327907632659
  0
CIRCLE
  5
3A
330
17
100
AcDbEntity
  8
CUT
100
AcDbCircle
 10
3.4618931484861526
 20
5.433995721881416
 30
0.0
 40
0.12499073425818005
  0
CIRCLE
  5
3B
330
17
100
AcDbEntity
  8
CUT
100
AcDbCircle
 10
3.299217912194606
 20
1.5299187043719953
 30
0.0
 40
0.12498873667492039
  0
LWPOLYLINE
  5
3C
330
17
100
AcDbEntity
  8
CUT
100
AcDbPolyline
 90
133
 70
1
 10
2.3234
 20
5.8377
 10
2.3007
 20
5.8469
 10
2.3006
 20
5.8469
 10
2.2771
 20
5.8539
 10
2.2771
 20
5.8539
 10
2.253
 20
5.8585
 10
2.253
 20
5.8585
 10
2.2286
 20
5.8607
 10
2.2286
 20
5.8607
 10
1.4792
 20
5.8919
 10
1.4792
 20
5.8919
 10
1.4547
 20
5.8918
 10
1.4547
 20
5.8917
 10
1.4303
 20
5.8892
 10
1.4303
 20
5.8892
 10
1.4063
 20
5.8842
 10
1.4063
 20
5.8842
 10
1.3829
 20
5.8769
 10
1.3828
 20
5.8769
 10
1.3603
 20
5.8674
 10
1.3602
 20
5.8673
 10
1.3387
 20
5.8556
 10
1.3387
 20
5.8556
 10
1.3184
 20
5.8419
 10
1.3184
 20
5.8418
 10
1.2996
 20
5.8261
 10
1.2995
 20
5.8261
 10
1.2824
 20
5.8087
 10
1.2823
 20
5.8086
 10
1.2669
 20
5.7896
 10
1.2669
 20
5.7896
 10
1.2535
 20
5.7691
 10
1.2534
 20
5.7691
 10
1.2421
 20
5.7474
 10
1.242
 20
5.7473
 10
1.2328
 20
5.7246
 10
1.2328
 20
5.7246
 10
1.2259
 20
5.7011
 10
1.2259
 20
5.7011
 10
1.2213
 20
5.677
 10
1.2213
 20
5.677
 10
1.219
 20
5.6526
 10
1.219
 20
5.6525
 10
1.2192
 20
5.628
 10
1.2192
 20
5.628
 10
1.2218
 20
5.6037
 10
1.2218
 20
5.6036
 10
1.2268
 20
5.5796
 10
1.2268
 20
5.5796
 10
1.2341
 20
5.5562
 10
1.2341
 20
5.5562
 10
1.2436
 20
5.5336
 10
1.2436
 20
5.5336
 10
1.2553
 20
5.5121
 10
1.2554
 20
5.512
 10
1.2691
 20
5.4918
 10
1.2692
 20
5.4917
 10
1.2848
 20
5.4729
 10
1.2849
 20
5.4729
 10
1.3023
 20
5.4557
 10
1.3023
 20
5.4557
 10
1.3214
 20
5.4403
 10
1.3214
 20
5.4402
 10
1.3419
 20
5.4268
 10
1.3419
 20
5.4268
 10
1.3636
 20
5.4154
 10
1.3636
 20
5.4154
 10
1.3863
 20
5.4062
 10
1.3864
 20
5.4061
 10
1.4099
 20
5.3992
 10
1.4099
 20
5.3992
 10
1.434
 20
5.3946
 10
1.434
 20
5.3946
 10
1.4584
 20
5.3924
 10
1.4584
 20
5.3924
 10
2.2078
 20
5.3611
 10
2.2078
 20
5.3611
 10
2.2323
 20
5.3613
 10
2.2323
 20
5.3613
 10
2.2567
 20
5.3639
 10
2.2567
 20
5.3639
 10
2.2807
 20
5.3689
 10
2.2807
 20
5.3689
 10
2.3041
 20
5.3762
 10
2.3042
 20
5.3762
 10
2.3267
 20
5.3857
 10
2.3268
 20
5.3857
 10
2.3483
 20
5.3974
 10
2.3483
 20
5.3975
 10
2.3686
 20
5.4112
 10
2.3686
 20
5.4113
 10
2.3874
 20
5.4269
 10
2.3875
 20
5.427
 10
2.4046
 20
5.4444
 10
2.4047
 20
5.4444
 10
2.4201
 20
5.4635
 10
2.4201
 20
5.4635
 10
2.4335
 20
5.484
 10
2.4336
 20
5.484
 10
2.445
 20
5.5057
 10
2.445
 20
5.5057
 10
2.4542
 20
5.5284
 10
2.4542
 20
5.5285
 10
2.4611
 20
5.552
 10
2.4611
 20
5.552
 10
2.4657
 20
5.5761
 10
2.4657
 20
5.5761
 10
2.468
 20
5.6005
 10
2.468
 20
5.6005
 10
2.4678
 20
5.625
 10
2.4678
 20
5.6251
 10
2.4652
 20
5.6494
 10
2.4652
 20
5.6495
 10
2.4602
 20
5.6735
 10
2.4602
 20
5.6735
 10
2.4529
 20
5.6969
 10
2.4529
 20
5.6969
 10
2.4434
 20
5.7195
 10
2.4434
 20
5.7195
 10
2.4317
 20
5.741
 10
2.4316
 20
5.7411
 10
2.4179
 20
5.7613
 10
2.4178
 20
5.7614
 10
2.4022
 20
5.7802
 10
2.4021
 20
5.7802
 10
2.3847
 20
5.7974
 10
2.3847
 20
5.7974
 10
2.3656
 20
5.8128
 10
2.3656
 20
5.8128
 10
2.3451
 20
5.8263
 10
2.3451
 20
5.8263
 10
2.3234
 20
5.8377
 10
2.3234
 20
5.8377
  0
LWPOLYLINE
  5
3D
330
17
100
AcDbEntity
  8
CUT
100
AcDbPolyline
 90
133
 70
1
 10
2.2116
 20
1.6436
 10
2.1925
 20
1.659
 10
2.1925
 20
1.659
 10
2.172
 20
1.6724
 10
2.172
 20
1.6725
 10
2.1503
 20
1.6838
 10
2.1503
 20
1.6839
 10
2.1276
 20
1.6931
 10
2.1275
 20
1.6931
 10
2.1041
 20
1.7
 10
2.104
 20
1.7
 10
2.08
 20
1.7046
 10
2.0799
 20
1.7046
 10
2.0555
 20
1.7069
 10
2.0555
 20
1.7069
 10
1.3062
 20
1.7381
 10
1.3061
 20
1.7381
 10
1.2816
 20
1.7379
 10
1.2816
 20
1.7379
 10
1.2573
 20
1.7353
 10
1.2572
 20
1.7353
 10
1.2332
 20
1.7303
 10
1.2332
 20
1.7303
 10
1.2098
 20
1.7231
 10
1.2098
 20
1.723
 10
1.1872
 20
1.7135
 10
1.1872
 20
1.7135
 10
1.1657
 20
1.7018
 10
1.1656
 20
1.7017
 10
1.1454
 20
1.688
 10
1.1453
 20
1.688
 10
1.1265
 20
1.6723
 10
1.1265
 20
1.6723
 10
1.1093
 20
1.6548
 10
1.1093
 20
1.6548
 10
1.0939
 20
1.6357
 10
1.0938
 20
1.6357
 10
1.0804
 20
1.6152
 10
1.0804
 20
1.6152
 10
1.069
 20
1.5935
 10
1.069
 20
1.5935
 10
1.0598
 20
1.5708
 10
1.0597
 20
1.5707
 10
1.0528
 20
1.5473
 10
1.0528
 20
1.5472
 10
1.0482
 20
1.5232
 10
1.0482
 20
1.5231
 10
1.046
 20
1.4987
 10
1.046
 20
1.4987
 10
1.0461
 20
1.4742
 10
1.0462
 20
1.4741
 10
1.0487
 20
1.4498
 10
1.0487
 20
1.4497
 10
1.0537
 20
1.4258
 10
1.0537
 20
1.4257
 10
1.061
 20
1.4023
 10
1.061
 20
1.4023
 10
1.0705
 20
1.3797
 10
1.0706
 20
1.3797
 10
1.0823
 20
1.3582
 10
1.0823
 20
1.3582
 10
1.096
 20
1.3379
 10
1.0961
 20
1.3379
 10
1.1118
 20
1.319
 10
1.1118
 20
1.319
 10
1.1292
 20
1.3018
 10
1.1293
 20
1.3018
 10
1.1483
 20
1.2864
 10
1.1483
 20
1.2864
 10
1.1688
 20
1.2729
 10
1.1688
 20
1.2729
 10
1.1905
 20
1.2615
 10
1.1906
 20
1.2615
 10
1.2133
 20
1.2523
 10
1.2133
 20
1.2523
 10
1.2368
 20
1.2453
 10
1.2368
 20
1.2453
 10
1.2609
 20
1.2407
 10
1.2609
 20
1.2407
 10
1.2853
 20
1.2385
 10
1.2854
 20
1.2385
 10
2.0347
 20
1.2073
 10
2.0347
 20
1.2073
 10
2.0592
 20
1.2075
 10
2.0592
 20
1.2075
 10
2.0836
 20
1.2101
 10
2.0836
 20
1.2101
 10
2.1076
 20
1.215
 10
2.1077
 20
1.215
 10
2.131
 20
1.2223
 10
2.1311
 20
1.2223
 10
2.1536
 20
1.2319
 10
2.1537
 20
1.2319
 10
2.1752
 20
1.2436
 10
2.1752
 20
1.2436
 10
2.1955
 20
1.2574
 10
2.1955
 20
1.2574
 10
2.2143
 20
1.2731
 10
2.2144
 20
1.2731
 10
2.2316
 20
1.2905
 10
2.2316
 20
1.2906
 10
2.247
 20
1.3096
 10
2.247
 20
1.3097
 10
2.2605
 20
1.3301
 10
2.2605
 20
1.3302
 10
2.2719
 20
1.3518
 10
2.2719
 20
1.3519
 10
2.2811
 20
1.3746
 10
2.2811
 20
1.3746
 10
2.288
 20
1.3981
 10
2.2881
 20
1.3982
 10
2.2927
 20
1.4222
 10
2.2927
 20
1.4223
 10
2.2949
 20
1.4466
 10
2.2949
 20
1.4467
 10
2.2947
 20
1.4712
 10
2.2947
 20
1.4712
 10
2.2921
 20
1.4956
 10
2.2921
 20
1.4956
 10
2.2872
 20
1.5196
 10
2.2871
 20
1.5196
 10
2.2799
 20
1.543
 10
2.2798
 20
1.5431
 10
2.2703
 20
1.5656
 10
2.2703
 20
1.5657
 10
2.2586
 20
1.5872
 10
2.2586
 20
1.5872
 10
2.2448
 20
1.6075
 10
2.2448
 20
1.6075
 10
2.2291
 20
1.6263
 10
2.2291
 20
1.6263
 10
2.2116
 20
1.6435
 10
2.2116
 20
1.6436
  0
CIRCLE
  5
3E
330
17
100
AcDbEntity
  8
CUT
100
AcDbCircle
 10
0.7142798697776834
 20
5.548486437410951
 30
0.0
 40
0.12499200521418283
  0
CIRCLE
  5
3F
330
17
100
AcDbEntity
  8
CUT
100
AcDbCircle
 10
0.5516031759245179
 20
1.6444070185433688
 30
0.0
 40
0.12499157487354048
  0
LINE
  5
40
330
17
100
AcDbEntity
  8
BEND
100
AcDbLine
 10
10.0697
 20
1.8815
 30
0.0
 11
16.0021
 21
2.1287
 31
0.0
  0
TEXT
  5
41
330
17
100
AcDbEntity
  8
TEXT
100
AcDbText
 10
13.035899999999998
 20
2.0050999999999997
 30
0.0
 40
0.12
  1
B1 (1)/(3) 90 deg
100
AcDbText
  0
LINE
  5
42
330
17
100
AcDbEntity
  8
BEND
100
AcDbLine
 10
4.1374
 20
2.1287
 30
0.0
 11
10.0697
 21
1.8815
 31
0.0
  0
TEXT
  5
43
330
17
100
AcDbEntity
  8
TEXT
100
AcDbText
 10
7.10355
 20
2.0050999999999997
 30
0.0
 40
0.12
  1
B2 (2)/(4) 90 deg
100
AcDbText
  0
LINE
  5
44
330
17
100
AcDbEntity
  8
BEND
100
AcDbLine
 10
10.0697
 20
4.525
 30
0.0
 11
15.8921
 21
4.7676
 31
0.0
  0
TEXT
  5
45
330
17
100
AcDbEntity
  8
TEXT
100
AcDbText
 10
12.980899999999998
 20
4.6463
 30
0.0
 40
0.12
  1
B3 
100
AcDbText
  0
LINE
  5
46
330
17
100
AcDbEntity
  8
BEND
100
AcDbLine
 10
4.2473
 20
4.7676
 30
0.0
 11
10.0697
 21
4.525
 31
0.0
  0
TEXT
  5
47
330
17
100
AcDbEntity
  8
TEXT
100
AcDbText
 10
7.1585
 20
4.6463
 30
0.0
 40
0.12
  1
B4 
100
AcDbText
  0
TEXT
  5
48
330
17
100
AcDbEntity
  8
TEXT
100
AcDbText
 10
0.0
 20
-0.6
 30
0.0
 40
0.15
  1
FF-1 blank 1: Channel with ears — flat pattern, one piece (4 bends 90°, we  HR steel sheet 10 ga (0.135")  QTY 1 per vehicle
100
AcDbText
  0
ENDSEC
  0
SECTION
  2
OBJECTS
  0
DICTIONARY
  5
A
330
0
100
AcDbDictionary
281
1
  3
ACAD_COLOR
350
B
  3
ACAD_GROUP
350
C
  3
ACAD_LAYOUT
350
D
  3
ACAD_MATERIAL
350
E
  3
ACAD_MLEADERSTYLE
350
F
  3
ACAD_MLINESTYLE
350
10
  3
ACAD_PLOTSETTINGS
350
11
  3
ACAD_PLOTSTYLENAME
350
12
  3
ACAD_SCALELIST
350
14
  3
ACAD_TABLESTYLE
350
15
  3
ACAD_VISUALSTYLE
350
16
  3
EZDXF_META
350
2D
  0
DICTIONARY
  5
B
330
A
100
AcDbDictionary
281
1
  0
DICTIONARY
  5
C
330
A
100
AcDbDictionary
281
1
  0
DICTIONARY
  5
D
330
A
100
AcDbDictionary
281
1
  3
Model
350
1A
  3
Layout1
350
1E
  0
DICTIONARY
  5
E
330
A
100
AcDbDictionary
281
1
  3
ByBlock
350
1F
  3
ByLayer
350
20
  3
Global
350
21
  0
DICTIONARY
  5
F
330
A
100
AcDbDictionary
281
1
  3
Standard
350
2C
  0
DICTIONARY
  5
10
330
A
100
AcDbDictionary
281
1
  3
Standard
350
22
  0
DICTIONARY
  5
11
330
A
100
AcDbDictionary
281
1
  0
ACDBDICTIONARYWDFLT
  5
12
330
A
100
AcDbDictionary
281
1
  3
Normal
350
13
100
AcDbDictionaryWithDefault
340
13
  0
ACDBPLACEHOLDER
  5
13
330
12
  0
DICTIONARY
  5
14
330
A
100
AcDbDictionary
281
1
  0
DICTIONARY
  5
15
330
A
100
AcDbDictionary
281
1
  0
DICTIONARY
  5
16
330
A
100
AcDbDictionary
281
1
  0
LAYOUT
  5
1A
330
D
100
AcDbPlotSettings
  1

  4
A3
  6

 40
7.5
 41
20.0
 42
7.5
 43
20.0
 44
420.0
 45
297.0
 46
0.0
 47
0.0
 48
0.0
 49
0.0
140
0.0
141
0.0
142
1.0
143
1.0
 70
1024
 72
1
 73
0
 74
5
  7

 75
16
 76
0
 77
2
 78
300
147
1.0
148
0.0
149
0.0
100
AcDbLayout
  1
Model
 70
1
 71
0
 10
0.0
 20
0.0
 11
420.0
 21
297.0
 12
0.0
 22
0.0
 32
0.0
 14
1e+20
 24
1e+20
 34
1e+20
 15
-1e+20
 25
-1e+20
 35
-1e+20
146
0.0
 13
0.0
 23
0.0
 33
0.0
 16
1.0
 26
0.0
 36
0.0
 17
0.0
 27
1.0
 37
0.0
 76
1
330
17
  0
LAYOUT
  5
1E
330
D
100
AcDbPlotSettings
  1

  4
A3
  6

 40
7.5
 41
20.0
 42
7.5
 43
20.0
 44
420.0
 45
297.0
 46
0.0
 47
0.0
 48
0.0
 49
0.0
140
0.0
141
0.0
142
1.0
143
1.0
 70
0
 72
1
 73
0
 74
5
  7

 75
16
 76
0
 77
2
 78
300
147
1.0
148
0.0
149
0.0
100
AcDbLayout
  1
Layout1
 70
1
 71
1
 10
0.0
 20
0.0
 11
420.0
 21
297.0
 12
0.0
 22
0.0
 32
0.0
 14
1e+20
 24
1e+20
 34
1e+20
 15
-1e+20
 25
-1e+20
 35
-1e+20
146
0.0
 13
0.0
 23
0.0
 33
0.0
 16
1.0
 26
0.0
 36
0.0
 17
0.0
 27
1.0
 37
0.0
 76
1
330
1B
  0
MATERIAL
  5
1F
102
{ACAD_REACTORS
330
E
102
}
330
E
100
AcDbMaterial
  1
ByBlock
  2

 70
0
 40
1.0
 71
1
 41
1.0
 91
-1023410177
 42
1.0
 72
1
  3

 73
1
 74
1
 75
1
 44
0.5
 73
0
 45
1.0
 46
1.0
 77
1
  4

 78
1
 79
1
170
1
 48
1.0
171
1
  6

172
1
173
1
174
1
140
1.0
141
1.0
175
1
  7

176
1
177
1
178
1
143
1.0
179
1
  8

270
1
271
1
272
1
145
1.0
146
1.0
273
1
  9

274
1
275
1
276
1
 42
1.0
 72
1
  3

 73
1
 74
1
 75
1
 94
63
  0
MATERIAL
  5
20
102
{ACAD_REACTORS
330
E
102
}
330
E
100
AcDbMaterial
  1
ByLayer
  2

 70
0
 40
1.0
 71
1
 41
1.0
 91
-1023410177
 42
1.0
 72
1
  3

 73
1
 74
1
 75
1
 44
0.5
 73
0
 45
1.0
 46
1.0
 77
1
  4

 78
1
 79
1
170
1
 48
1.0
171
1
  6

172
1
173
1
174
1
140
1.0
141
1.0
175
1
  7

176
1
177
1
178
1
143
1.0
179
1
  8

270
1
271
1
272
1
145
1.0
146
1.0
273
1
  9

274
1
275
1
276
1
 42
1.0
 72
1
  3

 73
1
 74
1
 75
1
 94
63
  0
MATERIAL
  5
21
102
{ACAD_REACTORS
330
E
102
}
330
E
100
AcDbMaterial
  1
Global
  2

 70
0
 40
1.0
 71
1
 41
1.0
 91
-1023410177
 42
1.0
 72
1
  3

 73
1
 74
1
 75
1
 44
0.5
 73
0
 45
1.0
 46
1.0
 77
1
  4

 78
1
 79
1
170
1
 48
1.0
171
1
  6

172
1
173
1
174
1
140
1.0
141
1.0
175
1
  7

176
1
177
1
178
1
143
1.0
179
1
  8

270
1
271
1
272
1
145
1.0
146
1.0
273
1
  9

274
1
275
1
276
1
 42
1.0
 72
1
  3

 73
1
 74
1
 75
1
 94
63
  0
MLINESTYLE
  5
22
102
{ACAD_REACTORS
330
10
102
}
330
10
100
AcDbMlineStyle
  2
Standard
 70
0
  3

 62
256
 51
90.0
 52
90.0
 71
2
 49
0.5
 62
256
  6
BYLAYER
 49
-0.5
 62
256
  6
BYLAYER
  0
MLEADERSTYLE
  5
2C
102
{ACAD_REACTORS
330
F
102
}
330
F
100
AcDbMLeaderStyle
179
2
170
2
171
1
172
0
 90
2
 40
0.0
 41
0.0
173
1
 91
-1056964608
 92
-2
290
1
 42
2.0
291
1
 43
8.0
  3
Standard
 44
4.0
300

342
29
174
1
175
1
176
0
178
1
 93
-1056964608
 45
4.0
292
0
297
0
 46
4.0
 94
-1056964608
 47
1.0
 49
1.0
140
1.0
294
1
141
0.0
177
0
142
1.0
295
0
296
0
143
3.75
271
0
272
9
273
9
  0
DICTIONARY
  5
2D
330
A
100
AcDbDictionary
280
1
281
1
  3
CREATED_BY_EZDXF
350
2E
  3
WRITTEN_BY_EZDXF
350
4B
  0
DICTIONARYVAR
  5
2E
330
2D
100
DictionaryVariables
280
0
  1
1.4.4 @ 2026-10-03T14:43:26.130998+00:00
  0
DICTIONARYVAR
  5
4B
330
2D
100
DictionaryVariables
280
0
  1
1.4.4 @ 2026-10-03T14:43:26.138897+00:00
  0
ENDSEC
  0
EOF
