  0
SECTION
  2
HEADER
  9
$ACADVER
  1
AC1024
  9
$ACADMAINTVER
 70
6
  9
$DWGCODEPAGE
  3
ANSI_1252
  9
$LASTSAVEDBY
  1
ezdxf
  9
$INSBASE
 10
0.0
 20
0.0
 30
0.0
  9
$EXTMIN
 10
1e+20
 20
1e+20
 30
1e+20
  9
$EXTMAX
 10
-1e+20
 20
-1e+20
 30
-1e+20
  9
$LIMMIN
 10
0.0
 20
0.0
  9
$LIMMAX
 10
420.0
 20
297.0
  9
$ORTHOMODE
 70
0
  9
$REGENMODE
 70
1
  9
$FILLMODE
 70
1
  9
$QTEXTMODE
 70
0
  9
$MIRRTEXT
 70
1
  9
$LTSCALE
 40
1.0
  9
$ATTMODE
 70
1
  9
$TEXTSIZE
 40
2.5
  9
$TRACEWID
 40
1.0
  9
$TEXTSTYLE
  7
OpenSans
  9
$CLAYER
  8
0
  9
$CELTYPE
  6
ByLayer
  9
$CECOLOR
 62
256
  9
$CELTSCALE
 40
1.0
  9
$DISPSILH
 70
0
  9
$DIMSCALE
 40
1.0
  9
$DIMASZ
 40
0.175
  9
$DIMEXO
 40
0.125
  9
$DIMDLI
 40
3.75
  9
$DIMRND
 40
0.0
  9
$DIMDLE
 40
0.0
  9
$DIMEXE
 40
0.375
  9
$DIMTP
 40
0.0
  9
$DIMTM
 40
0.0
  9
$DIMTXT
 40
0.25
  9
$DIMCEN
 40
2.5
  9
$DIMTSZ
 40
0.0
  9
$DIMTOL
 70
0
  9
$DIMLIM
 70
0
  9
$DIMTIH
 70
0
  9
$DIMTOH
 70
0
  9
$DIMSE1
 70
0
  9
$DIMSE2
 70
0
  9
$DIMTAD
 70
1
  9
$DIMZIN
 70
12
  9
$DIMBLK
  1
ARCHTICK
  9
$DIMASO
 70
1
  9
$DIMSHO
 70
1
  9
$DIMPOST
  1

  9
$DIMAPOST
  1

  9
$DIMALT
 70
0
  9
$DIMALTD
 70
3
  9
$DIMALTF
 40
0.03937007874
  9
$DIMLFAC
 40
100.0
  9
$DIMTOFL
 70
1
  9
$DIMTVP
 40
0.0
  9
$DIMTIX
 70
0
  9
$DIMSOXD
 70
0
  9
$DIMSAH
 70
0
  9
$DIMBLK1
  1

  9
$DIMBLK2
  1

  9
$DIMSTYLE
  2
EZDXF
  9
$DIMCLRD
 70
0
  9
$DIMCLRE
 70
0
  9
$DIMCLRT
 70
0
  9
$DIMTFAC
 40
0.5
  9
$DIMGAP
 40
0.1
  9
$DIMJUST
 70
0
  9
$DIMSD1
 70
0
  9
$DIMSD2
 70
0
  9
$DIMTOLJ
 70
0
  9
$DIMTZIN
 70
8
  9
$DIMALTZ
 70
0
  9
$DIMALTTZ
 70
0
  9
$DIMUPT
 70
1
  9
$DIMDEC
 70
2
  9
$DIMTDEC
 70
2
  9
$DIMALTU
 70
2
  9
$DIMALTTD
 70
3
  9
$DIMTXSTY
  7
OpenSansCondensed-Light
  9
$DIMAUNIT
 70
0
  9
$DIMADEC
 70
2
  9
$DIMALTRND
 40
0.0
  9
$DIMAZIN
 70
3
  9
$DIMDSEP
 70
46
  9
$DIMATFIT
 70
3
  9
$DIMFRAC
 70
0
  9
$DIMLDRBLK
  1

  9
$DIMLUNIT
 70
2
  9
$DIMLWD
 70
-2
  9
$DIMLWE
 70
-2
  9
$DIMTMOVE
 70
2
  9
$DIMFXL
 40
1.0
  9
$DIMFXLON
 70
0
  9
$DIMJOGANG
 40
0.785398163397
  9
$DIMTFILL
 70
0
  9
$DIMTFILLCLR
 70
0
  9
$DIMARCSYM
 70
0
  9
$DIMLTYPE
  6

  9
$DIMLTEX1
  6

  9
$DIMLTEX2
  6

  9
$DIMTXTDIRECTION
 70
0
  9
$LUNITS
 70
2
  9
$LUPREC
 70
4
  9
$SKETCHINC
 40
1.0
  9
$FILLETRAD
 40
10.0
  9
$AUNITS
 70
0
  9
$AUPREC
 70
2
  9
$MENU
  1
.
  9
$ELEVATION
 40
0.0
  9
$PELEVATION
 40
0.0
  9
$THICKNESS
 40
0.0
  9
$LIMCHECK
 70
0
  9
$CHAMFERA
 40
0.0
  9
$CHAMFERB
 40
0.0
  9
$CHAMFERC
 40
0.0
  9
$CHAMFERD
 40
0.0
  9
$SKPOLY
 70
0
  9
$TDCREATE
 40
2461317.4296064815
  9
$TDUCREATE
 40
2458532.153996898
  9
$TDUPDATE
 40
2461317.4296064815
  9
$TDUUPDATE
 40
2458532.1544311
  9
$TDINDWG
 40
0.0
  9
$TDUSRTIMER
 40
0.0
  9
$USRTIMER
 70
1
  9
$ANGBASE
 50
0.0
  9
$ANGDIR
 70
0
  9
$PDMODE
 70
0
  9
$PDSIZE
 40
0.0
  9
$PLINEWID
 40
0.0
  9
$SPLFRAME
 70
0
  9
$SPLINETYPE
 70
6
  9
$SPLINESEGS
 70
8
  9
$HANDSEED
  5
99
  9
$SURFTAB1
 70
6
  9
$SURFTAB2
 70
6
  9
$SURFTYPE
 70
6
  9
$SURFU
 70
6
  9
$SURFV
 70
6
  9
$UCSBASE
  2

  9
$UCSNAME
  2

  9
$UCSORG
 10
0.0
 20
0.0
 30
0.0
  9
$UCSXDIR
 10
1.0
 20
0.0
 30
0.0
  9
$UCSYDIR
 10
0.0
 20
1.0
 30
0.0
  9
$UCSORTHOREF
  2

  9
$UCSORTHOVIEW
 70
0
  9
$UCSORGTOP
 10
0.0
 20
0.0
 30
0.0
  9
$UCSORGBOTTOM
 10
0.0
 20
0.0
 30
0.0
  9
$UCSORGLEFT
 10
0.0
 20
0.0
 30
0.0
  9
$UCSORGRIGHT
 10
0.0
 20
0.0
 30
0.0
  9
$UCSORGFRONT
 10
0.0
 20
0.0
 30
0.0
  9
$UCSORGBACK
 10
0.0
 20
0.0
 30
0.0
  9
$PUCSBASE
  2

  9
$PUCSNAME
  2

  9
$PUCSORG
 10
0.0
 20
0.0
 30
0.0
  9
$PUCSXDIR
 10
1.0
 20
0.0
 30
0.0
  9
$PUCSYDIR
 10
0.0
 20
1.0
 30
0.0
  9
$PUCSORTHOREF
  2

  9
$PUCSORTHOVIEW
 70
0
  9
$PUCSORGTOP
 10
0.0
 20
0.0
 30
0.0
  9
$PUCSORGBOTTOM
 10
0.0
 20
0.0
 30
0.0
  9
$PUCSORGLEFT
 10
0.0
 20
0.0
 30
0.0
  9
$PUCSORGRIGHT
 10
0.0
 20
0.0
 30
0.0
  9
$PUCSORGFRONT
 10
0.0
 20
0.0
 30
0.0
  9
$PUCSORGBACK
 10
0.0
 20
0.0
 30
0.0
  9
$USERI1
 70
0
  9
$USERI2
 70
0
  9
$USERI3
 70
0
  9
$USERI4
 70
0
  9
$USERI5
 70
0
  9
$USERR1
 40
0.0
  9
$USERR2
 40
0.0
  9
$USERR3
 40
0.0
  9
$USERR4
 40
0.0
  9
$USERR5
 40
0.0
  9
$WORLDVIEW
 70
1
  9
$SHADEDGE
 70
3
  9
$SHADEDIF
 70
70
  9
$TILEMODE
 70
1
  9
$MAXACTVP
 70
64
  9
$PINSBASE
 10
0.0
 20
0.0
 30
0.0
  9
$PLIMCHECK
 70
0
  9
$PEXTMIN
 10
1e+20
 20
1e+20
 30
1e+20
  9
$PEXTMAX
 10
-1e+20
 20
-1e+20
 30
-1e+20
  9
$PLIMMIN
 10
0.0
 20
0.0
  9
$PLIMMAX
 10
420.0
 20
297.0
  9
$UNITMODE
 70
0
  9
$VISRETAIN
 70
1
  9
$PLINEGEN
 70
0
  9
$PSLTSCALE
 70
1
  9
$TREEDEPTH
 70
3020
  9
$CMLSTYLE
  2
Standard
  9
$CMLJUST
 70
0
  9
$CMLSCALE
 40
20.0
  9
$PROXYGRAPHICS
 70
1
  9
$MEASUREMENT
 70
1
  9
$CELWEIGHT
370
-1
  9
$ENDCAPS
280
0
  9
$JOINSTYLE
280
0
  9
$LWDISPLAY
290
0
  9
$INSUNITS
 70
1
  9
$HYPERLINKBASE
  1

  9
$STYLESHEET
  1

  9
$XEDIT
290
1
  9
$CEPSNTYPE
380
0
  9
$PSTYLEMODE
290
1
  9
$FINGERPRINTGUID
  2
{90A44982-F88D-4D29-A652-9EA421225A1B}
  9
$VERSIONGUID
  2
{28A54C5D-5177-4E22-8FF4-30166E7613BE}
  9
$EXTNAMES
290
1
  9
$PSVPSCALE
 40
0.0
  9
$OLESTARTUP
290
0
  9
$SORTENTS
280
127
  9
$INDEXCTL
280
0
  9
$HIDETEXT
280
1
  9
$XCLIPFRAME
280
1
  9
$HALOGAP
280
0
  9
$OBSCOLOR
 70
257
  9
$OBSLTYPE
280
0
  9
$INTERSECTIONDISPLAY
280
0
  9
$INTERSECTIONCOLOR
 70
257
  9
$DIMASSOC
280
2
  9
$PROJECTNAME
  1

  9
$CAMERADISPLAY
290
0
  9
$LENSLENGTH
 40
50.0
  9
$CAMERAHEIGHT
 40
0.0
  9
$STEPSPERSEC
 40
24.0
  9
$STEPSIZE
 40
100.0
  9
$3DDWFPREC
 40
2.0
  9
$PSOLWIDTH
 40
0.005
  9
$PSOLHEIGHT
 40
0.08
  9
$LOFTANG1
 40
1.570796326795
  9
$LOFTANG2
 40
1.570796326795
  9
$LOFTMAG1
 40
0.0
  9
$LOFTMAG2
 40
0.0
  9
$LOFTPARAM
 70
7
  9
$LOFTNORMALS
280
1
  9
$LATITUDE
 40
37.795
  9
$LONGITUDE
 40
-122.394
  9
$NORTHDIRECTION
 40
0.0
  9
$TIMEZONE
 70
-8000
  9
$LIGHTGLYPHDISPLAY
280
1
  9
$TILEMODELIGHTSYNCH
280
1
  9
$CMATERIAL
347
20
  9
$SOLIDHIST
280
0
  9
$SHOWHIST
280
1
  9
$DWFFRAME
280
2
  9
$DGNFRAME
280
2
  9
$REALWORLDSCALE
290
1
  9
$INTERFERECOLOR
 62
256
  9
$CSHADOW
280
0
  9
$SHADOWPLANELOCATION
 40
0.0
  0
ENDSEC
  0
SECTION
  2
CLASSES
  0
CLASS
  1
ACDBDICTIONARYWDFLT
  2
AcDbDictionaryWithDefault
  3
ObjectDBX Classes
 90
0
 91
0
280
0
281
0
  0
CLASS
  1
SUN
  2
AcDbSun
  3
SCENEOE
 90
1153
 91
0
280
0
281
0
  0
CLASS
  1
VISUALSTYLE
  2
AcDbVisualStyle
  3
ObjectDBX Classes
 90
4095
 91
0
280
0
281
0
  0
CLASS
  1
MATERIAL
  2
AcDbMaterial
  3
ObjectDBX Classes
 90
1153
 91
0
280
0
281
0
  0
CLASS
  1
SCALE
  2
AcDbScale
  3
ObjectDBX Classes
 90
1153
 91
0
280
0
281
0
  0
CLASS
  1
TABLESTYLE
  2
AcDbTableStyle
  3
ObjectDBX Classes
 90
4095
 91
0
280
0
281
0
  0
CLASS
  1
MLEADERSTYLE
  2
AcDbMLeaderStyle
  3
ACDB_MLEADERSTYLE_CLASS
 90
4095
 91
0
280
0
281
0
  0
CLASS
  1
DICTIONARYVAR
  2
AcDbDictionaryVar
  3
ObjectDBX Classes
 90
0
 91
0
280
0
281
0
  0
CLASS
  1
CELLSTYLEMAP
  2
AcDbCellStyleMap
  3
ObjectDBX Classes
 90
1152
 91
0
280
0
281
0
  0
CLASS
  1
MENTALRAYRENDERSETTINGS
  2
AcDbMentalRayRenderSettings
  3
SCENEOE
 90
1024
 91
0
280
0
281
0
  0
CLASS
  1
ACDBDETAILVIEWSTYLE
  2
AcDbDetailViewStyle
  3
ObjectDBX Classes
 90
1025
 91
0
280
0
281
0
  0
CLASS
  1
ACDBSECTIONVIEWSTYLE
  2
AcDbSectionViewStyle
  3
ObjectDBX Classes
 90
1025
 91
0
280
0
281
0
  0
CLASS
  1
RASTERVARIABLES
  2
AcDbRasterVariables
  3
ISM
 90
0
 91
0
280
0
281
0
  0
CLASS
  1
LAYOUT
  2
AcDbLayout
  3
ObjectDBX Classes
 90
0
 91
0
280
0
281
0
  0
CLASS
  1
ACDBPLACEHOLDER
  2
AcDbPlaceHolder
  3
ObjectDBX Classes
 90
0
 91
0
280
0
281
0
  0
ENDSEC
  0
SECTION
  2
TABLES
  0
TABLE
  2
VPORT
  5
8
330
0
100
AcDbSymbolTable
 70
1
  0
VPORT
  5
23
330
8
100
AcDbSymbolTableRecord
100
AcDbViewportTableRecord
  2
*Active
 70
0
 10
0.0
 20
0.0
 11
1.0
 21
1.0
 12
0.0
 22
0.0
 13
0.0
 23
0.0
 14
0.5
 24
0.5
 15
0.5
 25
0.5
 16
0.0
 26
0.0
 36
1.0
 17
0.0
 27
0.0
 37
0.0
 40
1000.0
 41
1.34
 42
50.0
 43
0.0
 44
0.0
 50
0.0
 51
0.0
 71
0
 72
1000
 73
1
 74
3
 75
0
 76
0
 77
0
 78
0
281
0
 65
0
146
0.0
  0
ENDTAB
  0
TABLE
  2
LTYPE
  5
2
330
0
100
AcDbSymbolTable
 70
21
  0
LTYPE
  5
24
330
2
100
AcDbSymbolTableRecord
100
AcDbLinetypeTableRecord
  2
ByBlock
 70
0
  3

 72
65
 73
0
 40
0.0
  0
LTYPE
  5
25
330
2
100
AcDbSymbolTableRecord
100
AcDbLinetypeTableRecord
  2
ByLayer
 70
0
  3

 72
65
 73
0
 40
0.0
  0
LTYPE
  5
26
330
2
100
AcDbSymbolTableRecord
100
AcDbLinetypeTableRecord
  2
Continuous
 70
0
  3

 72
65
 73
0
 40
0.0
  0
LTYPE
  5
2F
330
2
100
AcDbSymbolTableRecord
100
AcDbLinetypeTableRecord
  2
CENTER
 70
0
  3
Center ____ _ ____ _ ____ _ ____ _ ____ _ ____
 72
65
 73
4
 40
5.08
 49
3.175
 74
0
 49
-0.635
 74
0
 49
0.635
 74
0
 49
-0.635
 74
0
  0
LTYPE
  5
30
330
2
100
AcDbSymbolTableRecord
100
AcDbLinetypeTableRecord
  2
CENTERX2
 70
0
  3
Center (2x) ________  __  ________  __  ________
 72
65
 73
4
 40
8.89
 49
6.35
 74
0
 49
-0.635
 74
0
 49
1.27
 74
0
 49
-0.635
 74
0
  0
LTYPE
  5
31
330
2
100
AcDbSymbolTableRecord
100
AcDbLinetypeTableRecord
  2
CENTER2
 70
0
  3
Center (.5x) ____ _ ____ _ ____ _ ____ _ ____
 72
65
 73
4
 40
2.54
 49
1.587
 74
0
 49
-0.318
 74
0
 49
0.318
 74
0
 49
-0.318
 74
0
  0
LTYPE
  5
32
330
2
100
AcDbSymbolTableRecord
100
AcDbLinetypeTableRecord
  2
DASHED
 70
0
  3
Dashed __ __ __ __ __ __ __ __ __ __ __ __ __ _
 72
65
 73
2
 40
1.524
 49
1.27
 74
0
 49
-0.254
 74
0
  0
LTYPE
  5
33
330
2
100
AcDbSymbolTableRecord
100
AcDbLinetypeTableRecord
  2
DASHEDX2
 70
0
  3
Dashed (2x) ____  ____  ____  ____  ____  ____
 72
65
 73
2
 40
3.048
 49
2.54
 74
0
 49
-0.508
 74
0
  0
LTYPE
  5
34
330
2
100
AcDbSymbolTableRecord
100
AcDbLinetypeTableRecord
  2
DASHED2
 70
0
  3
Dashed (.5x) _ _ _ _ _ _ _ _ _ _ _ _ _ _
 72
65
 73
2
 40
0.762
 49
0.635
 74
0
 49
-0.127
 74
0
  0
LTYPE
  5
35
330
2
100
AcDbSymbolTableRecord
100
AcDbLinetypeTableRecord
  2
PHANTOM
 70
0
  3
Phantom ______  __  __  ______  __  __  ______
 72
65
 73
6
 40
6.35
 49
3.175
 74
0
 49
-0.635
 74
0
 49
0.635
 74
0
 49
-0.635
 74
0
 49
0.635
 74
0
 49
-0.635
 74
0
  0
LTYPE
  5
36
330
2
100
AcDbSymbolTableRecord
100
AcDbLinetypeTableRecord
  2
PHANTOMX2
 70
0
  3
Phantom (2x)____________    ____    ____    ____________
 72
65
 73
6
 40
10.795
 49
6.35
 74
0
 49
-0.635
 74
0
 49
1.27
 74
0
 49
-0.635
 74
0
 49
1.27
 74
0
 49
-0.635
 74
0
  0
LTYPE
  5
37
330
2
100
AcDbSymbolTableRecord
100
AcDbLinetypeTableRecord
  2
PHANTOM2
 70
0
  3
Phantom (.5x) ___ _ _ ___ _ _ ___ _ _ ___ _ _ ___
 72
65
 73
6
 40
3.175
 49
1.587
 74
0
 49
-0.318
 74
0
 49
0.318
 74
0
 49
-0.318
 74
0
 49
0.318
 74
0
 49
-0.318
 74
0
  0
LTYPE
  5
38
330
2
100
AcDbSymbolTableRecord
100
AcDbLinetypeTableRecord
  2
DASHDOT
 70
0
  3
Dash dot __ . __ . __ . __ . __ . __ . __ . __
 72
65
 73
4
 40
3.556
 49
2.54
 74
0
 49
-0.508
 74
0
 49
0.0
 74
0
 49
-0.508
 74
0
  0
LTYPE
  5
39
330
2
100
AcDbSymbolTableRecord
100
AcDbLinetypeTableRecord
  2
DASHDOTX2
 70
0
  3
Dash dot (2x) ____  .  ____  .  ____  .  ____
 72
65
 73
4
 40
6.096
 49
5.08
 74
0
 49
-0.508
 74
0
 49
0.0
 74
0
 49
-0.508
 74
0
  0
LTYPE
  5
3A
330
2
100
AcDbSymbolTableRecord
100
AcDbLinetypeTableRecord
  2
DASHDOT2
 70
0
  3
Dash dot (.5x) _ . _ . _ . _ . _ . _ . _ . _
 72
65
 73
4
 40
1.778
 49
1.27
 74
0
 49
-0.254
 74
0
 49
0.0
 74
0
 49
-0.254
 74
0
  0
LTYPE
  5
3B
330
2
100
AcDbSymbolTableRecord
100
AcDbLinetypeTableRecord
  2
DOT
 70
0
  3
Dot .  .  .  .  .  .  .  .  .  .  .  .  .  .  .  .
 72
65
 73
2
 40
0.508
 49
0.0
 74
0
 49
-0.508
 74
0
  0
LTYPE
  5
3C
330
2
100
AcDbSymbolTableRecord
100
AcDbLinetypeTableRecord
  2
DOTX2
 70
0
  3
Dot (2x) .    .    .    .    .    .    .    . 
 72
65
 73
2
 40
1.016
 49
0.0
 74
0
 49
-1.016
 74
0
  0
LTYPE
  5
3D
330
2
100
AcDbSymbolTableRecord
100
AcDbLinetypeTableRecord
  2
DOT2
 70
0
  3
Dot (.5) . . . . . . . . . . . . . . . . . . . 
 72
65
 73
2
 40
0.254
 49
0.0
 74
0
 49
-0.254
 74
0
  0
LTYPE
  5
3E
330
2
100
AcDbSymbolTableRecord
100
AcDbLinetypeTableRecord
  2
DIVIDE
 70
0
  3
Divide __ . . __ . . __ . . __ . . __ . . __
 72
65
 73
6
 40
4.064
 49
2.54
 74
0
 49
-0.508
 74
0
 49
0.0
 74
0
 49
-0.508
 74
0
 49
0.0
 74
0
 49
-0.508
 74
0
  0
LTYPE
  5
3F
330
2
100
AcDbSymbolTableRecord
100
AcDbLinetypeTableRecord
  2
DIVIDEX2
 70
0
  3
Divide (2x) ____  . .  ____  . .  ____  . .  ____
 72
65
 73
6
 40
6.604
 49
5.08
 74
0
 49
-0.508
 74
0
 49
0.0
 74
0
 49
-0.508
 74
0
 49
0.0
 74
0
 49
-0.508
 74
0
  0
LTYPE
  5
40
330
2
100
AcDbSymbolTableRecord
100
AcDbLinetypeTableRecord
  2
DIVIDE2
 70
0
  3
Divide(.5x) _ . _ . _ . _ . _ . _ . _ . _
 72
65
 73
6
 40
2.032
 49
1.27
 74
0
 49
-0.254
 74
0
 49
0.0
 74
0
 49
-0.254
 74
0
 49
0.0
 74
0
 49
-0.254
 74
0
  0
ENDTAB
  0
TABLE
  2
LAYER
  5
1
330
0
100
AcDbSymbolTable
 70
5
  0
LAYER
  5
27
330
1
100
AcDbSymbolTableRecord
100
AcDbLayerTableRecord
  2
0
 70
0
 62
7
  6
Continuous
370
-3
390
13
347
21
  0
LAYER
  5
28
330
1
100
AcDbSymbolTableRecord
100
AcDbLayerTableRecord
  2
Defpoints
 70
0
 62
7
  6
Continuous
290
0
370
-3
390
13
347
21
  0
LAYER
  5
8A
330
1
100
AcDbSymbolTableRecord
100
AcDbLayerTableRecord
  2
CUT
 70
0
 62
7
  6
CONTINUOUS
370
-3
390
13
347
21
  0
LAYER
  5
8B
330
1
100
AcDbSymbolTableRecord
100
AcDbLayerTableRecord
  2
BEND
 70
0
 62
1
  6
DASHED
370
-3
390
13
347
21
  0
LAYER
  5
8C
330
1
100
AcDbSymbolTableRecord
100
AcDbLayerTableRecord
  2
TEXT
 70
0
 62
3
  6
CONTINUOUS
370
-3
390
13
347
21
  0
ENDTAB
  0
TABLE
  2
STYLE
  5
5
330
0
100
AcDbSymbolTable
 70
26
  0
STYLE
  5
29
330
5
100
AcDbSymbolTableRecord
100
AcDbTextStyleTableRecord
  2
Standard
 70
0
 40
0.0
 41
1.0
 50
0.0
 71
0
 42
2.5
  3
txt
  4

  0
STYLE
  5
41
330
5
100
AcDbSymbolTableRecord
100
AcDbTextStyleTableRecord
  2
OpenSans-Light
 70
0
 40
0.0
 41
1.0
 50
0.0
 71
0
 42
2.5
  3
OpenSans-Light.ttf
  4

  0
STYLE
  5
42
330
5
100
AcDbSymbolTableRecord
100
AcDbTextStyleTableRecord
  2
OpenSans-Light-Italic
 70
0
 40
0.0
 41
1.0
 50
0.0
 71
0
 42
2.5
  3
OpenSans-LightItalic.ttf
  4

  0
STYLE
  5
43
330
5
100
AcDbSymbolTableRecord
100
AcDbTextStyleTableRecord
  2
OpenSans
 70
0
 40
0.0
 41
1.0
 50
0.0
 71
0
 42
2.5
  3
OpenSans-Regular.ttf
  4

  0
STYLE
  5
44
330
5
100
AcDbSymbolTableRecord
100
AcDbTextStyleTableRecord
  2
OpenSans-Italic
 70
0
 40
0.0
 41
1.0
 50
0.0
 71
0
 42
2.5
  3
OpenSans-Italic.ttf
  4

  0
STYLE
  5
45
330
5
100
AcDbSymbolTableRecord
100
AcDbTextStyleTableRecord
  2
OpenSans-SemiBold
 70
0
 40
0.0
 41
1.0
 50
0.0
 71
0
 42
2.5
  3
OpenSans-SemiBold.ttf
  4

  0
STYLE
  5
46
330
5
100
AcDbSymbolTableRecord
100
AcDbTextStyleTableRecord
  2
OpenSans-SemiBoldItalic
 70
0
 40
0.0
 41
1.0
 50
0.0
 71
0
 42
2.5
  3
OpenSans-SemiBoldItalic.ttf
  4

  0
STYLE
  5
47
330
5
100
AcDbSymbolTableRecord
100
AcDbTextStyleTableRecord
  2
OpenSans-Bold
 70
0
 40
0.0
 41
1.0
 50
0.0
 71
0
 42
2.5
  3
OpenSans-Bold.ttf
  4

  0
STYLE
  5
48
330
5
100
AcDbSymbolTableRecord
100
AcDbTextStyleTableRecord
  2
OpenSans-BoldItalic
 70
0
 40
0.0
 41
1.0
 50
0.0
 71
0
 42
2.5
  3
OpenSans-BoldItalic.ttf
  4

  0
STYLE
  5
49
330
5
100
AcDbSymbolTableRecord
100
AcDbTextStyleTableRecord
  2
OpenSans-ExtraBold
 70
0
 40
0.0
 41
1.0
 50
0.0
 71
0
 42
2.5
  3
OpenSans-ExtraBold.ttf
  4

  0
STYLE
  5
4A
330
5
100
AcDbSymbolTableRecord
100
AcDbTextStyleTableRecord
  2
OpenSans-ExtraBoldItalic
 70
0
 40
0.0
 41
1.0
 50
0.0
 71
0
 42
2.5
  3
OpenSans-ExtraBoldItalic.ttf
  4

  0
STYLE
  5
4B
330
5
100
AcDbSymbolTableRecord
100
AcDbTextStyleTableRecord
  2
OpenSansCondensed-Bold
 70
0
 40
0.0
 41
1.0
 50
0.0
 71
0
 42
2.5
  3
OpenSansCondensed-Bold.ttf
  4

  0
STYLE
  5
4C
330
5
100
AcDbSymbolTableRecord
100
AcDbTextStyleTableRecord
  2
OpenSansCondensed-Light
 70
0
 40
0.0
 41
1.0
 50
0.0
 71
0
 42
2.5
  3
OpenSansCondensed-Light.ttf
  4

  0
STYLE
  5
4D
330
5
100
AcDbSymbolTableRecord
100
AcDbTextStyleTableRecord
  2
OpenSansCondensed-Italic
 70
0
 40
0.0
 41
1.0
 50
0.0
 71
0
 42
2.5
  3
OpenSansCondensed-LightItalic.ttf
  4

  0
STYLE
  5
4E
330
5
100
AcDbSymbolTableRecord
100
AcDbTextStyleTableRecord
  2
LiberationSans
 70
0
 40
0.0
 41
1.0
 50
0.0
 71
0
 42
2.5
  3
LiberationSans-Regular.ttf
  4

  0
STYLE
  5
4F
330
5
100
AcDbSymbolTableRecord
100
AcDbTextStyleTableRecord
  2
LiberationSans-Bold
 70
0
 40
0.0
 41
1.0
 50
0.0
 71
0
 42
2.5
  3
LiberationSans-Bold.ttf
  4

  0
STYLE
  5
50
330
5
100
AcDbSymbolTableRecord
100
AcDbTextStyleTableRecord
  2
LiberationSans-BoldItalic
 70
0
 40
0.0
 41
1.0
 50
0.0
 71
0
 42
2.5
  3
LiberationSans-BoldItalic.ttf
  4

  0
STYLE
  5
51
330
5
100
AcDbSymbolTableRecord
100
AcDbTextStyleTableRecord
  2
LiberationSans-Italic
 70
0
 40
0.0
 41
1.0
 50
0.0
 71
0
 42
2.5
  3
LiberationSans-Italic.ttf
  4

  0
STYLE
  5
52
330
5
100
AcDbSymbolTableRecord
100
AcDbTextStyleTableRecord
  2
LiberationSerif
 70
0
 40
0.0
 41
1.0
 50
0.0
 71
0
 42
2.5
  3
LiberationSerif-Regular.ttf
  4

  0
STYLE
  5
53
330
5
100
AcDbSymbolTableRecord
100
AcDbTextStyleTableRecord
  2
LiberationSerif-Bold
 70
0
 40
0.0
 41
1.0
 50
0.0
 71
0
 42
2.5
  3
LiberationSerif-Bold.ttf
  4

  0
STYLE
  5
54
330
5
100
AcDbSymbolTableRecord
100
AcDbTextStyleTableRecord
  2
LiberationSerif-BoldItalic
 70
0
 40
0.0
 41
1.0
 50
0.0
 71
0
 42
2.5
  3
LiberationSerif-BoldItalic.ttf
  4

  0
STYLE
  5
55
330
5
100
AcDbSymbolTableRecord
100
AcDbTextStyleTableRecord
  2
LiberationSerif-Italic
 70
0
 40
0.0
 41
1.0
 50
0.0
 71
0
 42
2.5
  3
LiberationSerif-Italic.ttf
  4

  0
STYLE
  5
56
330
5
100
AcDbSymbolTableRecord
100
AcDbTextStyleTableRecord
  2
LiberationMono
 70
0
 40
0.0
 41
1.0
 50
0.0
 71
0
 42
2.5
  3
LiberationMono-Regular.ttf
  4

  0
STYLE
  5
57
330
5
100
AcDbSymbolTableRecord
100
AcDbTextStyleTableRecord
  2
LiberationMono-Bold
 70
0
 40
0.0
 41
1.0
 50
0.0
 71
0
 42
2.5
  3
LiberationMono-Bold.ttf
  4

  0
STYLE
  5
58
330
5
100
AcDbSymbolTableRecord
100
AcDbTextStyleTableRecord
  2
LiberationMono-BoldItalic
 70
0
 40
0.0
 41
1.0
 50
0.0
 71
0
 42
2.5
  3
LiberationMono-BoldItalic.ttf
  4

  0
STYLE
  5
59
330
5
100
AcDbSymbolTableRecord
100
AcDbTextStyleTableRecord
  2
LiberationMono-Italic
 70
0
 40
0.0
 41
1.0
 50
0.0
 71
0
 42
2.5
  3
LiberationMono-Italic.ttf
  4

  0
ENDTAB
  0
TABLE
  2
VIEW
  5
7
330
0
100
AcDbSymbolTable
 70
0
  0
ENDTAB
  0
TABLE
  2
UCS
  5
6
330
0
100
AcDbSymbolTable
 70
0
  0
ENDTAB
  0
TABLE
  2
APPID
  5
3
330
0
100
AcDbSymbolTable
 70
3
  0
APPID
  5
2A
330
3
100
AcDbSymbolTableRecord
100
AcDbRegAppTableRecord
  2
ACAD
 70
0
  0
APPID
  5
96
330
3
100
AcDbSymbolTableRecord
100
AcDbRegAppTableRecord
  2
HATCHBACKGROUNDCOLOR
 70
0
  0
APPID
  5
97
330
3
100
AcDbSymbolTableRecord
100
AcDbRegAppTableRecord
  2
EZDXF
 70
0
  0
ENDTAB
  0
TABLE
  2
DIMSTYLE
  5
4
330
0
100
AcDbSymbolTable
 70
12
100
AcDbDimStyleTable
  0
DIMSTYLE
105
2B
330
4
100
AcDbSymbolTableRecord
100
AcDbDimStyleTableRecord
  2
Standard
 70
0
 40
1.0
 41
2.5
 42
0.625
 43
3.75
 44
1.25
 45
0.0
 46
0.0
 47
0.0
 48
0.0
 49
2.5
140
2.5
141
2.5
142
0.0
143
0.03937007874
144
1.0
145
0.0
146
1.0
147
0.625
148
0.0
 69
0
 70
0
 71
0
 72
0
 73
0
 74
0
 75
0
 76
0
 77
1
 78
8
 79
3
170
0
171
3
172
1
173
0
174
0
175
0
176
0
177
0
178
0
179
2
271
2
272
2
273
2
274
3
275
0
276
0
277
2
278
44
279
0
280
0
281
0
282
0
283
0
284
8
285
0
286
0
288
0
289
3
290
0
371
-2
372
-2
  0
DIMSTYLE
105
73
330
4
100
AcDbSymbolTableRecord
100
AcDbDimStyleTableRecord
  2
EZDXF
 70
0
 40
1.0
 41
0.175
 42
0.125
 43
3.75
 44
0.375
 45
0.0
 46
0.0
 47
0.0
 48
0.0
 49
2.5
140
0.25
141
2.5
142
0.0
143
0.03937007874
144
100.0
145
0.0
146
0.5
147
0.1
148
0.0
 69
0
 70
0
 71
0
 72
0
 73
0
 74
0
 75
0
 76
0
 77
1
 78
12
 79
3
170
0
171
3
172
1
173
0
174
0
175
0
176
0
177
0
178
0
179
2
271
2
272
2
273
2
274
3
275
0
276
0
277
2
278
46
279
2
280
0
281
0
282
0
283
0
284
8
285
0
286
0
288
1
289
3
290
0
340
4C
342
74
371
-2
372
-2
  0
DIMSTYLE
105
7C
330
4
100
AcDbSymbolTableRecord
100
AcDbDimStyleTableRecord
  2
EZ_M_100_H25_CM
 70
0
 40
1.0
 41
0.25
 42
0.125
 43
3.75
 44
0.375
 45
0.0
 46
0.0
 47
0.0
 48
0.0
 49
2.5
140
0.25
141
2.5
142
0.125
143
0.03937007874
144
100.0
145
0.0
146
0.5
147
0.1
148
0.0
 69
0
 70
0
 71
0
 72
0
 73
0
 74
0
 75
0
 76
0
 77
1
 78
12
 79
3
170
0
171
3
172
1
173
0
174
0
175
0
176
0
177
0
178
0
179
2
271
2
272
2
273
2
274
3
275
0
276
0
277
2
278
46
279
2
280
0
281
0
282
0
283
0
284
8
285
0
286
0
288
1
289
3
290
0
340
4C
371
-2
372
-2
  0
DIMSTYLE
105
7D
330
4
100
AcDbSymbolTableRecord
100
AcDbDimStyleTableRecord
  2
EZ_M_50_H25_CM
 70
0
 40
1.0
 41
0.125
 42
0.0625
 43
3.75
 44
0.1875
 45
0.0
 46
0.0
 47
0.0
 48
0.0
 49
2.5
140
0.125
141
2.5
142
0.0625
143
0.03937007874
144
100.0
145
0.0
146
0.5
147
0.05
148
0.0
 69
0
 70
0
 71
0
 72
0
 73
0
 74
0
 75
0
 76
0
 77
1
 78
12
 79
3
170
0
171
3
172
1
173
0
174
0
175
0
176
0
177
0
178
0
179
2
271
2
272
2
273
2
274
3
275
0
276
0
277
2
278
46
279
2
280
0
281
0
282
0
283
0
284
8
285
0
286
0
288
1
289
3
290
0
340
4C
371
-2
372
-2
  0
DIMSTYLE
105
7E
330
4
100
AcDbSymbolTableRecord
100
AcDbDimStyleTableRecord
  2
EZ_M_25_H25_CM
 70
0
 40
1.0
 41
0.0625
 42
0.03125
 43
3.75
 44
0.09375
 45
0.0
 46
0.0
 47
0.0
 48
0.0
 49
2.5
140
0.0625
141
2.5
142
0.03125
143
0.03937007874
144
100.0
145
0.0
146
0.5
147
0.025
148
0.0
 69
0
 70
0
 71
0
 72
0
 73
0
 74
0
 75
0
 76
0
 77
1
 78
12
 79
3
170
0
171
3
172
1
173
0
174
0
175
0
176
0
177
0
178
0
179
2
271
2
272
2
273
2
274
3
275
0
276
0
277
2
278
46
279
2
280
0
281
0
282
0
283
0
284
8
285
0
286
0
288
1
289
3
290
0
340
4C
371
-2
372
-2
  0
DIMSTYLE
105
7F
330
4
100
AcDbSymbolTableRecord
100
AcDbDimStyleTableRecord
  2
EZ_M_20_H25_CM
 70
0
 40
1.0
 41
0.05
 42
0.025
 43
3.75
 44
0.07500000000000001
 45
0.0
 46
0.0
 47
0.0
 48
0.0
 49
2.5
140
0.05
141
2.5
142
0.025
143
0.03937007874
144
100.0
145
0.0
146
0.5
147
0.020000000000000004
148
0.0
 69
0
 70
0
 71
0
 72
0
 73
0
 74
0
 75
0
 76
0
 77
1
 78
12
 79
3
170
0
171
3
172
1
173
0
174
0
175
0
176
0
177
0
178
0
179
2
271
2
272
2
273
2
274
3
275
0
276
0
277
2
278
46
279
2
280
0
281
0
282
0
283
0
284
8
285
0
286
0
288
1
289
3
290
0
340
4C
371
-2
372
-2
  0
DIMSTYLE
105
80
330
4
100
AcDbSymbolTableRecord
100
AcDbDimStyleTableRecord
  2
EZ_M_10_H25_CM
 70
0
 40
1.0
 41
0.025
 42
0.0125
 43
3.75
 44
0.037500000000000006
 45
0.0
 46
0.0
 47
0.0
 48
0.0
 49
2.5
140
0.025
141
2.5
142
0.0125
143
0.03937007874
144
100.0
145
0.0
146
0.5
147
0.010000000000000002
148
0.0
 69
0
 70
0
 71
0
 72
0
 73
0
 74
0
 75
0
 76
0
 77
1
 78
12
 79
3
170
0
171
3
172
1
173
0
174
0
175
0
176
0
177
0
178
0
179
2
271
2
272
2
273
2
274
3
275
0
276
0
277
2
278
46
279
2
280
0
281
0
282
0
283
0
284
8
285
0
286
0
288
1
289
3
290
0
340
4C
371
-2
372
-2
  0
DIMSTYLE
105
81
330
4
100
AcDbSymbolTableRecord
100
AcDbDimStyleTableRecord
  2
EZ_M_5_H25_CM
 70
0
 40
1.0
 41
0.0125
 42
0.00625
 43
3.75
 44
0.018750000000000003
 45
0.0
 46
0.0
 47
0.0
 48
0.0
 49
2.5
140
0.0125
141
2.5
142
0.00625
143
0.03937007874
144
100.0
145
0.0
146
0.5
147
0.005000000000000001
148
0.0
 69
0
 70
0
 71
0
 72
0
 73
0
 74
0
 75
0
 76
0
 77
1
 78
12
 79
3
170
0
171
3
172
1
173
0
174
0
175
0
176
0
177
0
178
0
179
2
271
2
272
2
273
2
274
3
275
0
276
0
277
2
278
46
279
2
280
0
281
0
282
0
283
0
284
8
285
0
286
0
288
1
289
3
290
0
340
4C
371
-2
372
-2
  0
DIMSTYLE
105
82
330
4
100
AcDbSymbolTableRecord
100
AcDbDimStyleTableRecord
  2
EZ_M_1_H25_CM
 70
0
 40
1.0
 41
0.0025
 42
0.00125
 43
3.75
 44
0.00375
 45
0.0
 46
0.0
 47
0.0
 48
0.0
 49
2.5
140
0.0025
141
2.5
142
0.00125
143
0.03937007874
144
100.0
145
0.0
146
0.5
147
0.001
148
0.0
 69
0
 70
0
 71
0
 72
0
 73
0
 74
0
 75
0
 76
0
 77
1
 78
12
 79
3
170
0
171
3
172
1
173
0
174
0
175
0
176
0
177
0
178
0
179
2
271
2
272
2
273
2
274
3
275
0
276
0
277
2
278
46
279
2
280
0
281
0
282
0
283
0
284
8
285
0
286
0
288
1
289
3
290
0
340
4C
371
-2
372
-2
  0
DIMSTYLE
105
83
330
4
100
AcDbSymbolTableRecord
100
AcDbDimStyleTableRecord
  2
EZ_RADIUS
 70
0
 40
1.0
 41
0.25
 42
0.125
 43
3.75
 44
0.375
 45
0.0
 46
0.0
 47
0.0
 48
0.0
 49
2.5
140
0.25
141
0.0
142
0.0
143
0.03937007874
144
100.0
145
0.0
146
0.5
147
0.1
148
0.0
 69
0
 70
0
 71
0
 72
0
 73
0
 74
0
 75
0
 76
0
 77
1
 78
12
 79
3
170
0
171
3
172
0
173
0
174
0
175
0
176
0
177
0
178
0
179
2
271
2
272
2
273
2
274
3
275
0
276
0
277
2
278
46
279
1
280
0
281
0
282
0
283
0
284
8
285
0
286
0
288
1
289
3
290
0
340
4C
342
84
371
-2
372
-2
  0
DIMSTYLE
105
88
330
4
100
AcDbSymbolTableRecord
100
AcDbDimStyleTableRecord
  2
EZ_RADIUS_INSIDE
 70
0
 40
1.0
 41
0.25
 42
0.125
 43
3.75
 44
0.375
 45
0.0
 46
0.0
 47
0.0
 48
0.0
 49
2.5
140
0.25
141
0.0
142
0.0
143
0.03937007874
144
100.0
145
0.0
146
0.5
147
0.1
148
0.0
 69
0
 70
0
 71
0
 72
0
 73
0
 74
0
 75
0
 76
0
 77
0
 78
12
 79
3
170
0
171
3
172
0
173
0
174
1
175
0
176
0
177
0
178
0
179
2
271
2
272
2
273
2
274
3
275
0
276
0
277
2
278
46
279
0
280
0
281
0
282
0
283
0
284
8
285
0
286
0
288
1
289
0
290
0
340
4C
342
84
371
-2
372
-2
  0
DIMSTYLE
105
89
330
4
100
AcDbSymbolTableRecord
100
AcDbDimStyleTableRecord
  2
EZ_CURVED
 70
0
 40
1.0
 41
0.25
 42
0.125
 43
3.75
 44
0.375
 45
0.0
 46
0.0
 47
0.0
 48
0.0
 49
2.5
140
0.25
141
2.5
142
0.0
143
0.03937007874
144
100.0
145
0.0
146
0.5
147
0.1
148
0.0
 69
0
 70
0
 71
0
 72
0
 73
0
 74
0
 75
0
 76
0
 77
1
 78
12
 79
2
 90
2
170
0
171
3
172
1
173
0
174
0
175
0
176
0
177
0
178
0
179
2
271
2
272
2
273
2
274
3
275
0
276
0
277
2
278
46
279
2
280
0
281
0
282
0
283
0
284
8
285
0
286
0
288
1
289
3
290
0
340
4C
371
-2
372
-2
  0
ENDTAB
  0
TABLE
  2
BLOCK_RECORD
  5
9
330
0
100
AcDbSymbolTable
 70
5
  0
BLOCK_RECORD
  5
17
330
9
100
AcDbSymbolTableRecord
100
AcDbBlockTableRecord
  2
*Model_Space
340
1A
 70
0
280
1
281
0
  0
BLOCK_RECORD
  5
1B
330
9
100
AcDbSymbolTableRecord
100
AcDbBlockTableRecord
  2
*Paper_Space
340
1E
 70
0
280
1
281
0
  0
BLOCK_RECORD
  5
74
330
9
100
AcDbSymbolTableRecord
100
AcDbBlockTableRecord
  2
_ARCHTICK
340
0
 70
0
280
1
281
0
  0
BLOCK_RECORD
  5
78
330
9
100
AcDbSymbolTableRecord
100
AcDbBlockTableRecord
  2
_CLOSEDFILLED
340
0
 70
0
280
1
281
0
  0
BLOCK_RECORD
  5
84
330
9
100
AcDbSymbolTableRecord
100
AcDbBlockTableRecord
  2
_CLOSEDBLANK
340
0
 70
0
280
1
281
0
  0
ENDTAB
  0
ENDSEC
  0
SECTION
  2
BLOCKS
  0
BLOCK
  5
18
330
17
100
AcDbEntity
  8
0
100
AcDbBlockBegin
  2
*Model_Space
 70
0
 10
0.0
 20
0.0
 30
0.0
  3
*Model_Space
  1

  0
ENDBLK
  5
19
330
17
100
AcDbEntity
  8
0
100
AcDbBlockEnd
  0
BLOCK
  5
1C
330
1B
100
AcDbEntity
  8
0
100
AcDbBlockBegin
  2
*Paper_Space
 70
0
 10
0.0
 20
0.0
 30
0.0
  3
*Paper_Space
  1

  0
ENDBLK
  5
1D
330
1B
100
AcDbEntity
  8
0
100
AcDbBlockEnd
  0
BLOCK
  5
75
330
74
100
AcDbEntity
  8
0
100
AcDbBlockBegin
  2
_ARCHTICK
 70
0
 10
0.0
 20
0.0
 30
0.0
  3
_ARCHTICK
  1

  0
LWPOLYLINE
  5
77
330
74
100
AcDbEntity
  8
0
  6
BYBLOCK
 62
0
100
AcDbPolyline
 90
2
 70
0
 43
0.15
 10
-0.5
 20
-0.5
 10
0.5
 20
0.5
  0
ENDBLK
  5
76
330
74
100
AcDbEntity
  8
0
100
AcDbBlockEnd
  0
BLOCK
  5
79
330
78
100
AcDbEntity
  8
0
100
AcDbBlockBegin
  2
_CLOSEDFILLED
 70
0
 10
0.0
 20
0.0
 30
0.0
  3
_CLOSEDFILLED
  1

  0
SOLID
  5
7B
330
78
100
AcDbEntity
  8
0
  6
BYBLOCK
 62
0
100
AcDbTrace
 10
-1.0
 20
0.16439898372402537
 30
0.0
 11
0.0
 21
0.0
 31
0.0
 12
-1.0
 22
-0.16439898372402537
 32
0.0
 13
-1.0
 23
-0.16439898372402537
 33
0.0
  0
ENDBLK
  5
7A
330
78
100
AcDbEntity
  8
0
100
AcDbBlockEnd
  0
BLOCK
  5
85
330
84
100
AcDbEntity
  8
0
100
AcDbBlockBegin
  2
_CLOSEDBLANK
 70
0
 10
0.0
 20
0.0
 30
0.0
  3
_CLOSEDBLANK
  1

  0
LWPOLYLINE
  5
87
330
84
100
AcDbEntity
  8
0
  6
BYBLOCK
 62
0
100
AcDbPolyline
 90
3
 70
1
 10
-1.0
 20
0.16439898372402537
 10
0.0
 20
0.0
 10
-1.0
 20
-0.16439898372402537
  0
ENDBLK
  5
86
330
84
100
AcDbEntity
  8
0
100
AcDbBlockEnd
  0
ENDSEC
  0
SECTION
  2
ENTITIES
  0
LWPOLYLINE
  5
8D
330
17
100
AcDbEntity
  8
CUT
100
AcDbPolyline
 90
782
 70
1
 10
0.0
 20
9.10759881812646
 10
3.982391047152589e-06
 20
9.107624338389446
 10
0.013293577317670113
 20
9.170874816498861
 10
0.01329971543324504
 20
9.170898268911106
 10
0.013312372190676491
 20
9.170918944950232
 10
0.03168001392454389
 20
9.197871462711886
 10
0.03172062345167603
 20
9.197923337459413
 10
0.9487767541552028
 20
10.222274335488736
 10
0.9488234551768526
 20
10.222320085792694
 10
0.9735799323568148
 20
10.243582705306128
 10
0.9735992049299833
 20
10.243597675343716
 10
0.9736219999888842
 20
10.243606388517161
 10
1.0350754546957832
 20
10.263691176153076
 10
1.0350987490989727
 20
10.263697552546722
 10
1.0351228928925664
 20
10.263696948521147
 10
1.0675739928448031
 20
10.261300559601597
 10
1.0675982747547401
 20
10.26129755630934
 10
1.067620623799411
 20
10.261287598843936
 10
1.125279141890597
 20
10.232108591421706
 10
1.1252981020870871
 20
10.2320979333582
 10
1.12531485573514
 20
10.232084192633778
 10
2.2348971854416106
 20
9.238700012451362
 10
2.234900028081178
 20
9.238697477236215
 10
2.402204754905518
 20
9.09005743357314
 10
2.402213446042288
 20
9.090049801506995
 10
2.4872449127758545
 20
9.016246548564295
 10
2.48725473296396
 20
9.01623813581477
 10
2.5733878000109662
 20
8.94341003786006
 10
2.5734007883298187
 20
8.943399242609939
 10
2.6607693967579293
 20
8.872021557611188
 10
2.6607857374872985
 20
8.872008490343896
 10
2.7495247406815833
 20
8.80255561365786
 10
2.749544665366288
 20
8.802540417988284
 10
2.8397920292029424
 20
8.735484360207934
 10
2.839809380733684
 20
8.73547175411839
 10
2.8855352886388896
 20
8.702994765402613
 10
2.8855481904474427
 20
8.702985753736826
 10
2.9317037092731364
 20
8.671284445596008
 10
2.931717668056093
 20
8.671275030154
 10
2.9783168716389765
 20
8.640410646644296
 10
2.9783319259339027
 20
8.640400868879517
 10
3.025391658664082
 20
8.610432680840693
 10
3.0254078464314524
 20
8.610422587997517
 10
3.0729449537384004
 20
8.581409860228344
 10
3.072962311413156
 20
8.581399505822889
 10
3.1209936407865575
 20
8.553401496632663
 10
3.1210122021831004
 20
8.553390940862004
 10
3.169554604341757
 20
8.526466901710151
 10
3.169574399411506
 20
8.526456211755391
 10
3.2186447296162988
 20
8.500665387016898
 10
3.2186657830650143
 20
8.500654637200682
 10
3.2682809025646598
 20
8.4760562640982
 10
3.2683032323472005
 20
8.476045535853634
 10
3.3184800099320655
 20
8.452698844600835
 10
3.3185036256548788
 20
8.45268822620726
 10
3.3692589392822576
 20
8.430652440407314
 10
3.369283840558413
 20
8.430642026449709
 10
3.4206346145257207
 20
8.40997634949151
 10
3.4206607175245662
 20
8.409966266595525
 10
3.4726217936071264
 20
8.390726151169284
 10
3.4726480205000407
 20
8.390716852735409
 10
3.5251962600895315
 20
8.372905551037533
 10
3.5252217819844978
 20
8.372897280351413
 10
3.5783044016926535
 20
8.356478708128924
 10
3.578329177455875
 20
8.35647139419243
 10
3.631892254854016
 20
8.341408628126793
 10
3.631916272192463
 20
8.341402195177242
 10
3.685905866474871
 20
8.327658312377697
 10
3.685929120801339
 20
8.327652687957414
 10
3.7402912840247176
 20
8.315190761968772
 10
3.740313777322135
 20
8.315185877403568
 10
3.7949945555015057
 20
8.303968977819057
 10
3.7950162952716537
 20
8.30396476852103
 10
3.8499617293850306
 20
8.293955960754605
 10
3.849982727694043
 20
8.293952366381124
 10
3.9051388545846866
 20
8.285114711569072
 10
3.905159127214801
 20
8.28511167606652
 10
3.960471870176522
 20
8.277408246644063
 10
3.9604916570706705
 20
8.277405691859775
 10
4.0159127629402285
 20
8.270811375900331
 10
4.015932894795773
 20
8.27080918698636
 10
4.071437133550036
 20
8.26534231571105
 10
4.071457803200504
 20
8.26534049617506
 10
4.127025666641048
 20
8.26102936653313
 10
4.127046875371532
 20
8.261027947683672
 10
4.182658952669565
 20
8.257900843922538
 10
4.182680699078432
 20
8.25789985842068
 10
4.238317582245427
 20
8.255985063511279
 10
4.238339861938226
 20
8.255984545208694
 10
4.293982146133676
 20
8.255310341028752
 10
4.29400495141485
 20
8.255310324762288
 10
4.349633235252993
 20
8.255904992324897
 10
4.349656554822093
 20
8.255905513664189
 10
4.405251440670247
 20
8.257797333394768
 10
4.4052752593306135
 20
8.257798428340253
 10
4.460817350226975
 20
8.261015680209177
 10
4.4608416553304675
 20
8.261017385392298
 10
4.516310585231123
 20
8.265588645272148
 10
4.5163354720693345
 20
8.265591009757868
 10
4.571695615663447
 20
8.27154985133799
 10
4.571721177768389
 20
8.271552936168927
 10
4.626924411669648
 20
8.27893706049537
 10
4.626950653108187
 20
8.278940925525509
 10
4.681948528181294
 20
8.287788157401806
 10
4.681975443784344
 20
8.28779286528587
 10
4.736719519199499
 20
8.298141026878428
 10
4.736747096421318
 20
8.298146642778633
 10
4.791188939189314
 20
8.310033554070579
 10
4.791217157189795
 20
8.310040144968859
 10
4.845308343078577
 20
8.323503624539182
 10
4.845337171814865
 20
8.323511258362839
 10
4.899029286238074
 20
8.33858912436
 10
4.899058685603956
 20
8.338597868906078
 10
4.952303315208943
 20
8.355327937327491
 10
4.952333252532367
 20
8.355337865355885
 10
5.005079499379999
 20
8.373758226669677
 10
5.005110257480132
 20
8.373769536993994
 10
5.057265534649743
 20
8.393924179395729
 10
5.057297395638645
 20
8.393937125590226
 10
5.108733406774485
 20
8.415875210864497
 10
5.108766373258302
 20
8.415889980809597
 10
5.159353801468326
 20
8.439660872859216
 10
5.159387839640171
 20
8.439677663111036
 10
5.208997402577124
 20
8.465330717239764
 10
5.209032445875383
 20
8.465349732882537
 10
5.257534896944064
 20
8.492934298216824
 10
5.257570840172122
 20
8.49295574779696
 10
5.304836974395165
 20
8.522521173317797
 10
5.304873667986382
 20
8.522545261788324
 10
5.350774327626203
 20
8.554140904600995
 10
5.350811572294808
 20
8.554167823786063
 10
5.395217921372011
 20
8.587843232308774
 10
5.3952549634682505
 20
8.587872730092506
 10
5.438052751948977
 20
8.623642108755563
 10
5.43808796203095
 20
8.623672964795631
 10
5.4792041743174575
 20
8.661442538281985
 10
5.479237341598864
 20
8.661474443946027
 10
5.518605874714107
 20
8.701129660967105
 10
5.518637086184059
 20
8.701162559152102
 10
5.556191695394235
 20
8.742588723281441
 10
5.556221034759734
 20
8.74262258152135
 10
5.5918954805499865
 20
8.785704972799211
 10
5.591923024470062
 20
8.785739780962416
 10
5.625651076006175
 20
8.830363658270958
 10
5.625676890918248
 20
8.830399426139683
 10
5.657392328979153
 20
8.876450029662788
 10
5.6574164683916495
 20
8.87648678445067
 10
5.687053140842438
 20
8.923849422803222
 10
5.687075544655552
 20
8.923887032988269
 10
5.714581208604636
 20
8.972448963281176
 10
5.7146013789089025
 20
8.97248640982147
 10
5.740001375688559
 20
9.022143258934001
 10
5.7400192493676245
 20
9.022180037822384
 10
5.763366053172037
 20
9.072829874808871
 10
5.763381786472427
 20
9.072865848893585
 10
5.784727797740171
 20
9.124406540316112
 10
5.784741553420738
 20
9.12444160806739
 10
5.804139169192488
 20
9.176770986687899
 10
5.804151110591139
 20
9.17680507833834
 10
5.821652729667982
 20
9.229820947025019
 10
5.821663016281791
 20
9.229854020702597
 10
5.837321043044312
 20
9.283454156367867
 10
5.837329827279561
 20
9.283486194148502
 10
5.85119667388055
 20
9.337568349552573
 10
5.85120409974611
 20
9.337599357877929
 10
5.8633320095092625
 20
9.392061569115306
 10
5.863338252744527
 20
9.392091796804143
 10
5.873770682712899
 20
9.446855695753658
 10
5.87377589120205
 20
9.446885479849374
 10
5.8825429943475145
 20
9.501908983005407
 10
5.882547223312016
 20
9.501938315392598
 10
5.889678075213181
 20
9.557182557553189
 10
5.88968137397514
 20
9.557211406982503
 10
5.895205052649976
 20
9.612637531053723
 10
5.895207470629356
 20
9.612665873375697
 10
5.899153054370089
 20
9.668235015404099
 10
5.899154640365674
 20
9.668262833071601
 10
5.901551208402278
 20
9.72393612276521
 10
5.901552009983101
 20
9.723963404293494
 10
5.902428643038476
 20
9.779701965574114
 10
5.902428706040693
 20
9.779728704979767
 10
5.901814486802598
 20
9.835493654862313
 10
5.901813854798677
 20
9.835519854466297
 10
5.899737686574055
 20
9.891272135916173
 10
5.899736388028817
 20
9.891297997425383
 10
5.896216341610911
 20
9.946994297803673
 10
5.896214372044727
 20
9.947020137771766
 10
5.891251869871605
 20
10.00261093195034
 10
5.8912492220934585
 20
10.002636792628648
 10
5.8848442700473065
 20
10.058072171489444
 10
5.884840934755593
 20
10.05809806862568
 10
5.876993540955685
 20
10.113328136828997
 10
5.876989505823145
 20
10.113354085088051
 10
5.867699681390107
 20
10.168328948514368
 10
5.867694931115594
 20
10.168354961202734
 10
5.856962690113284
 20
10.223024727235423
 10
5.856957206486939
 20
10.223050816011156
 10
5.844782565848909
 20
10.277365593835011
 10
5.844776327834948
 20
10.277391768400701
 10
5.831159307269395
 20
10.331301669324295
 10
5.831152291114742
 20
10.33132793708961
 10
5.816092892577544
 20
10.384783149759512
 10
5.816085117655588
 20
10.384809368787504
 10
5.799588658315393
 20
10.437771669461672
 10
5.7995802914228705
 20
10.437797308630469
 10
5.78167094469597
 20
10.490268036253905
 10
5.781662074622958
 20
10.490292941841258
 10
5.762368198935334
 20
10.542281827853747
 10
5.762358885011668
 20
10.542305963180851
 10
5.741708854804436
 20
10.59382267715189
 10
5.741699156794249
 20
10.593846013078068
 10
5.719721346502384
 20
10.644900217156962
 10
5.719711323764529
 20
10.644922731823547
 10
5.69643410861109
 20
10.69552408105799
 10
5.696423819353673
 20
10.695545759511667
 10
5.671875576044103
 20
10.745703902273949
 10
5.6718650766836225
 20
10.745724735995159
 10
5.646074183992421
 20
10.795449314490465
 10
5.646063528622394
 20
10.795469300852467
 10
5.6190584373728045
 20
10.844769824799563
 10
5.619047532778693
 20
10.844789217086856
 10
5.590848512267047
 20
10.893656727974525
 10
5.590835869778864
 20
10.893678023223494
 10
5.561374749398582
 20
10.941931534976373
 10
5.5613592276172215
 20
10.941956145335402
 10
5.530516234312666
 20
10.989317513639584
 10
5.530497391703585
 20
10.98934540936546
 10
5.49815181368241
 20
11.03553606483144
 10
5.498129142360154
 20
11.035567149977057
 10
5.464160335638291
 20
11.080308597303912
 10
5.464133259439008
 20
11.080342692836611
 10
5.428420640099003
 20
11.123356539713033
 10
5.428388533358241
 20
11.123393343386265
 10
5.390806730107949
 20
11.164406604377515
 10
5.390779074856733
 20
11.164435596611794
 10
5.371258320225774
 20
11.184095938347962
 10
5.3712379124405025
 20
11.184115913367107
 10
5.351201305388023
 20
11.203175118359002
 10
5.35117929485363
 20
11.203195436016737
 10
5.330616300509421
 20
11.221614201929416
 10
5.330592626708516
 20
11.221634747564966
 10
5.309488151388372
 20
11.239378368309943
 10
5.309462766177604
 20
11.239399011641186
 10
5.287801466238033
 20
11.25643298206141
 10
5.287774821182183
 20
11.256453222959292
 10
5.265554737789509
 20
11.272753688054351
 10
5.26551790162341
 20
11.272779457526582
 10
5.219536326726374
 20
11.303430861607739
 10
5.219495215956092
 20
11.30345684484409
 10
5.171855196198532
 20
11.331969626694772
 10
5.171824685955234
 20
11.331987165543303
 10
5.122961105502564
 20
11.358943799397178
 10
5.122937675061275
 20
11.358956322255167
 10
5.023288073308432
 20
11.410526029790624
 10
4.973401897158684
 20
11.436289373744623
 10
4.973394587639002
 20
11.436293225524295
 10
4.92406398615288
 20
11.462811242093897
 10
4.924051086707717
 20
11.462818423765741
 10
4.875715577283002
 20
11.490671583274324
 10
4.87569727913418
 20
11.490682655502441
 10
4.828794090149195
 20
11.520452699317303
 10
4.828777227234662
 20
11.520463887532815
 10
4.806005790718219
 20
11.536245216548613
 10
4.805993011772328
 20
11.536254373484576
 10
4.7837430104292205
 20
11.552733460748694
 10
4.783729234053247
 20
11.552744039449982
 10
4.762058177507881
 20
11.56999155888127
 10
4.762043559447288
 20
11.570003653164584
 10
4.741002394396714
 20
11.58809548333778
 10
4.74099488020622
 20
11.588102076055893
 10
3.4946148773962387
 20
12.70388417420687
 10
3.4945993006285563
 20
12.703899395066898
 10
3.4945866608728466
 20
12.703917028473596
 10
3.459212946975762
 20
12.758076782519414
 10
3.4591999403339875
 20
12.758099179465923
 10
3.4591971853781702
 20
12.758124932255313
 10
3.4557000183490714
 20
12.822672643706685
 10
3.4556999702075144
 20
12.822698455037003
 10
3.4557104060683983
 20
12.822722062660736
 10
3.4848887544344365
 20
12.88037927843883
 10
3.4848994132264366
 20
12.88039823980784
 10
3.4849131550494152
 20
12.880414994318066
 10
4.318684085406884
 20
13.811682525430935
 10
4.318699252991613
 20
13.811698050771057
 10
4.318716818106495
 20
13.811710660197242
 10
4.372776686072708
 20
13.84708440004944
 10
4.37279904207969
 20
13.847097410301867
 10
4.372824757398686
 20
13.847100199582368
 10
4.437372465864986
 20
13.850697285503092
 10
4.437398317832288
 20
13.850697371431535
 10
4.437421970878299
 20
13.850686937591787
 10
4.495179079309034
 20
13.821508605997021
 10
4.495198099571002
 20
13.821497928494056
 10
4.49521490149348
 20
13.821484150156312
 10
5.740751566158992
 20
12.706267617940759
 10
5.74082793896917
 20
12.706205721800892
 10
5.740910020114114
 20
12.706151623520793
 10
5.740997016366708
 20
12.706105845902902
 10
5.741088087000537
 20
12.706068831339294
 10
5.741182351914617
 20
12.706040937536425
 10
5.741278900138639
 20
12.706022434058283
 10
5.741376798636525
 20
12.706013499721342
 10
5.741475101323237
 20
12.706014220866479
 10
5.741572858207678
 20
12.706024590524592
 10
5.741669124573352
 20
12.706044508483949
 10
5.741762970108045
 20
12.706073782258617
 10
5.741853487894303
 20
12.706112128948645
 10
5.741939803173826
 20
12.706159177973989
 10
5.7420210818010835
 20
12.706214474655772
 10
5.7420965383044384
 20
12.706277484610274
 10
5.7421654434769005
 20
12.706347598913187
 10
5.760182090271034
 20
12.726580196917293
 10
5.76019868612333
 20
12.726597067723004
 10
5.760216846964263
 20
12.72658189438272
 10
5.826881388938117
 20
12.665014641225458
 10
5.826897560387183
 20
12.664998237520976
 10
5.826900369075693
 20
12.66497537470062
 10
5.829768312466952
 20
12.626999848416354
 10
5.829780055869863
 20
12.62690499823432
 10
5.829800800529782
 20
12.626811702341438
 10
5.829830356955349
 20
12.626720812945734
 10
5.829868455164442
 20
12.62663316027317
 10
5.8299147471503225
 20
12.626549544983977
 10
5.829968810060485
 20
12.626470730859047
 10
5.830030150059195
 20
12.626397437823211
 10
5.830098206838408
 20
12.626330335369106
 10
5.92664883227135
 20
12.539832919388461
 10
5.926725893324557
 20
12.539770485432477
 10
5.926808759873222
 20
12.539715991947608
 10
5.926896616808432
 20
12.539669974953824
 10
5.926988599933806
 20
12.539632887092909
 10
5.951876452041805
 20
12.531006420425992
 10
5.951898002665537
 20
12.530997799418238
 10
5.9519148971613305
 20
12.530981883163342
 10
6.469573629401511
 20
11.995335009648405
 10
6.469644468474348
 20
11.995268502071218
 10
6.469721427848675
 20
11.995209183551623
 10
6.46980378091779
 20
11.995157614141393
 10
6.469890750150782
 20
11.995114280729613
 10
6.469981514433549
 20
11.995079592445746
 10
6.4700752168212805
 20
11.995053876796868
 10
6.470170972629249
 20
11.99503737657553
 10
6.470267877785497
 20
11.99503024756745
 10
6.470365017366578
 20
11.995032557080675
 10
6.628970914556244
 20
12.006531484626926
 10
6.629070021798868
 20
12.006543668331044
 10
6.629167419891535
 20
12.006565675142074
 10
6.629262137708232
 20
12.006597285636959
 10
6.629353230847142
 20
12.006638184637314
 10
6.629439791046984
 20
12.006687964351961
 10
6.629520955242993
 20
12.006746128442884
 10
6.629595914172279
 20
12.00681209697407
 10
6.629663920442733
 20
12.006885212193867
 10
6.629724295985036
 20
12.006964745093212
 10
6.629776438813483
 20
12.007049902674368
 10
6.629819829028189
 20
12.007139835857645
 10
6.6298540339988525
 20
12.007233647947317
 10
6.629878712678378
 20
12.007330403572288
 10
6.629893619003347
 20
12.007429138012393
 10
6.62989860434744
 20
12.007528866817314
 10
6.62989860434744
 20
12.089493655393428
 10
6.629899791609657
 20
12.08951765630728
 10
6.629920490656999
 20
12.089529862981536
 10
7.74710681700832
 20
12.6759863430852
 10
7.747130960876633
 20
12.675997417725863
 10
7.747156146698674
 20
12.676005858603228
 10
8.37209997391082
 20
12.84899030997555
 10
8.372111392168108
 20
12.848992643515274
 10
8.372129329557781
 20
12.848997224753804
 10
8.372130704762395
 20
12.848974280571731
 10
8.51213006915481
 20
0.06303232970438621
 10
8.512129294612082
 20
0.06299980338536493
 10
8.512106300578285
 20
0.0629975578769777
 10
7.22815607337132
 20
0.0
 10
7.228130785463279
 20
5.809169856263452e-08
 10
7.228108784131385
 20
1.2524970225413767e-05
 10
6.629919781812158
 20
0.3807828322157327
 10
6.629899831703805
 20
0.3807969861394138
 10
6.62989860434744
 20
0.38082141632517086
 10
6.62989860434744
 20
0.5289436097109625
 10
6.629893936167795
 20
0.5290401217174185
 10
6.62987997521266
 20
0.5291357326531081
 10
6.6298568518265295
 20
0.5292295498599788
 10
6.629824781897644
 20
0.5293206974268845
 10
6.629784064842382
 20
0.5294083243673899
 10
6.629735080809801
 20
0.529491612564895
 10
6.629678287132428
 20
0.529569784410862
 10
6.629614214056442
 20
0.5296421100648523
 10
6.629543459791099
 20
0.5297079142685721
 10
6.629466684923644
 20
0.5297665826503355
 10
6.629384606251823
 20
0.5298175674610484
 10
6.629297990091606
 20
0.5298603926882031
 10
6.594515602968877
 20
0.5450129314130141
 10
6.594506103173189
 20
0.5450171880925598
 10
6.559269112829485
 20
0.5612487801454726
 10
6.559258609537834
 20
0.5612537672379236
 10
6.52428581473687
 20
0.5783604065479917
 10
6.524274304282113
 20
0.578366221933674
 10
6.489688120560652
 20
0.59640369447248
 10
6.48967560395927
 20
0.5964104503397376
 10
6.455598451555914
 20
0.6154345212827099
 10
6.455584916276608
 20
0.6154423577185959
 10
6.422140062380234
 20
0.6355106460157973
 10
6.422125228268137
 20
0.6355199036962436
 10
6.389445843919311
 20
0.6567174020927347
 10
6.389429570155866
 20
0.6567284184477966
 10
6.357655857977177
 20
0.6791603979236633
 10
6.357638281950694
 20
0.6791733913325118
 10
6.326910443091954
 20
0.7029456580056319
 10
6.326891766343617
 20
0.7029608396060176
 10
6.297349718261728
 20
0.7281793685416673
 10
6.297330608558755
 20
0.7281965499299332
 10
6.2690979397105675
 20
0.7549240452075292
 10
6.269079774275304
 20
0.7549421480001577
 10
6.242231992966082
 20
0.7831063633877573
 10
6.242214965924858
 20
0.7831251575754212
 10
6.216819012363056
 20
0.8126274140208114
 10
6.2168030736946465
 20
0.8126469014891846
 10
6.1929259665871355
 20
0.8433884323021044
 10
6.1929111377045265
 20
0.8434085422539557
 10
6.170610021984628
 20
0.8752901210850599
 10
6.17059658926397
 20
0.8753103535656006
 10
6.149875355194816
 20
0.908228977394856
 10
6.149863345044984
 20
0.9082490872791649
 10
6.13070787675653
 20
0.9421002080301033
 10
6.130697190905338
 20
0.9421201296669253
 10
6.113093403446538
 20
0.9767991172618835
 10
6.1130839649656314
 20
0.9768187601778973
 10
6.097012462996519
 20
1.012222662712956
 10
6.09700431472635
 20
1.0122416449873413
 10
6.082409531163532
 20
1.0482780983098294
 10
6.082402603807141
 20
1.0482962040962818
 10
6.069213776522959
 20
1.0848771235472103
 10
6.069207934396579
 20
1.0848942977930296
 10
6.057354274668271
 20
1.121931520291641
 10
6.057349387058933
 20
1.1219477325349327
 10
6.0467594643039355
 20
1.1593554835627522
 10
6.04675541070079
 20
1.1593707145100396
 10
6.037351552116845
 20
1.1970868656075648
 10
6.037348227631157
 20
1.1971010800634154
 10
6.029049213696746
 20
1.2350769283713259
 10
6.02904652063696
 20
1.2350900980656228
 10
6.021771084781098
 20
1.2732770840150174
 10
6.021768931353412
 20
1.2732891954059404
 10
6.015435888687181
 20
1.3116392260499978
 10
6.01543418418727
 20
1.3116503211206147
 10
6.009964753097115
 20
1.3501253605129886
 10
6.009962887453578
 20
1.3501400405156652
 10
6.001305206919694
 20
1.4273882777052087
 10
6.001303648925413
 20
1.4274045899199468
 10
5.995182314201835
 20
1.5048923056856687
 10
5.995181455497591
 20
1.5049053437054152
 10
5.991087323929228
 20
1.5825218392081268
 10
5.991086886135108
 20
1.582532167870081
 10
5.988598326667785
 20
1.660218246326771
 10
5.988598139764607
 20
1.6602259223751936
 10
5.987302873284525
 20
1.7379398891442577
 10
5.987302814328949
 20
1.7379449846038106
 10
5.986799627788904
 20
1.81566996097175
 10
5.986656438917606
 20
1.971128694897324
 10
5.98665640439934
 20
1.971136133470882
 10
5.985356903931695
 20
2.126579917236077
 10
5.985356597462283
 20
2.1265976862554226
 10
5.983326022049484
 20
2.2042856238497848
 10
5.9833253570829665
 20
2.204304347653041
 10
5.979839672356737
 20
2.281940582393565
 10
5.979838310414441
 20
2.281964512425425
 10
5.974492998669624
 20
2.359493713448108
 10
5.974490516065382
 20
2.3595233093919425
 10
5.966844257688017
 20
2.4368691850978017
 10
5.9668412635027135
 20
2.4368958213510687
 10
5.961984341358999
 20
2.4754418414150123
 10
5.961981581562665
 20
2.4754620759824046
 10
5.956338280616563
 20
2.513902575182321
 10
5.95633479908817
 20
2.513924581536507
 10
5.949835952068441
 20
2.5522330189646283
 10
5.949831737284358
 20
2.5522562036335508
 10
5.942431458601526
 20
2.5904038278683412
 10
5.942426489059498
 20
2.590427863671378
 10
5.934092286944708
 20
2.628382018997181
 10
5.934086491370392
 20
2.6284068916448184
 10
5.924786051063388
 20
2.666134730212642
 10
5.924779355709498
 20
2.6661604182259406
 10
5.914480485668836
 20
2.703629052145182
 10
5.914472842503947
 20
2.7036554355824673
 10
5.903148302195898
 20
2.7408285645259145
 10
5.903139676449861
 20
2.7408555057928172
 10
5.890768565251766
 20
2.7776923609303577
 10
5.890758891236764
 20
2.7777198343633707
 10
5.877320738137119
 20
2.8141793050909385
 10
5.877309946626899
 20
2.8142072837412773
 10
5.862784292479141
 20
2.8502482481894305
 10
5.862772317252738
 20
2.8502766874237135
 10
5.84714055236974
 20
2.8858546361401327
 10
5.8471273261672465
 20
2.88588348694571
 10
5.830374731728738
 20
2.920946770207623
 10
5.830360175432274
 20
2.9209759999576512
 10
5.812472529532526
 20
2.9554720656072515
 10
5.81245656236138
 20
2.9555016316685165
 10
5.793419640564231
 20
2.989377951035376
 10
5.7934022024873775
 20
2.9894077646655823
 10
5.773205011538367
 20
3.022609330935092
 10
5.7731860730963716
 20
3.02263925664162
 10
5.751826178338669
 20
3.055104415492785
 10
5.751805663323467
 20
3.0551343959965056
 10
5.7292820456999305
 20
3.086800379795376
 10
5.729259870290759
 20
3.0868303568481092
 10
5.70557148557741
 20
3.117634461356305
 10
5.705547654239485
 20
3.1176642573412146
 10
5.680699508194675
 20
3.1475445996117504
 10
5.68067417645478
 20
3.147573888842608
 10
5.654687312419442
 20
3.1764703150917537
 10
5.654660462089689
 20
3.176499016612482
 10
5.627558602469682
 20
3.2043515237827815
 10
5.627530181783363
 20
3.2043795878489796
 10
5.5993370335076955
 20
3.2311282265754375
 10
5.5993071069332405
 20
3.2311554902418287
 10
5.570052252137746
 20
3.2567429732764683
 10
5.570021049329476
 20
3.256769162186677
 10
5.539748126650817
 20
3.281144085812395
 10
5.539715658546529
 20
3.281169148310683
 10
5.508470436786245
 20
3.304280836324965
 10
5.508436677164184
 20
3.3043047436095563
 10
5.476264784715615
 20
3.326102727280853
 10
5.476230117496696
 20
3.326125185497629
 10
5.443185390052493
 20
3.3465760163469334
 10
5.443150771341288
 20
3.346596490109624
 10
5.409306632792799
 20
3.365704129618905
 10
5.409272262383215
 20
3.3657226589437226
 10
5.374705254923348
 20
3.3834958722271598
 10
5.374671185934305
 20
3.383512579867519
 10
5.339457838516721
 20
3.3999601503281056
 10
5.339424297961948
 20
3.3999750728597586
 10
5.303637969947523
 20
3.4151161276539064
 10
5.303605582699044
 20
3.4151291687604033
 10
5.267311355772861
 20
3.4290121739006025
 10
5.2672803129234715
 20
3.4290234640732375
 10
5.230542072521598
 20
3.4417020061776427
 10
5.230512438841566
 20
3.4417117185190076
 10
5.193394186434587
 20
3.4532393557482735
 10
5.193365921995137
 20
3.453247679168621
 10
5.155928764284372
 20
3.4636754779313197
 10
5.155901422500763
 20
3.463682678821055
 10
5.118187644803358
 20
3.4730471121437247
 10
5.118161080514299
 20
3.473053324700029
 10
5.080205731304746
 20
3.4813855310392654
 10
5.080179966871641
 20
3.481390832820482
 10
5.042018003592029
 20
3.488721968565873
 10
5.041993051356618
 20
3.4887264348801637
 10
5.00365926844715
 20
3.4950876439457996
 10
5.003635106095929
 20
3.495091350644884
 10
4.96515905247073
 20
3.5005134105415383
 10
4.965135659895747
 20
3.5005164261305204
 10
4.9265409824231305
 20
3.5050297086089213
 10
4.926518369841235
 20
3.5050320926686425
 10
4.887828391602319
 20
3.5086669528729164
 10
4.8878065651586144
 20
3.50866876254125
 10
4.849044641970781
 20
3.511455556067517
 10
4.849023546336717
 20
3.5114568488159037
 10
4.810212354910879
 20
3.5134237752060464
 10
4.810191681141286
 20
3.513424608615118
 10
4.771354349788059
 20
3.514587944501068
 10
4.771323976409784
 20
3.5145883927287223
 10
4.693606251979183
 20
3.514554760853521
 10
4.693566844674806
 20
3.514553967017269
 10
4.615923787831077
 20
3.5114582060661768
 10
4.615886160645623
 20
3.511455994894593
 10
4.538410460282575
 20
3.505436076238791
 10
4.538374979206244
 20
3.5054326822054236
 10
4.461142593119854
 20
3.4966532338400835
 10
4.461108001318065
 20
3.4966486890478468
 10
4.384224295105879
 20
3.4851797431250375
 10
4.384187979249017
 20
3.485173640246705
 10
4.307815995367311
 20
3.470888682267681
 10
4.307778514735042
 20
3.4708809265449148
 10
4.232052121542116
 20
3.4536936152985565
 10
4.232019310532662
 20
3.4536855832686797
 10
4.156861398739009
 20
3.433935907711364
 10
4.156835016031867
 20
3.433928587434485
 10
4.082109463501764
 20
3.412088832704887
 10
4.0820860976096025
 20
3.4120816926850175
 10
4.044999866617257
 20
3.400251836312961
 10
4.044975976877723
 20
3.400243883183606
 10
4.008247074023073
 20
3.3875006256021063
 10
4.008216619871183
 20
3.3874895030791023
 10
3.971988986098528
 20
3.3735887091477643
 10
3.9719521721450346
 20
3.373573737531329
 10
3.9363660444152377
 20
3.3582704952571216
 10
3.9363240143119307
 20
3.358251257993576
 10
3.901503408961263
 20
3.341329770146391
 10
3.9014581876475076
 20
3.341306352633943
 10
3.8674973926125653
 20
3.3226083853983024
 10
3.86744979509045
 20
3.3225804405606905
 10
3.8344402306711234
 20
3.301954656014111
 10
3.83439106795658
 20
3.3019218786264446
 10
3.8034473683302057
 20
3.2799436427926736
 10
3.8033693247149696
 20
3.279882157205927
 10
3.8032977676119977
 20
3.279813230692371
 10
3.8032334033817223
 20
3.2797375436451457
 10
3.8031768673816924
 20
3.2796558431925327
 10
3.803128717694778
 20
3.279568935822841
 10
3.8030894296201776
 20
3.2794776794233353
 10
3.803059390981604
 20
3.2793829748117815
 10
3.8030388982989676
 20
3.2792857568442297
 10
3.803028153861343
 20
3.2791869851867723
 10
3.803027263730118
 20
3.279087634842421
 10
3.803036236692029
 20
3.278988686526562
 10
3.803054984172429
 20
3.2788911169860526
 10
3.803083321109627
 20
3.278795889357461
 10
3.8031209677816897
 20
3.2787039436596874
 10
3.803167552567654
 20
3.2786161875147553
 10
3.8032226156159017
 20
3.2785334871884295
 10
3.8032856133834874
 20
3.2784566590390583
 10
3.8033559240016017
 20
3.278386461459064
 10
3.821133463630032
 20
3.262319590738276
 10
3.821150035344435
 20
3.2623030762021568
 10
3.8211372425210466
 20
3.26228348806057
 10
3.3687685890871477
 20
2.6383402434014265
 10
3.3687542867984415
 20
2.6383223973153687
 10
3.3687375014756555
 20
2.638337930865781
 10
2.8827770416405074
 20
3.133697568620379
 10
2.8827292891167997
 20
3.1337431342793938
 10
0.5976727822148762
 20
5.174404290598697
 10
0.5976552394588266
 20
5.174421608615743
 10
0.5976481449469482
 20
5.174445216451413
 10
0.5729945968421317
 20
5.274349573005767
 10
0.5729668958278316
 20
5.274442286379064
 10
0.5729303637612739
 20
5.274531888409701
 10
0.5728853426964271
 20
5.274617540143492
 10
0.5728322541707334
 20
5.274698439613336
 10
0.5727715952582058
 20
5.274773829348129
 10
0.5727039339152649
 20
5.274843003465057
 10
0.5726299036629001
 20
5.274905314278854
 10
0.5725501976549339
 20
5.274960178366156
 10
0.5724655621879489
 20
5.275007082028161
 10
0.57237678971362
 20
5.27504558610045
 10
0.572284711418904
 20
5.275075330064939
 10
0.3997780028477216
 20
5.321714314027106
 10
0.3997561533598937
 20
5.321721383198856
 10
0.3997671867127526
 20
5.321741523666404
 10
0.518940631811617
 20
5.516104979411264
 10
0.5189524727636119
 20
5.516122567243786
 10
0.5189670712180785
 20
5.5161378375739805
 10
0.9106660811907608
 20
5.892689496496139
 10
0.9106841398100052
 20
5.89270519714172
 10
0.9107026731860248
 20
5.892690059837669
 10
0.922145033306867
 20
5.882348757011474
 10
0.9222207187919151
 20
5.882286801915514
 10
0.9223020948008029
 20
5.882232537085838
 10
0.9223883828315067
 20
5.882186481659234
 10
0.9224787573900306
 20
5.882149076235376
 10
0.9225723538876851
 20
5.8821206786617255
 10
0.9226682769123693
 20
5.882101560610105
 10
0.9227656087947356
 20
5.882091904977685
 10
0.922863418387279
 20
5.8820918041372625
 10
0.9229607699723736
 20
5.88210125905355
 10
0.9230567322140235
 20
5.882120179273948
 10
0.9231503870677029
 20
5.882148383793883
 10
0.9232408385630348
 20
5.8821856027884225
 10
0.9233272213752963
 20
5.882231480193625
 10
0.923408709103744
 20
5.882285577112898
 10
0.92348452217756
 20
5.882347376015809
 10
0.9235539353137989
 20
5.882416285689149
 10
1.9686813181119343
 20
7.026760828250051
 10
1.968747277817421
 20
7.026841046530273
 10
1.9688045620630534
 20
7.0269276731453045
 10
1.9688525530007084
 20
7.027019773770344
 10
1.9688907330166767
 20
7.027116355039802
 10
1.9689186903144718
 20
7.027216375261406
 10
1.9689361233563165
 20
7.027318755651528
 10
1.9708612491406745
 20
7.043738866071243
 10
1.9708658884495867
 20
7.043789566455298
 10
1.9719744762899678
 20
7.0606152770288935
 10
1.9719765398584368
 20
7.0606668857270005
 10
1.9722151165172095
 20
7.077543278225791
 10
1.9722144739296912
 20
7.077595941958479
 10
1.971564139058537
 20
7.094462757113252
 10
1.9715605512946413
 20
7.094517189789409
 10
1.9699924792712773
 20
7.1113121897197695
 10
1.9699854298907091
 20
7.111369660600558
 10
1.9674506261539477
 20
7.128028075747975
 10
1.9674394866463452
 20
7.128088667886246
 10
1.9638864404286158
 20
7.1445466655203145
 10
1.9638708407407242
 20
7.144609109168147
 10
1.959265430847191
 20
7.160807935418057
 10
1.9592465289432743
 20
7.160867319129845
 10
1.9536368520184286
 20
7.176759719044757
 10
1.9536155332289713
 20
7.176814864946756
 10
1.947073782966931
 20
7.192354331822916
 10
1.9470505532098121
 20
7.192405449737313
 10
1.939649329764233
 20
7.207548366325036
 10
1.939625031598542
 20
7.207594938457339
 10
1.9314450760526256
 20
7.2223170926846825
 10
1.9314085223922488
 20
7.2223777216438245
 10
1.912986397124726
 20
7.250621397361009
 10
1.9129385478363368
 20
7.250688536063064
 10
1.892256253057445
 20
7.2773138267498245
 10
1.8922113214997456
 20
7.27736766159949
 10
1.8697077149969914
 20
7.302485141719452
 10
1.869667091341296
 20
7.302527878835402
 10
1.8457163407188029
 20
7.32628120588644
 10
1.8456809581652012
 20
7.326314628539835
 10
1.8205983624680595
 20
7.348878407501123
 10
1.8205682321680845
 20
7.348904445564186
 10
1.794601086070477
 20
7.370456727090732
 10
1.7945761707928787
 20
7.370476742655345
 10
1.7679299799952215
 20
7.391191030780038
 10
1.7679095412298667
 20
7.391206503347691
 10
1.7407392459237876
 20
7.411232369215782
 10
1.740717727692675
 20
7.411247793840047
 10
1.6853145011241377
 20
7.449861822381713
 10
1.6853003387438115
 20
7.449871513563705
 10
1.5731602868252486
 20
7.525203317831144
 10
1.5731507361497385
 20
7.525209895659815
 10
1.5179767927434042
 20
7.564160830439707
 10
1.517963447712341
 20
7.56417058609967
 10
1.4910399705240023
 20
7.58454394584812
 10
1.4910267574050922
 20
7.584554297742449
 10
1.4647973012381055
 20
7.605824049361263
 10
1.4647799988670203
 20
7.6058387435493655
 10
1.4395636120915896
 20
7.628259001100811
 10
1.439542143722357
 20
7.628279254824175
 10
1.415693568802129
 20
7.6521479017364165
 10
1.4156679396130052
 20
7.652175565248082
 10
1.3936225196345884
 20
7.677849238665207
 10
1.3935987809765962
 20
7.677879120748178
 10
1.383628116837066
 20
7.6914644216968675
 10
1.383609435061583
 20
7.691491726568324
 10
1.374614799011769
 20
7.705619632175931
 10
1.374597249922319
 20
7.705649423260342
 10
1.3665961962052622
 20
7.720373816389942
 10
1.3665823226936267
 20
7.720401337918472
 10
1.3594036194424186
 20
7.735805990243717
 10
1.359392108105384
 20
7.735832694640615
 10
1.3529991230554579
 20
7.751936441229622
 10
1.352982513315033
 20
7.751985576492107
 10
1.348363050963365
 20
7.768417324639873
 10
1.3483496416638268
 20
7.768480406198995
 10
1.3471618549314313
 20
7.776623102287769
 10
1.3471567855171909
 20
7.776682483907864
 10
1.3469523823278848
 20
7.784703671783149
 10
1.3469557599358168
 20
7.784775743102279
 10
1.3478959072401953
 20
7.7926295874400475
 10
1.347899148161761
 20
7.79264967825902
 10
1.3479040157851188
 20
7.7926694380874775
 10
1.3501215775153623
 20
7.800314194177249
 10
1.350128515072135
 20
7.800334729599365
 10
1.3501372094349433
 20
7.800354585110217
 10
1.353756267636352
 20
7.807729539221814
 10
1.3537666463641207
 20
7.807748553638881
 10
1.35377863588762
 20
7.807766595738899
 10
1.3589274102443714
 20
7.814828817224283
 10
1.3589400487960424
 20
7.81484474606944
 10
1.3589539425609543
 20
7.81485959276586
 10
1.3657489701057797
 20
7.8215518563759545
 10
1.3658041465311666
 20
7.821598819903114
 10
1.3734040824174478
 20
7.827169736194518
 10
1.373480771204366
 20
7.827232000111671
 10
1.3735509427546697
 20
7.827301526501955
 10
1.373613912336797
 20
7.827377636929262
 10
1.3736690654957444
 20
7.8274595887106715
 10
1.3737158640488927
 20
7.827546582163536
 10
1.3737538513375807
 20
7.82763776840875
 10
1.373782656683157
 20
7.827732257654087
 10
1.3738019990040566
 20
7.8278291278767576
 10
1.3738116895585808
 20
7.827927433820479
 10
1.3738116337866337
 20
7.8280262162192535
 10
1.373801832232437
 20
7.828124511157848
 10
1.3737823805392155
 20
7.828221359477652
 10
1.373753468515921
 20
7.8283158161361115
 10
1.373715378285076
 20
7.828406959428416
 10
1.373668481529836
 20
7.828493899981474
 10
1.3736132358671167
 20
7.828575789432374
 10
1.3735501803821846
 20
7.828651828706688
 10
1.3734799303682808
 20
7.828721275815804
 10
0.04142262777042305
 20
9.021377232792954
 10
0.04137754602658461
 20
9.021423161879753
 10
0.020114760032670986
 20
9.046080007609783
 10
0.02009968150448671
 20
9.046099349971724
 10
0.020090919156737996
 20
9.046122256526251
 10
6.729659633997187e-06
 20
9.10757388110694
 10
0.0
 20
9.10759881812646
  0
CIRCLE
  5
8E
330
17
100
AcDbEntity
  8
CUT
100
AcDbCircle
 10
4.461291074965445
 20
12.845134606200778
 30
0.0
 40
0.3545
  0
CIRCLE
  5
8F
330
17
100
AcDbEntity
  8
CUT
100
AcDbCircle
 10
1.0303893827976554
 20
9.226496937314847
 30
0.0
 40
0.3545
  0
CIRCLE
  5
90
330
17
100
AcDbEntity
  8
CUT
100
AcDbCircle
 10
4.87989860434744
 20
5.841600483139252
 30
0.0
 40
0.512
  0
LINE
  5
91
330
17
100
AcDbEntity
  8
BEND
100
AcDbLine
 10
6.5130145206342585
 20
0.5831106288644765
 30
0.0
 11
6.5130145206342585
 21
11.999127270748108
 31
0.0
  0
TEXT
  5
92
330
17
100
AcDbEntity
  8
TEXT
100
AcDbText
 10
6.663014520634259
 20
6.291118949806292
 30
0.0
 40
0.15
  1
BEND 1 UP 90 deg IR 0.135
100
AcDbText
  0
LINE
  5
93
330
17
100
AcDbEntity
  8
BEND
100
AcDbLine
 10
1.001707473522357
 20
5.967989179867219
 30
0.0
 11
3.9057491389439907
 21
3.3433930331937063
 31
0.0
  0
TEXT
  5
94
330
17
100
AcDbEntity
  8
TEXT
100
AcDbText
 10
2.6037283062331738
 20
4.655691106530463
 30
0.0
 40
0.15
  1
BEND 2 UP 90 deg IR 0.135
100
AcDbText
  0
TEXT
  5
95
330
17
100
AcDbEntity
  8
TEXT
100
AcDbText
 10
0.0
 20
-0.6
 30
0.0
 40
0.18
  1
FR-1  A36 10 ga (0.135") plate  QTY 2 (1 as shown + 1 mirror)
100
AcDbText
  0
ENDSEC
  0
SECTION
  2
OBJECTS
  0
DICTIONARY
  5
A
330
0
100
AcDbDictionary
281
1
  3
ACAD_COLOR
350
B
  3
ACAD_GROUP
350
C
  3
ACAD_LAYOUT
350
D
  3
ACAD_MATERIAL
350
E
  3
ACAD_MLEADERSTYLE
350
F
  3
ACAD_MLINESTYLE
350
10
  3
ACAD_PLOTSETTINGS
350
11
  3
ACAD_PLOTSTYLENAME
350
12
  3
ACAD_SCALELIST
350
14
  3
ACAD_TABLESTYLE
350
15
  3
ACAD_VISUALSTYLE
350
16
  3
EZDXF_META
350
2D
  0
DICTIONARY
  5
B
330
A
100
AcDbDictionary
281
1
  0
DICTIONARY
  5
C
330
A
100
AcDbDictionary
281
1
  0
DICTIONARY
  5
D
330
A
100
AcDbDictionary
281
1
  3
Model
350
1A
  3
Layout1
350
1E
  0
DICTIONARY
  5
E
330
A
100
AcDbDictionary
281
1
  3
ByBlock
350
1F
  3
ByLayer
350
20
  3
Global
350
21
  0
DICTIONARY
  5
F
330
A
100
AcDbDictionary
281
1
  3
Standard
350
2C
  0
DICTIONARY
  5
10
330
A
100
AcDbDictionary
281
1
  3
Standard
350
22
  0
DICTIONARY
  5
11
330
A
100
AcDbDictionary
281
1
  0
ACDBDICTIONARYWDFLT
  5
12
330
A
100
AcDbDictionary
281
1
  3
Normal
350
13
100
AcDbDictionaryWithDefault
340
13
  0
ACDBPLACEHOLDER
  5
13
330
12
  0
DICTIONARY
  5
14
330
A
100
AcDbDictionary
281
1
  0
DICTIONARY
  5
15
330
A
100
AcDbDictionary
281
1
  0
DICTIONARY
  5
16
330
A
100
AcDbDictionary
281
1
  3
2dWireframe
350
5A
  3
Basic
350
5B
  3
Brighten
350
5C
  3
ColorChange
350
5D
  3
Conceptual
350
5E
  3
Dim
350
5F
  3
EdgeColorOff
350
60
  3
Facepattern
350
61
  3
Flat
350
62
  3
FlatWithEdges
350
63
  3
Gouraud
350
64
  3
GouraudWithEdges
350
65
  3
Hidden
350
66
  3
JitterOff
350
67
  3
Linepattern
350
68
  3
Modeling
350
69
  3
OverhangOff
350
6A
  3
Realistic
350
6B
  3
Shaded
350
6C
  3
Shaded with edges
350
6D
  3
Shades of Gray
350
6E
  3
Sketchy
350
6F
  3
Thicken
350
70
  3
Wireframe
350
71
  3
X-Ray
350
72
  0
LAYOUT
  5
1A
330
D
100
AcDbPlotSettings
  1

  4
A3
  6

 40
7.5
 41
20.0
 42
7.5
 43
20.0
 44
420.0
 45
297.0
 46
0.0
 47
0.0
 48
0.0
 49
0.0
140
0.0
141
0.0
142
1.0
143
1.0
 70
1024
 72
1
 73
0
 74
5
  7

 75
16
 76
0
 77
2
 78
300
147
1.0
148
0.0
149
0.0
100
AcDbLayout
  1
Model
 70
1
 71
0
 10
0.0
 20
0.0
 11
420.0
 21
297.0
 12
0.0
 22
0.0
 32
0.0
 14
1e+20
 24
1e+20
 34
1e+20
 15
-1e+20
 25
-1e+20
 35
-1e+20
146
0.0
 13
0.0
 23
0.0
 33
0.0
 16
1.0
 26
0.0
 36
0.0
 17
0.0
 27
1.0
 37
0.0
 76
1
330
17
  0
LAYOUT
  5
1E
330
D
100
AcDbPlotSettings
  1

  4
A3
  6

 40
7.5
 41
20.0
 42
7.5
 43
20.0
 44
420.0
 45
297.0
 46
0.0
 47
0.0
 48
0.0
 49
0.0
140
0.0
141
0.0
142
1.0
143
1.0
 70
0
 72
1
 73
0
 74
5
  7

 75
16
 76
0
 77
2
 78
300
147
1.0
148
0.0
149
0.0
100
AcDbLayout
  1
Layout1
 70
1
 71
1
 10
0.0
 20
0.0
 11
420.0
 21
297.0
 12
0.0
 22
0.0
 32
0.0
 14
1e+20
 24
1e+20
 34
1e+20
 15
-1e+20
 25
-1e+20
 35
-1e+20
146
0.0
 13
0.0
 23
0.0
 33
0.0
 16
1.0
 26
0.0
 36
0.0
 17
0.0
 27
1.0
 37
0.0
 76
1
330
1B
  0
MATERIAL
  5
1F
102
{ACAD_REACTORS
330
E
102
}
330
E
100
AcDbMaterial
  1
ByBlock
  2

 70
0
 40
1.0
 71
1
 41
1.0
 91
-1023410177
 42
1.0
 72
1
  3

 73
1
 74
1
 75
1
 44
0.5
 73
0
 45
1.0
 46
1.0
 77
1
  4

 78
1
 79
1
170
1
 48
1.0
171
1
  6

172
1
173
1
174
1
140
1.0
141
1.0
175
1
  7

176
1
177
1
178
1
143
1.0
179
1
  8

270
1
271
1
272
1
145
1.0
146
1.0
273
1
  9

274
1
275
1
276
1
 42
1.0
 72
1
  3

 73
1
 74
1
 75
1
 94
63
  0
MATERIAL
  5
20
102
{ACAD_REACTORS
330
E
102
}
330
E
100
AcDbMaterial
  1
ByLayer
  2

 70
0
 40
1.0
 71
1
 41
1.0
 91
-1023410177
 42
1.0
 72
1
  3

 73
1
 74
1
 75
1
 44
0.5
 73
0
 45
1.0
 46
1.0
 77
1
  4

 78
1
 79
1
170
1
 48
1.0
171
1
  6

172
1
173
1
174
1
140
1.0
141
1.0
175
1
  7

176
1
177
1
178
1
143
1.0
179
1
  8

270
1
271
1
272
1
145
1.0
146
1.0
273
1
  9

274
1
275
1
276
1
 42
1.0
 72
1
  3

 73
1
 74
1
 75
1
 94
63
  0
MATERIAL
  5
21
102
{ACAD_REACTORS
330
E
102
}
330
E
100
AcDbMaterial
  1
Global
  2

 70
0
 40
1.0
 71
1
 41
1.0
 91
-1023410177
 42
1.0
 72
1
  3

 73
1
 74
1
 75
1
 44
0.5
 73
0
 45
1.0
 46
1.0
 77
1
  4

 78
1
 79
1
170
1
 48
1.0
171
1
  6

172
1
173
1
174
1
140
1.0
141
1.0
175
1
  7

176
1
177
1
178
1
143
1.0
179
1
  8

270
1
271
1
272
1
145
1.0
146
1.0
273
1
  9

274
1
275
1
276
1
 42
1.0
 72
1
  3

 73
1
 74
1
 75
1
 94
63
  0
MLINESTYLE
  5
22
102
{ACAD_REACTORS
330
10
102
}
330
10
100
AcDbMlineStyle
  2
Standard
 70
0
  3

 62
256
 51
90.0
 52
90.0
 71
2
 49
0.5
 62
256
  6
BYLAYER
 49
-0.5
 62
256
  6
BYLAYER
  0
MLEADERSTYLE
  5
2C
102
{ACAD_REACTORS
330
F
102
}
330
F
100
AcDbMLeaderStyle
179
2
170
2
171
1
172
0
 90
2
 40
0.0
 41
0.0
173
1
 91
-1056964608
 92
-2
290
1
 42
2.0
291
1
 43
8.0
  3
Standard
 44
4.0
300

342
29
174
1
175
1
176
0
178
1
 93
-1056964608
 45
4.0
292
0
297
0
 46
4.0
 94
-1056964608
 47
1.0
 49
1.0
140
1.0
294
1
141
0.0
177
0
142
1.0
295
0
296
0
143
3.75
271
0
272
9
273
9
  0
DICTIONARY
  5
2D
330
A
100
AcDbDictionary
280
1
281
1
  3
CREATED_BY_EZDXF
350
2E
  3
WRITTEN_BY_EZDXF
350
98
  0
DICTIONARYVAR
  5
2E
330
2D
100
DictionaryVariables
280
0
  1
1.4.4 @ 2026-10-03T14:18:38.734783+00:00
  0
VISUALSTYLE
  5
5A
102
{ACAD_REACTORS
330
16
102
}
330
16
100
AcDbVisualStyle
  2
2dWireframe
 70
4
 90
0
 40
0.6
 62
7
290
0
291
0
  0
VISUALSTYLE
  5
5B
102
{ACAD_REACTORS
330
16
102
}
330
16
100
AcDbVisualStyle
  2
Basic
 70
7
 90
1
 40
0.6
 62
7
290
0
291
1
  0
VISUALSTYLE
  5
5C
102
{ACAD_REACTORS
330
16
102
}
330
16
100
AcDbVisualStyle
  2
Brighten
 70
12
 90
2
 40
0.6
 62
7
290
0
291
1
  0
VISUALSTYLE
  5
5D
102
{ACAD_REACTORS
330
16
102
}
330
16
100
AcDbVisualStyle
  2
ColorChange
 70
16
 90
2
 40
0.6
 62
8
290
0
291
1
  0
VISUALSTYLE
  5
5E
102
{ACAD_REACTORS
330
16
102
}
330
16
100
AcDbVisualStyle
  2
Conceptual
 70
9
 90
3
 40
0.6
 62
7
290
0
291
0
  0
VISUALSTYLE
  5
5F
102
{ACAD_REACTORS
330
16
102
}
330
16
100
AcDbVisualStyle
  2
Dim
 70
11
 90
2
 40
0.6
 62
7
290
0
291
1
  0
VISUALSTYLE
  5
60
102
{ACAD_REACTORS
330
16
102
}
330
16
100
AcDbVisualStyle
  2
EdgeColorOff
 70
22
 90
2
 40
0.6
 62
7
290
0
291
1
  0
VISUALSTYLE
  5
61
102
{ACAD_REACTORS
330
16
102
}
330
16
100
AcDbVisualStyle
  2
Facepattern
 70
15
 90
2
 40
0.6
 62
7
290
0
291
1
  0
VISUALSTYLE
  5
62
102
{ACAD_REACTORS
330
16
102
}
330
16
100
AcDbVisualStyle
  2
Flat
 70
0
 90
2
 40
0.6
 62
7
290
0
291
1
  0
VISUALSTYLE
  5
63
102
{ACAD_REACTORS
330
16
102
}
330
16
100
AcDbVisualStyle
  2
FlatWithEdges
 70
1
 90
2
 40
0.6
 62
7
290
0
291
1
  0
VISUALSTYLE
  5
64
102
{ACAD_REACTORS
330
16
102
}
330
16
100
AcDbVisualStyle
  2
Gouraud
 70
2
 90
2
 40
0.6
 62
7
290
0
291
1
  0
VISUALSTYLE
  5
65
102
{ACAD_REACTORS
330
16
102
}
330
16
100
AcDbVisualStyle
  2
GouraudWithEdges
 70
3
 90
2
 40
0.6
 62
7
290
0
291
1
  0
VISUALSTYLE
  5
66
102
{ACAD_REACTORS
330
16
102
}
330
16
100
AcDbVisualStyle
  2
Hidden
 70
6
 90
1
 40
0.6
 62
7
290
0
291
0
  0
VISUALSTYLE
  5
67
102
{ACAD_REACTORS
330
16
102
}
330
16
100
AcDbVisualStyle
  2
JitterOff
 70
20
 90
2
 40
0.6
 62
7
290
0
291
1
  0
VISUALSTYLE
  5
68
102
{ACAD_REACTORS
330
16
102
}
330
16
100
AcDbVisualStyle
  2
Linepattern
 70
14
 90
2
 40
0.6
 62
7
290
0
291
1
  0
VISUALSTYLE
  5
69
102
{ACAD_REACTORS
330
16
102
}
330
16
100
AcDbVisualStyle
  2
Modeling
 70
10
 90
2
 40
0.6
 62
7
290
0
291
0
  0
VISUALSTYLE
  5
6A
102
{ACAD_REACTORS
330
16
102
}
330
16
100
AcDbVisualStyle
  2
OverhangOff
 70
21
 90
2
 40
0.6
 62
7
290
0
291
1
  0
VISUALSTYLE
  5
6B
102
{ACAD_REACTORS
330
16
102
}
330
16
100
AcDbVisualStyle
  2
Realistic
 70
8
 90
2
 40
0.6
 62
7
290
0
291
0
  0
VISUALSTYLE
  5
6C
102
{ACAD_REACTORS
330
16
102
}
330
16
100
AcDbVisualStyle
  2
Shaded
 70
27
 90
2
 40
0.6
 62
7
290
0
291
0
  0
VISUALSTYLE
  5
6D
102
{ACAD_REACTORS
330
16
102
}
330
16
100
AcDbVisualStyle
  2
Shaded with edges
 70
26
 90
2
 40
0.6
 62
7
290
0
291
0
  0
VISUALSTYLE
  5
6E
102
{ACAD_REACTORS
330
16
102
}
330
16
100
AcDbVisualStyle
  2
Shades of Gray
 70
23
 90
2
 40
0.6
 62
7
290
0
291
0
  0
VISUALSTYLE
  5
6F
102
{ACAD_REACTORS
330
16
102
}
330
16
100
AcDbVisualStyle
  2
Sketchy
 70
24
 90
1
 40
0.6
 62
7
290
0
291
0
  0
VISUALSTYLE
  5
70
102
{ACAD_REACTORS
330
16
102
}
330
16
100
AcDbVisualStyle
  2
Thicken
 70
13
 90
2
 40
0.6
 62
7
290
0
291
1
  0
VISUALSTYLE
  5
71
102
{ACAD_REACTORS
330
16
102
}
330
16
100
AcDbVisualStyle
  2
Wireframe
 70
5
 90
0
 40
0.6
 62
7
290
0
291
0
  0
VISUALSTYLE
  5
72
102
{ACAD_REACTORS
330
16
102
}
330
16
100
AcDbVisualStyle
  2
X-Ray
 70
25
 90
2
 40
0.5
 62
7
290
0
291
0
  0
DICTIONARYVAR
  5
98
330
2D
100
DictionaryVariables
280
0
  1
1.4.4 @ 2026-10-03T14:18:38.741892+00:00
  0
ENDSEC
  0
EOF
