  0
SECTION
  2
HEADER
  9
$ACADVER
  1
AC1024
  9
$ACADMAINTVER
 70
6
  9
$DWGCODEPAGE
  3
ANSI_1252
  9
$LASTSAVEDBY
  1
ezdxf
  9
$INSBASE
 10
0.0
 20
0.0
 30
0.0
  9
$EXTMIN
 10
1e+20
 20
1e+20
 30
1e+20
  9
$EXTMAX
 10
-1e+20
 20
-1e+20
 30
-1e+20
  9
$LIMMIN
 10
0.0
 20
0.0
  9
$LIMMAX
 10
420.0
 20
297.0
  9
$ORTHOMODE
 70
0
  9
$REGENMODE
 70
1
  9
$FILLMODE
 70
1
  9
$QTEXTMODE
 70
0
  9
$MIRRTEXT
 70
1
  9
$LTSCALE
 40
1.0
  9
$ATTMODE
 70
1
  9
$TEXTSIZE
 40
2.5
  9
$TRACEWID
 40
1.0
  9
$TEXTSTYLE
  7
Standard
  9
$CLAYER
  8
0
  9
$CELTYPE
  6
ByLayer
  9
$CECOLOR
 62
256
  9
$CELTSCALE
 40
1.0
  9
$DISPSILH
 70
0
  9
$DIMSCALE
 40
1.0
  9
$DIMASZ
 40
2.5
  9
$DIMEXO
 40
0.625
  9
$DIMDLI
 40
3.75
  9
$DIMRND
 40
0.0
  9
$DIMDLE
 40
0.0
  9
$DIMEXE
 40
1.25
  9
$DIMTP
 40
0.0
  9
$DIMTM
 40
0.0
  9
$DIMTXT
 40
2.5
  9
$DIMCEN
 40
2.5
  9
$DIMTSZ
 40
0.0
  9
$DIMTOL
 70
0
  9
$DIMLIM
 70
0
  9
$DIMTIH
 70
0
  9
$DIMTOH
 70
0
  9
$DIMSE1
 70
0
  9
$DIMSE2
 70
0
  9
$DIMTAD
 70
1
  9
$DIMZIN
 70
8
  9
$DIMBLK
  1

  9
$DIMASO
 70
1
  9
$DIMSHO
 70
1
  9
$DIMPOST
  1

  9
$DIMAPOST
  1

  9
$DIMALT
 70
0
  9
$DIMALTD
 70
3
  9
$DIMALTF
 40
0.03937007874
  9
$DIMLFAC
 40
1.0
  9
$DIMTOFL
 70
1
  9
$DIMTVP
 40
0.0
  9
$DIMTIX
 70
0
  9
$DIMSOXD
 70
0
  9
$DIMSAH
 70
0
  9
$DIMBLK1
  1

  9
$DIMBLK2
  1

  9
$DIMSTYLE
  2
ISO-25
  9
$DIMCLRD
 70
0
  9
$DIMCLRE
 70
0
  9
$DIMCLRT
 70
0
  9
$DIMTFAC
 40
1.0
  9
$DIMGAP
 40
0.625
  9
$DIMJUST
 70
0
  9
$DIMSD1
 70
0
  9
$DIMSD2
 70
0
  9
$DIMTOLJ
 70
0
  9
$DIMTZIN
 70
8
  9
$DIMALTZ
 70
0
  9
$DIMALTTZ
 70
0
  9
$DIMUPT
 70
0
  9
$DIMDEC
 70
2
  9
$DIMTDEC
 70
2
  9
$DIMALTU
 70
2
  9
$DIMALTTD
 70
3
  9
$DIMTXSTY
  7
Standard
  9
$DIMAUNIT
 70
0
  9
$DIMADEC
 70
0
  9
$DIMALTRND
 40
0.0
  9
$DIMAZIN
 70
0
  9
$DIMDSEP
 70
44
  9
$DIMATFIT
 70
3
  9
$DIMFRAC
 70
0
  9
$DIMLDRBLK
  1

  9
$DIMLUNIT
 70
2
  9
$DIMLWD
 70
-2
  9
$DIMLWE
 70
-2
  9
$DIMTMOVE
 70
0
  9
$DIMFXL
 40
1.0
  9
$DIMFXLON
 70
0
  9
$DIMJOGANG
 40
0.785398163397
  9
$DIMTFILL
 70
0
  9
$DIMTFILLCLR
 70
0
  9
$DIMARCSYM
 70
0
  9
$DIMLTYPE
  6

  9
$DIMLTEX1
  6

  9
$DIMLTEX2
  6

  9
$DIMTXTDIRECTION
 70
0
  9
$LUNITS
 70
2
  9
$LUPREC
 70
4
  9
$SKETCHINC
 40
1.0
  9
$FILLETRAD
 40
10.0
  9
$AUNITS
 70
0
  9
$AUPREC
 70
2
  9
$MENU
  1
.
  9
$ELEVATION
 40
0.0
  9
$PELEVATION
 40
0.0
  9
$THICKNESS
 40
0.0
  9
$LIMCHECK
 70
0
  9
$CHAMFERA
 40
0.0
  9
$CHAMFERB
 40
0.0
  9
$CHAMFERC
 40
0.0
  9
$CHAMFERD
 40
0.0
  9
$SKPOLY
 70
0
  9
$TDCREATE
 40
2461317.459050926
  9
$TDUCREATE
 40
2458532.153996898
  9
$TDUPDATE
 40
2461317.459050926
  9
$TDUUPDATE
 40
2458532.1544311
  9
$TDINDWG
 40
0.0
  9
$TDUSRTIMER
 40
0.0
  9
$USRTIMER
 70
1
  9
$ANGBASE
 50
0.0
  9
$ANGDIR
 70
0
  9
$PDMODE
 70
0
  9
$PDSIZE
 40
0.0
  9
$PLINEWID
 40
0.0
  9
$SPLFRAME
 70
0
  9
$SPLINETYPE
 70
6
  9
$SPLINESEGS
 70
8
  9
$HANDSEED
  5
48
  9
$SURFTAB1
 70
6
  9
$SURFTAB2
 70
6
  9
$SURFTYPE
 70
6
  9
$SURFU
 70
6
  9
$SURFV
 70
6
  9
$UCSBASE
  2

  9
$UCSNAME
  2

  9
$UCSORG
 10
0.0
 20
0.0
 30
0.0
  9
$UCSXDIR
 10
1.0
 20
0.0
 30
0.0
  9
$UCSYDIR
 10
0.0
 20
1.0
 30
0.0
  9
$UCSORTHOREF
  2

  9
$UCSORTHOVIEW
 70
0
  9
$UCSORGTOP
 10
0.0
 20
0.0
 30
0.0
  9
$UCSORGBOTTOM
 10
0.0
 20
0.0
 30
0.0
  9
$UCSORGLEFT
 10
0.0
 20
0.0
 30
0.0
  9
$UCSORGRIGHT
 10
0.0
 20
0.0
 30
0.0
  9
$UCSORGFRONT
 10
0.0
 20
0.0
 30
0.0
  9
$UCSORGBACK
 10
0.0
 20
0.0
 30
0.0
  9
$PUCSBASE
  2

  9
$PUCSNAME
  2

  9
$PUCSORG
 10
0.0
 20
0.0
 30
0.0
  9
$PUCSXDIR
 10
1.0
 20
0.0
 30
0.0
  9
$PUCSYDIR
 10
0.0
 20
1.0
 30
0.0
  9
$PUCSORTHOREF
  2

  9
$PUCSORTHOVIEW
 70
0
  9
$PUCSORGTOP
 10
0.0
 20
0.0
 30
0.0
  9
$PUCSORGBOTTOM
 10
0.0
 20
0.0
 30
0.0
  9
$PUCSORGLEFT
 10
0.0
 20
0.0
 30
0.0
  9
$PUCSORGRIGHT
 10
0.0
 20
0.0
 30
0.0
  9
$PUCSORGFRONT
 10
0.0
 20
0.0
 30
0.0
  9
$PUCSORGBACK
 10
0.0
 20
0.0
 30
0.0
  9
$USERI1
 70
0
  9
$USERI2
 70
0
  9
$USERI3
 70
0
  9
$USERI4
 70
0
  9
$USERI5
 70
0
  9
$USERR1
 40
0.0
  9
$USERR2
 40
0.0
  9
$USERR3
 40
0.0
  9
$USERR4
 40
0.0
  9
$USERR5
 40
0.0
  9
$WORLDVIEW
 70
1
  9
$SHADEDGE
 70
3
  9
$SHADEDIF
 70
70
  9
$TILEMODE
 70
1
  9
$MAXACTVP
 70
64
  9
$PINSBASE
 10
0.0
 20
0.0
 30
0.0
  9
$PLIMCHECK
 70
0
  9
$PEXTMIN
 10
1e+20
 20
1e+20
 30
1e+20
  9
$PEXTMAX
 10
-1e+20
 20
-1e+20
 30
-1e+20
  9
$PLIMMIN
 10
0.0
 20
0.0
  9
$PLIMMAX
 10
420.0
 20
297.0
  9
$UNITMODE
 70
0
  9
$VISRETAIN
 70
1
  9
$PLINEGEN
 70
0
  9
$PSLTSCALE
 70
1
  9
$TREEDEPTH
 70
3020
  9
$CMLSTYLE
  2
Standard
  9
$CMLJUST
 70
0
  9
$CMLSCALE
 40
20.0
  9
$PROXYGRAPHICS
 70
1
  9
$MEASUREMENT
 70
0
  9
$CELWEIGHT
370
-1
  9
$ENDCAPS
280
0
  9
$JOINSTYLE
280
0
  9
$LWDISPLAY
290
0
  9
$INSUNITS
 70
1
  9
$HYPERLINKBASE
  1

  9
$STYLESHEET
  1

  9
$XEDIT
290
1
  9
$CEPSNTYPE
380
0
  9
$PSTYLEMODE
290
1
  9
$FINGERPRINTGUID
  2
{E06DF453-569B-4BAE-B057-8A7C260758C2}
  9
$VERSIONGUID
  2
{2EE2AC6F-095D-485F-9E1B-43E5C75F91AD}
  9
$EXTNAMES
290
1
  9
$PSVPSCALE
 40
0.0
  9
$OLESTARTUP
290
0
  9
$SORTENTS
280
127
  9
$INDEXCTL
280
0
  9
$HIDETEXT
280
1
  9
$XCLIPFRAME
280
1
  9
$HALOGAP
280
0
  9
$OBSCOLOR
 70
257
  9
$OBSLTYPE
280
0
  9
$INTERSECTIONDISPLAY
280
0
  9
$INTERSECTIONCOLOR
 70
257
  9
$DIMASSOC
280
2
  9
$PROJECTNAME
  1

  9
$CAMERADISPLAY
290
0
  9
$LENSLENGTH
 40
50.0
  9
$CAMERAHEIGHT
 40
0.0
  9
$STEPSPERSEC
 40
24.0
  9
$STEPSIZE
 40
100.0
  9
$3DDWFPREC
 40
2.0
  9
$PSOLWIDTH
 40
0.005
  9
$PSOLHEIGHT
 40
0.08
  9
$LOFTANG1
 40
1.570796326795
  9
$LOFTANG2
 40
1.570796326795
  9
$LOFTMAG1
 40
0.0
  9
$LOFTMAG2
 40
0.0
  9
$LOFTPARAM
 70
7
  9
$LOFTNORMALS
280
1
  9
$LATITUDE
 40
37.795
  9
$LONGITUDE
 40
-122.394
  9
$NORTHDIRECTION
 40
0.0
  9
$TIMEZONE
 70
-8000
  9
$LIGHTGLYPHDISPLAY
280
1
  9
$TILEMODELIGHTSYNCH
280
1
  9
$CMATERIAL
347
20
  9
$SOLIDHIST
280
0
  9
$SHOWHIST
280
1
  9
$DWFFRAME
280
2
  9
$DGNFRAME
280
2
  9
$REALWORLDSCALE
290
1
  9
$INTERFERECOLOR
 62
256
  9
$CSHADOW
280
0
  9
$SHADOWPLANELOCATION
 40
0.0
  0
ENDSEC
  0
SECTION
  2
CLASSES
  0
CLASS
  1
ACDBDICTIONARYWDFLT
  2
AcDbDictionaryWithDefault
  3
ObjectDBX Classes
 90
0
 91
0
280
0
281
0
  0
CLASS
  1
SUN
  2
AcDbSun
  3
SCENEOE
 90
1153
 91
0
280
0
281
0
  0
CLASS
  1
VISUALSTYLE
  2
AcDbVisualStyle
  3
ObjectDBX Classes
 90
4095
 91
0
280
0
281
0
  0
CLASS
  1
MATERIAL
  2
AcDbMaterial
  3
ObjectDBX Classes
 90
1153
 91
0
280
0
281
0
  0
CLASS
  1
SCALE
  2
AcDbScale
  3
ObjectDBX Classes
 90
1153
 91
0
280
0
281
0
  0
CLASS
  1
TABLESTYLE
  2
AcDbTableStyle
  3
ObjectDBX Classes
 90
4095
 91
0
280
0
281
0
  0
CLASS
  1
MLEADERSTYLE
  2
AcDbMLeaderStyle
  3
ACDB_MLEADERSTYLE_CLASS
 90
4095
 91
0
280
0
281
0
  0
CLASS
  1
DICTIONARYVAR
  2
AcDbDictionaryVar
  3
ObjectDBX Classes
 90
0
 91
0
280
0
281
0
  0
CLASS
  1
CELLSTYLEMAP
  2
AcDbCellStyleMap
  3
ObjectDBX Classes
 90
1152
 91
0
280
0
281
0
  0
CLASS
  1
MENTALRAYRENDERSETTINGS
  2
AcDbMentalRayRenderSettings
  3
SCENEOE
 90
1024
 91
0
280
0
281
0
  0
CLASS
  1
ACDBDETAILVIEWSTYLE
  2
AcDbDetailViewStyle
  3
ObjectDBX Classes
 90
1025
 91
0
280
0
281
0
  0
CLASS
  1
ACDBSECTIONVIEWSTYLE
  2
AcDbSectionViewStyle
  3
ObjectDBX Classes
 90
1025
 91
0
280
0
281
0
  0
CLASS
  1
RASTERVARIABLES
  2
AcDbRasterVariables
  3
ISM
 90
0
 91
0
280
0
281
0
  0
CLASS
  1
ACDBPLACEHOLDER
  2
AcDbPlaceHolder
  3
ObjectDBX Classes
 90
0
 91
0
280
0
281
0
  0
CLASS
  1
LAYOUT
  2
AcDbLayout
  3
ObjectDBX Classes
 90
0
 91
0
280
0
281
0
  0
ENDSEC
  0
SECTION
  2
TABLES
  0
TABLE
  2
VPORT
  5
8
330
0
100
AcDbSymbolTable
 70
1
  0
VPORT
  5
23
330
8
100
AcDbSymbolTableRecord
100
AcDbViewportTableRecord
  2
*Active
 70
0
 10
0.0
 20
0.0
 11
1.0
 21
1.0
 12
0.0
 22
0.0
 13
0.0
 23
0.0
 14
0.5
 24
0.5
 15
0.5
 25
0.5
 16
0.0
 26
0.0
 36
1.0
 17
0.0
 27
0.0
 37
0.0
 40
1000.0
 41
1.34
 42
50.0
 43
0.0
 44
0.0
 50
0.0
 51
0.0
 71
0
 72
1000
 73
1
 74
3
 75
0
 76
0
 77
0
 78
0
281
0
 65
0
146
0.0
  0
ENDTAB
  0
TABLE
  2
LTYPE
  5
2
330
0
100
AcDbSymbolTable
 70
3
  0
LTYPE
  5
24
330
2
100
AcDbSymbolTableRecord
100
AcDbLinetypeTableRecord
  2
ByBlock
 70
0
  3

 72
65
 73
0
 40
0.0
  0
LTYPE
  5
25
330
2
100
AcDbSymbolTableRecord
100
AcDbLinetypeTableRecord
  2
ByLayer
 70
0
  3

 72
65
 73
0
 40
0.0
  0
LTYPE
  5
26
330
2
100
AcDbSymbolTableRecord
100
AcDbLinetypeTableRecord
  2
Continuous
 70
0
  3

 72
65
 73
0
 40
0.0
  0
ENDTAB
  0
TABLE
  2
LAYER
  5
1
330
0
100
AcDbSymbolTable
 70
6
  0
LAYER
  5
27
330
1
100
AcDbSymbolTableRecord
100
AcDbLayerTableRecord
  2
0
 70
0
 62
7
  6
Continuous
370
-3
390
13
347
21
  0
LAYER
  5
28
330
1
100
AcDbSymbolTableRecord
100
AcDbLayerTableRecord
  2
Defpoints
 70
0
 62
7
  6
Continuous
290
0
370
-3
390
13
347
21
  0
LAYER
  5
2F
330
1
100
AcDbSymbolTableRecord
100
AcDbLayerTableRecord
  2
CUT
 70
0
 62
7
  6
Continuous
370
-3
390
13
347
21
  0
LAYER
  5
30
330
1
100
AcDbSymbolTableRecord
100
AcDbLayerTableRecord
  2
BEND
 70
0
 62
5
  6
Continuous
370
-3
390
13
347
21
  0
LAYER
  5
31
330
1
100
AcDbSymbolTableRecord
100
AcDbLayerTableRecord
  2
DRILL_LATER
 70
0
 62
1
  6
Continuous
370
-3
390
13
347
21
  0
LAYER
  5
32
330
1
100
AcDbSymbolTableRecord
100
AcDbLayerTableRecord
  2
TEXT
 70
0
 62
3
  6
Continuous
370
-3
390
13
347
21
  0
ENDTAB
  0
TABLE
  2
STYLE
  5
5
330
0
100
AcDbSymbolTable
 70
1
  0
STYLE
  5
29
330
5
100
AcDbSymbolTableRecord
100
AcDbTextStyleTableRecord
  2
Standard
 70
0
 40
0.0
 41
1.0
 50
0.0
 71
0
 42
2.5
  3
txt
  4

  0
ENDTAB
  0
TABLE
  2
VIEW
  5
7
330
0
100
AcDbSymbolTable
 70
0
  0
ENDTAB
  0
TABLE
  2
UCS
  5
6
330
0
100
AcDbSymbolTable
 70
0
  0
ENDTAB
  0
TABLE
  2
APPID
  5
3
330
0
100
AcDbSymbolTable
 70
3
  0
APPID
  5
2A
330
3
100
AcDbSymbolTableRecord
100
AcDbRegAppTableRecord
  2
ACAD
 70
0
  0
APPID
  5
45
330
3
100
AcDbSymbolTableRecord
100
AcDbRegAppTableRecord
  2
HATCHBACKGROUNDCOLOR
 70
0
  0
APPID
  5
46
330
3
100
AcDbSymbolTableRecord
100
AcDbRegAppTableRecord
  2
EZDXF
 70
0
  0
ENDTAB
  0
TABLE
  2
DIMSTYLE
  5
4
330
0
100
AcDbSymbolTable
 70
1
100
AcDbDimStyleTable
  0
DIMSTYLE
105
2B
330
4
100
AcDbSymbolTableRecord
100
AcDbDimStyleTableRecord
  2
Standard
 70
0
 40
1.0
 41
2.5
 42
0.625
 43
3.75
 44
1.25
 45
0.0
 46
0.0
 47
0.0
 48
0.0
 49
2.5
140
2.5
141
2.5
142
0.0
143
0.03937007874
144
1.0
145
0.0
146
1.0
147
0.625
148
0.0
 69
0
 70
0
 71
0
 72
0
 73
0
 74
0
 75
0
 76
0
 77
1
 78
8
 79
3
170
0
171
3
172
1
173
0
174
0
175
0
176
0
177
0
178
0
179
2
271
2
272
2
273
2
274
3
275
0
276
0
277
2
278
44
279
0
280
0
281
0
282
0
283
0
284
8
285
0
286
0
288
0
289
3
290
0
371
-2
372
-2
  0
ENDTAB
  0
TABLE
  2
BLOCK_RECORD
  5
9
330
0
100
AcDbSymbolTable
 70
2
  0
BLOCK_RECORD
  5
17
330
9
100
AcDbSymbolTableRecord
100
AcDbBlockTableRecord
  2
*Model_Space
340
1A
 70
0
280
1
281
0
  0
BLOCK_RECORD
  5
1B
330
9
100
AcDbSymbolTableRecord
100
AcDbBlockTableRecord
  2
*Paper_Space
340
1E
 70
0
280
1
281
0
  0
ENDTAB
  0
ENDSEC
  0
SECTION
  2
BLOCKS
  0
BLOCK
  5
18
330
17
100
AcDbEntity
  8
0
100
AcDbBlockBegin
  2
*Model_Space
 70
0
 10
0.0
 20
0.0
 30
0.0
  3
*Model_Space
  1

  0
ENDBLK
  5
19
330
17
100
AcDbEntity
  8
0
100
AcDbBlockEnd
  0
BLOCK
  5
1C
330
1B
100
AcDbEntity
  8
0
100
AcDbBlockBegin
  2
*Paper_Space
 70
0
 10
0.0
 20
0.0
 30
0.0
  3
*Paper_Space
  1

  0
ENDBLK
  5
1D
330
1B
100
AcDbEntity
  8
0
100
AcDbBlockEnd
  0
ENDSEC
  0
SECTION
  2
ENTITIES
  0
LWPOLYLINE
  5
33
330
17
100
AcDbEntity
  8
CUT
100
AcDbPolyline
 90
19
 70
1
 10
19.0798
 20
0.0
 10
18.6967
 20
0.0
 10
18.6967
 20
0.5
 10
17.6967
 20
0.5
 10
17.6967
 20
0.0
 10
17.3135
 20
0.0
 10
14.2973
 20
0.25
 10
7.7811
 20
0.25
 10
4.7648
 20
0.0
 10
4.3817
 20
0.0
 10
4.3817
 20
0.5
 10
3.3817
 20
0.5
 10
3.3817
 20
0.0
 10
2.9986
 20
0.0
 10
0.0
 20
0.2397
 10
0.0
 20
3.25
 10
22.0784
 20
3.25
 10
22.0784
 20
0.2397
 10
19.0798
 20
0.0
  0
LWPOLYLINE
  5
34
330
17
100
AcDbEntity
  8
CUT
100
AcDbPolyline
 90
131
 70
1
 10
8.4095
 20
1.7359
 10
8.3979
 20
1.7351
 10
8.3864
 20
1.7336
 10
8.375
 20
1.7317
 10
8.3637
 20
1.7291
 10
8.3525
 20
1.726
 10
8.3415
 20
1.7224
 10
8.3307
 20
1.7182
 10
8.3201
 20
1.7135
 10
8.3097
 20
1.7083
 10
8.2996
 20
1.7026
 10
8.2898
 20
1.6964
 10
8.2803
 20
1.6897
 10
8.2712
 20
1.6826
 10
8.2624
 20
1.675
 10
8.254
 20
1.667
 10
8.246
 20
1.6586
 10
8.2385
 20
1.6498
 10
8.2313
 20
1.6407
 10
8.2247
 20
1.6312
 10
8.2185
 20
1.6214
 10
8.2127
 20
1.6113
 10
8.2075
 20
1.601
 10
8.2028
 20
1.5904
 10
8.1987
 20
1.5796
 10
8.195
 20
1.5686
 10
8.1919
 20
1.5574
 10
8.1894
 20
1.5461
 10
8.1874
 20
1.5347
 10
8.186
 20
1.5232
 10
8.1851
 20
1.5116
 10
8.1848
 20
1.5
 10
8.1851
 20
1.4884
 10
8.186
 20
1.4768
 10
8.1874
 20
1.4653
 10
8.1894
 20
1.4539
 10
8.1919
 20
1.4426
 10
8.195
 20
1.4314
 10
8.1987
 20
1.4204
 10
8.2028
 20
1.4096
 10
8.2075
 20
1.399
 10
8.2127
 20
1.3887
 10
8.2185
 20
1.3786
 10
8.2247
 20
1.3688
 10
8.2313
 20
1.3593
 10
8.2385
 20
1.3502
 10
8.246
 20
1.3414
 10
8.254
 20
1.333
 10
8.2624
 20
1.325
 10
8.2712
 20
1.3174
 10
8.2803
 20
1.3103
 10
8.2898
 20
1.3036
 10
8.2996
 20
1.2974
 10
8.3097
 20
1.2917
 10
8.3201
 20
1.2865
 10
8.3307
 20
1.2818
 10
8.3415
 20
1.2776
 10
8.3525
 20
1.274
 10
8.3637
 20
1.2709
 10
8.375
 20
1.2683
 10
8.3864
 20
1.2664
 10
8.3979
 20
1.2649
 10
8.4095
 20
1.2641
 10
8.421
 20
1.2638
 10
8.6573
 20
1.2638
 10
8.6689
 20
1.2641
 10
8.6805
 20
1.2649
 10
8.692
 20
1.2664
 10
8.7034
 20
1.2683
 10
8.7147
 20
1.2709
 10
8.7259
 20
1.274
 10
8.7369
 20
1.2776
 10
8.7477
 20
1.2818
 10
8.7583
 20
1.2865
 10
8.7687
 20
1.2917
 10
8.7788
 20
1.2974
 10
8.7886
 20
1.3036
 10
8.798
 20
1.3103
 10
8.8072
 20
1.3174
 10
8.816
 20
1.325
 10
8.8244
 20
1.333
 10
8.8324
 20
1.3414
 10
8.8399
 20
1.3502
 10
8.8471
 20
1.3593
 10
8.8537
 20
1.3688
 10
8.8599
 20
1.3786
 10
8.8657
 20
1.3887
 10
8.8709
 20
1.399
 10
8.8756
 20
1.4096
 10
8.8797
 20
1.4204
 10
8.8834
 20
1.4314
 10
8.8865
 20
1.4426
 10
8.889
 20
1.4539
 10
8.891
 20
1.4653
 10
8.8924
 20
1.4768
 10
8.8933
 20
1.4884
 10
8.8935
 20
1.5
 10
8.8933
 20
1.5116
 10
8.8924
 20
1.5232
 10
8.891
 20
1.5347
 10
8.889
 20
1.5461
 10
8.8865
 20
1.5574
 10
8.8834
 20
1.5686
 10
8.8797
 20
1.5796
 10
8.8756
 20
1.5904
 10
8.8709
 20
1.601
 10
8.8657
 20
1.6113
 10
8.8599
 20
1.6214
 10
8.8537
 20
1.6312
 10
8.8471
 20
1.6407
 10
8.8399
 20
1.6498
 10
8.8324
 20
1.6586
 10
8.8244
 20
1.667
 10
8.816
 20
1.675
 10
8.8072
 20
1.6826
 10
8.798
 20
1.6897
 10
8.7886
 20
1.6964
 10
8.7788
 20
1.7026
 10
8.7687
 20
1.7083
 10
8.7583
 20
1.7135
 10
8.7477
 20
1.7182
 10
8.7369
 20
1.7224
 10
8.7259
 20
1.726
 10
8.7147
 20
1.7291
 10
8.7034
 20
1.7317
 10
8.692
 20
1.7336
 10
8.6805
 20
1.7351
 10
8.6689
 20
1.7359
 10
8.6573
 20
1.7362
 10
8.421
 20
1.7362
 10
8.4095
 20
1.7359
  0
LWPOLYLINE
  5
35
330
17
100
AcDbEntity
  8
CUT
100
AcDbPolyline
 90
131
 70
1
 10
13.4767
 20
1.6875
 10
13.4614
 20
1.6871
 10
13.4461
 20
1.686
 10
13.4308
 20
1.6841
 10
13.4157
 20
1.6815
 10
13.4008
 20
1.6781
 10
13.386
 20
1.674
 10
13.3714
 20
1.6692
 10
13.3571
 20
1.6637
 10
13.3431
 20
1.6575
 10
13.3294
 20
1.6506
 10
13.316
 20
1.643
 10
13.3031
 20
1.6348
 10
13.2905
 20
1.626
 10
13.2784
 20
1.6166
 10
13.2668
 20
1.6065
 10
13.2557
 20
1.596
 10
13.2451
 20
1.5849
 10
13.2351
 20
1.5732
 10
13.2257
 20
1.5612
 10
13.2169
 20
1.5486
 10
13.2087
 20
1.5357
 10
13.2011
 20
1.5223
 10
13.1942
 20
1.5086
 10
13.188
 20
1.4946
 10
13.1825
 20
1.4803
 10
13.1777
 20
1.4657
 10
13.1736
 20
1.4509
 10
13.1702
 20
1.436
 10
13.1676
 20
1.4209
 10
13.1657
 20
1.4056
 10
13.1646
 20
1.3903
 10
13.1642
 20
1.375
 10
13.1646
 20
1.3597
 10
13.1657
 20
1.3444
 10
13.1676
 20
1.3291
 10
13.1702
 20
1.314
 10
13.1736
 20
1.2991
 10
13.1777
 20
1.2843
 10
13.1825
 20
1.2697
 10
13.188
 20
1.2554
 10
13.1942
 20
1.2414
 10
13.2011
 20
1.2277
 10
13.2087
 20
1.2143
 10
13.2169
 20
1.2014
 10
13.2257
 20
1.1888
 10
13.2351
 20
1.1768
 10
13.2451
 20
1.1651
 10
13.2557
 20
1.154
 10
13.2668
 20
1.1435
 10
13.2784
 20
1.1334
 10
13.2905
 20
1.124
 10
13.3031
 20
1.1152
 10
13.316
 20
1.107
 10
13.3294
 20
1.0994
 10
13.3431
 20
1.0925
 10
13.3571
 20
1.0863
 10
13.3714
 20
1.0808
 10
13.386
 20
1.076
 10
13.4008
 20
1.0719
 10
13.4157
 20
1.0685
 10
13.4308
 20
1.0659
 10
13.4461
 20
1.064
 10
13.4614
 20
1.0629
 10
13.4767
 20
1.0625
 10
13.6017
 20
1.0625
 10
13.617
 20
1.0629
 10
13.6323
 20
1.064
 10
13.6475
 20
1.0659
 10
13.6627
 20
1.0685
 10
13.6776
 20
1.0719
 10
13.6924
 20
1.076
 10
13.707
 20
1.0808
 10
13.7213
 20
1.0863
 10
13.7353
 20
1.0925
 10
13.749
 20
1.0994
 10
13.7624
 20
1.107
 10
13.7753
 20
1.1152
 10
13.7879
 20
1.124
 10
13.7999
 20
1.1334
 10
13.8116
 20
1.1435
 10
13.8227
 20
1.154
 10
13.8332
 20
1.1651
 10
13.8433
 20
1.1768
 10
13.8527
 20
1.1888
 10
13.8615
 20
1.2014
 10
13.8697
 20
1.2143
 10
13.8773
 20
1.2277
 10
13.8842
 20
1.2414
 10
13.8904
 20
1.2554
 10
13.8959
 20
1.2697
 10
13.9007
 20
1.2843
 10
13.9048
 20
1.2991
 10
13.9082
 20
1.314
 10
13.9108
 20
1.3291
 10
13.9127
 20
1.3444
 10
13.9138
 20
1.3597
 10
13.9142
 20
1.375
 10
13.9138
 20
1.3903
 10
13.9127
 20
1.4056
 10
13.9108
 20
1.4209
 10
13.9082
 20
1.436
 10
13.9048
 20
1.4509
 10
13.9007
 20
1.4657
 10
13.8959
 20
1.4803
 10
13.8904
 20
1.4946
 10
13.8842
 20
1.5086
 10
13.8773
 20
1.5223
 10
13.8697
 20
1.5357
 10
13.8615
 20
1.5486
 10
13.8527
 20
1.5612
 10
13.8433
 20
1.5732
 10
13.8332
 20
1.5849
 10
13.8227
 20
1.596
 10
13.8116
 20
1.6065
 10
13.7999
 20
1.6166
 10
13.7879
 20
1.626
 10
13.7753
 20
1.6348
 10
13.7624
 20
1.643
 10
13.749
 20
1.6506
 10
13.7353
 20
1.6575
 10
13.7213
 20
1.6637
 10
13.707
 20
1.6692
 10
13.6924
 20
1.674
 10
13.6776
 20
1.6781
 10
13.6627
 20
1.6815
 10
13.6475
 20
1.6841
 10
13.6323
 20
1.686
 10
13.617
 20
1.6871
 10
13.6017
 20
1.6875
 10
13.4767
 20
1.6875
  0
LWPOLYLINE
  5
36
330
17
100
AcDbEntity
  8
DRILL_LATER
100
AcDbPolyline
 90
99
 70
1
 10
4.1249
 20
1.7362
 10
4.1403
 20
1.7357
 10
4.1557
 20
1.7342
 10
4.171
 20
1.7317
 10
4.186
 20
1.7282
 10
4.2008
 20
1.7237
 10
4.2153
 20
1.7182
 10
4.2294
 20
1.7118
 10
4.243
 20
1.7046
 10
4.2561
 20
1.6964
 10
4.2687
 20
1.6874
 10
4.2806
 20
1.6776
 10
4.2919
 20
1.667
 10
4.3025
 20
1.6557
 10
4.3123
 20
1.6438
 10
4.3213
 20
1.6312
 10
4.3294
 20
1.6181
 10
4.3367
 20
1.6045
 10
4.3431
 20
1.5904
 10
4.3485
 20
1.5759
 10
4.353
 20
1.5611
 10
4.3565
 20
1.5461
 10
4.3591
 20
1.5308
 10
4.3606
 20
1.5154
 10
4.3611
 20
1.5
 10
4.3606
 20
1.4846
 10
4.3591
 20
1.4692
 10
4.3565
 20
1.4539
 10
4.353
 20
1.4389
 10
4.3485
 20
1.4241
 10
4.3431
 20
1.4096
 10
4.3367
 20
1.3955
 10
4.3294
 20
1.3819
 10
4.3213
 20
1.3688
 10
4.3123
 20
1.3562
 10
4.3025
 20
1.3443
 10
4.2919
 20
1.333
 10
4.2806
 20
1.3224
 10
4.2687
 20
1.3126
 10
4.2561
 20
1.3036
 10
4.243
 20
1.2954
 10
4.2294
 20
1.2882
 10
4.2153
 20
1.2818
 10
4.2008
 20
1.2763
 10
4.186
 20
1.2718
 10
4.171
 20
1.2683
 10
4.1557
 20
1.2658
 10
4.1403
 20
1.2643
 10
4.1249
 20
1.2638
 10
3.8886
 20
1.2638
 10
3.8731
 20
1.2643
 10
3.8578
 20
1.2658
 10
3.8425
 20
1.2683
 10
3.8274
 20
1.2718
 10
3.8127
 20
1.2763
 10
3.7982
 20
1.2818
 10
3.7841
 20
1.2882
 10
3.7705
 20
1.2954
 10
3.7574
 20
1.3036
 10
3.7448
 20
1.3126
 10
3.7328
 20
1.3224
 10
3.7216
 20
1.333
 10
3.711
 20
1.3443
 10
3.7012
 20
1.3562
 10
3.6922
 20
1.3688
 10
3.684
 20
1.3819
 10
3.6767
 20
1.3955
 10
3.6704
 20
1.4096
 10
3.6649
 20
1.4241
 10
3.6604
 20
1.4389
 10
3.6569
 20
1.4539
 10
3.6544
 20
1.4692
 10
3.6529
 20
1.4846
 10
3.6524
 20
1.5
 10
3.6529
 20
1.5154
 10
3.6544
 20
1.5308
 10
3.6569
 20
1.5461
 10
3.6604
 20
1.5611
 10
3.6649
 20
1.5759
 10
3.6704
 20
1.5904
 10
3.6767
 20
1.6045
 10
3.684
 20
1.6181
 10
3.6922
 20
1.6312
 10
3.7012
 20
1.6438
 10
3.711
 20
1.6557
 10
3.7216
 20
1.667
 10
3.7328
 20
1.6776
 10
3.7448
 20
1.6874
 10
3.7574
 20
1.6964
 10
3.7705
 20
1.7046
 10
3.7841
 20
1.7118
 10
3.7982
 20
1.7182
 10
3.8127
 20
1.7237
 10
3.8274
 20
1.7282
 10
3.8425
 20
1.7317
 10
3.8578
 20
1.7342
 10
3.8731
 20
1.7357
 10
3.8886
 20
1.7362
 10
4.1249
 20
1.7362
  0
LWPOLYLINE
  5
37
330
17
100
AcDbEntity
  8
DRILL_LATER
100
AcDbPolyline
 90
99
 70
1
 10
18.1342
 20
1.6875
 10
18.1546
 20
1.6868
 10
18.1749
 20
1.6848
 10
18.1951
 20
1.6815
 10
18.215
 20
1.6769
 10
18.2346
 20
1.6709
 10
18.2537
 20
1.6637
 10
18.2724
 20
1.6553
 10
18.2904
 20
1.6456
 10
18.3078
 20
1.6348
 10
18.3244
 20
1.6229
 10
18.3402
 20
1.6099
 10
18.3551
 20
1.596
 10
18.3691
 20
1.581
 10
18.3821
 20
1.5652
 10
18.394
 20
1.5486
 10
18.4048
 20
1.5312
 10
18.4144
 20
1.5132
 10
18.4229
 20
1.4946
 10
18.4301
 20
1.4754
 10
18.436
 20
1.4559
 10
18.4407
 20
1.436
 10
18.444
 20
1.4158
 10
18.446
 20
1.3954
 10
18.4467
 20
1.375
 10
18.446
 20
1.3546
 10
18.444
 20
1.3342
 10
18.4407
 20
1.314
 10
18.436
 20
1.2941
 10
18.4301
 20
1.2746
 10
18.4229
 20
1.2554
 10
18.4144
 20
1.2368
 10
18.4048
 20
1.2188
 10
18.394
 20
1.2014
 10
18.3821
 20
1.1848
 10
18.3691
 20
1.169
 10
18.3551
 20
1.154
 10
18.3402
 20
1.1401
 10
18.3244
 20
1.1271
 10
18.3078
 20
1.1152
 10
18.2904
 20
1.1044
 10
18.2724
 20
1.0947
 10
18.2537
 20
1.0863
 10
18.2346
 20
1.0791
 10
18.215
 20
1.0731
 10
18.1951
 20
1.0685
 10
18.1749
 20
1.0652
 10
18.1546
 20
1.0632
 10
18.1342
 20
1.0625
 10
18.0092
 20
1.0625
 10
17.9887
 20
1.0632
 10
17.9684
 20
1.0652
 10
17.9482
 20
1.0685
 10
17.9283
 20
1.0731
 10
17.9087
 20
1.0791
 10
17.8896
 20
1.0863
 10
17.8709
 20
1.0947
 10
17.8529
 20
1.1044
 10
17.8355
 20
1.1152
 10
17.8189
 20
1.1271
 10
17.8031
 20
1.1401
 10
17.7882
 20
1.154
 10
17.7742
 20
1.169
 10
17.7612
 20
1.1848
 10
17.7493
 20
1.2014
 10
17.7385
 20
1.2188
 10
17.7289
 20
1.2368
 10
17.7204
 20
1.2554
 10
17.7132
 20
1.2746
 10
17.7073
 20
1.2941
 10
17.7027
 20
1.314
 10
17.6993
 20
1.3342
 10
17.6973
 20
1.3546
 10
17.6967
 20
1.375
 10
17.6973
 20
1.3954
 10
17.6993
 20
1.4158
 10
17.7027
 20
1.436
 10
17.7073
 20
1.4559
 10
17.7132
 20
1.4754
 10
17.7204
 20
1.4946
 10
17.7289
 20
1.5132
 10
17.7385
 20
1.5312
 10
17.7493
 20
1.5486
 10
17.7612
 20
1.5652
 10
17.7742
 20
1.581
 10
17.7882
 20
1.596
 10
17.8031
 20
1.6099
 10
17.8189
 20
1.6229
 10
17.8355
 20
1.6348
 10
17.8529
 20
1.6456
 10
17.8709
 20
1.6553
 10
17.8896
 20
1.6637
 10
17.9087
 20
1.6709
 10
17.9283
 20
1.6769
 10
17.9482
 20
1.6815
 10
17.9684
 20
1.6848
 10
17.9887
 20
1.6868
 10
18.0092
 20
1.6875
 10
18.1342
 20
1.6875
  0
LINE
  5
38
330
17
100
AcDbEntity
  8
BEND
100
AcDbLine
 10
2.9986
 20
0.0
 30
0.0
 11
2.9986
 21
3.25
 31
0.0
  0
TEXT
  5
39
330
17
100
AcDbEntity
  8
TEXT
100
AcDbText
 10
2.9986
 20
1.625
 30
0.0
 40
0.12
  1
B1 (1) 90 deg DOWN
100
AcDbText
  0
LINE
  5
3A
330
17
100
AcDbEntity
  8
BEND
100
AcDbLine
 10
4.7648
 20
0.0
 30
0.0
 11
4.7648
 21
3.25
 31
0.0
  0
TEXT
  5
3B
330
17
100
AcDbEntity
  8
TEXT
100
AcDbText
 10
4.7648
 20
1.625
 30
0.0
 40
0.12
  1
B2 (3) 90 deg DOWN
100
AcDbText
  0
LINE
  5
3C
330
17
100
AcDbEntity
  8
BEND
100
AcDbLine
 10
7.7811
 20
0.25
 30
0.0
 11
7.7811
 21
3.25
 31
0.0
  0
TEXT
  5
3D
330
17
100
AcDbEntity
  8
TEXT
100
AcDbText
 10
7.7811
 20
1.75
 30
0.0
 40
0.12
  1
B3 (5) 90 deg DOWN
100
AcDbText
  0
LINE
  5
3E
330
17
100
AcDbEntity
  8
BEND
100
AcDbLine
 10
19.0798
 20
0.0
 30
0.0
 11
19.0798
 21
3.25
 31
0.0
  0
TEXT
  5
3F
330
17
100
AcDbEntity
  8
TEXT
100
AcDbText
 10
19.0798
 20
1.625
 30
0.0
 40
0.12
  1
B4 (2) 90 deg DOWN
100
AcDbText
  0
LINE
  5
40
330
17
100
AcDbEntity
  8
BEND
100
AcDbLine
 10
17.3135
 20
0.0
 30
0.0
 11
17.3135
 21
3.25
 31
0.0
  0
TEXT
  5
41
330
17
100
AcDbEntity
  8
TEXT
100
AcDbText
 10
17.3135
 20
1.625
 30
0.0
 40
0.12
  1
B5 (4) 90 deg DOWN
100
AcDbText
  0
LINE
  5
42
330
17
100
AcDbEntity
  8
BEND
100
AcDbLine
 10
14.2973
 20
0.25
 30
0.0
 11
14.2973
 21
3.25
 31
0.0
  0
TEXT
  5
43
330
17
100
AcDbEntity
  8
TEXT
100
AcDbText
 10
14.2973
 20
1.75
 30
0.0
 40
0.12
  1
B6 (6) 90 deg DOWN
100
AcDbText
  0
TEXT
  5
44
330
17
100
AcDbEntity
  8
TEXT
100
AcDbText
 10
0.0
 20
-0.6
 30
0.0
 40
0.15
  1
FR-2 blank 1: FR-2 one piece (top + 2 U legs)  HR steel sheet 10 ga (0.135")  QTY 1 per side · FR + FL (mirror) = 2 per vehicle
100
AcDbText
  0
ENDSEC
  0
SECTION
  2
OBJECTS
  0
DICTIONARY
  5
A
330
0
100
AcDbDictionary
281
1
  3
ACAD_COLOR
350
B
  3
ACAD_GROUP
350
C
  3
ACAD_LAYOUT
350
D
  3
ACAD_MATERIAL
350
E
  3
ACAD_MLEADERSTYLE
350
F
  3
ACAD_MLINESTYLE
350
10
  3
ACAD_PLOTSETTINGS
350
11
  3
ACAD_PLOTSTYLENAME
350
12
  3
ACAD_SCALELIST
350
14
  3
ACAD_TABLESTYLE
350
15
  3
ACAD_VISUALSTYLE
350
16
  3
EZDXF_META
350
2D
  0
DICTIONARY
  5
B
330
A
100
AcDbDictionary
281
1
  0
DICTIONARY
  5
C
330
A
100
AcDbDictionary
281
1
  0
DICTIONARY
  5
D
330
A
100
AcDbDictionary
281
1
  3
Model
350
1A
  3
Layout1
350
1E
  0
DICTIONARY
  5
E
330
A
100
AcDbDictionary
281
1
  3
ByBlock
350
1F
  3
ByLayer
350
20
  3
Global
350
21
  0
DICTIONARY
  5
F
330
A
100
AcDbDictionary
281
1
  3
Standard
350
2C
  0
DICTIONARY
  5
10
330
A
100
AcDbDictionary
281
1
  3
Standard
350
22
  0
DICTIONARY
  5
11
330
A
100
AcDbDictionary
281
1
  0
ACDBDICTIONARYWDFLT
  5
12
330
A
100
AcDbDictionary
281
1
  3
Normal
350
13
100
AcDbDictionaryWithDefault
340
13
  0
ACDBPLACEHOLDER
  5
13
330
12
  0
DICTIONARY
  5
14
330
A
100
AcDbDictionary
281
1
  0
DICTIONARY
  5
15
330
A
100
AcDbDictionary
281
1
  0
DICTIONARY
  5
16
330
A
100
AcDbDictionary
281
1
  0
LAYOUT
  5
1A
330
D
100
AcDbPlotSettings
  1

  4
A3
  6

 40
7.5
 41
20.0
 42
7.5
 43
20.0
 44
420.0
 45
297.0
 46
0.0
 47
0.0
 48
0.0
 49
0.0
140
0.0
141
0.0
142
1.0
143
1.0
 70
1024
 72
1
 73
0
 74
5
  7

 75
16
 76
0
 77
2
 78
300
147
1.0
148
0.0
149
0.0
100
AcDbLayout
  1
Model
 70
1
 71
0
 10
0.0
 20
0.0
 11
420.0
 21
297.0
 12
0.0
 22
0.0
 32
0.0
 14
1e+20
 24
1e+20
 34
1e+20
 15
-1e+20
 25
-1e+20
 35
-1e+20
146
0.0
 13
0.0
 23
0.0
 33
0.0
 16
1.0
 26
0.0
 36
0.0
 17
0.0
 27
1.0
 37
0.0
 76
1
330
17
  0
LAYOUT
  5
1E
330
D
100
AcDbPlotSettings
  1

  4
A3
  6

 40
7.5
 41
20.0
 42
7.5
 43
20.0
 44
420.0
 45
297.0
 46
0.0
 47
0.0
 48
0.0
 49
0.0
140
0.0
141
0.0
142
1.0
143
1.0
 70
0
 72
1
 73
0
 74
5
  7

 75
16
 76
0
 77
2
 78
300
147
1.0
148
0.0
149
0.0
100
AcDbLayout
  1
Layout1
 70
1
 71
1
 10
0.0
 20
0.0
 11
420.0
 21
297.0
 12
0.0
 22
0.0
 32
0.0
 14
1e+20
 24
1e+20
 34
1e+20
 15
-1e+20
 25
-1e+20
 35
-1e+20
146
0.0
 13
0.0
 23
0.0
 33
0.0
 16
1.0
 26
0.0
 36
0.0
 17
0.0
 27
1.0
 37
0.0
 76
1
330
1B
  0
MATERIAL
  5
1F
102
{ACAD_REACTORS
330
E
102
}
330
E
100
AcDbMaterial
  1
ByBlock
  2

 70
0
 40
1.0
 71
1
 41
1.0
 91
-1023410177
 42
1.0
 72
1
  3

 73
1
 74
1
 75
1
 44
0.5
 73
0
 45
1.0
 46
1.0
 77
1
  4

 78
1
 79
1
170
1
 48
1.0
171
1
  6

172
1
173
1
174
1
140
1.0
141
1.0
175
1
  7

176
1
177
1
178
1
143
1.0
179
1
  8

270
1
271
1
272
1
145
1.0
146
1.0
273
1
  9

274
1
275
1
276
1
 42
1.0
 72
1
  3

 73
1
 74
1
 75
1
 94
63
  0
MATERIAL
  5
20
102
{ACAD_REACTORS
330
E
102
}
330
E
100
AcDbMaterial
  1
ByLayer
  2

 70
0
 40
1.0
 71
1
 41
1.0
 91
-1023410177
 42
1.0
 72
1
  3

 73
1
 74
1
 75
1
 44
0.5
 73
0
 45
1.0
 46
1.0
 77
1
  4

 78
1
 79
1
170
1
 48
1.0
171
1
  6

172
1
173
1
174
1
140
1.0
141
1.0
175
1
  7

176
1
177
1
178
1
143
1.0
179
1
  8

270
1
271
1
272
1
145
1.0
146
1.0
273
1
  9

274
1
275
1
276
1
 42
1.0
 72
1
  3

 73
1
 74
1
 75
1
 94
63
  0
MATERIAL
  5
21
102
{ACAD_REACTORS
330
E
102
}
330
E
100
AcDbMaterial
  1
Global
  2

 70
0
 40
1.0
 71
1
 41
1.0
 91
-1023410177
 42
1.0
 72
1
  3

 73
1
 74
1
 75
1
 44
0.5
 73
0
 45
1.0
 46
1.0
 77
1
  4

 78
1
 79
1
170
1
 48
1.0
171
1
  6

172
1
173
1
174
1
140
1.0
141
1.0
175
1
  7

176
1
177
1
178
1
143
1.0
179
1
  8

270
1
271
1
272
1
145
1.0
146
1.0
273
1
  9

274
1
275
1
276
1
 42
1.0
 72
1
  3

 73
1
 74
1
 75
1
 94
63
  0
MLINESTYLE
  5
22
102
{ACAD_REACTORS
330
10
102
}
330
10
100
AcDbMlineStyle
  2
Standard
 70
0
  3

 62
256
 51
90.0
 52
90.0
 71
2
 49
0.5
 62
256
  6
BYLAYER
 49
-0.5
 62
256
  6
BYLAYER
  0
MLEADERSTYLE
  5
2C
102
{ACAD_REACTORS
330
F
102
}
330
F
100
AcDbMLeaderStyle
179
2
170
2
171
1
172
0
 90
2
 40
0.0
 41
0.0
173
1
 91
-1056964608
 92
-2
290
1
 42
2.0
291
1
 43
8.0
  3
Standard
 44
4.0
300

342
29
174
1
175
1
176
0
178
1
 93
-1056964608
 45
4.0
292
0
297
0
 46
4.0
 94
-1056964608
 47
1.0
 49
1.0
140
1.0
294
1
141
0.0
177
0
142
1.0
295
0
296
0
143
3.75
271
0
272
9
273
9
  0
DICTIONARY
  5
2D
330
A
100
AcDbDictionary
280
1
281
1
  3
CREATED_BY_EZDXF
350
2E
  3
WRITTEN_BY_EZDXF
350
47
  0
DICTIONARYVAR
  5
2E
330
2D
100
DictionaryVariables
280
0
  1
1.4.4 @ 2026-10-03T15:01:02.950583+00:00
  0
DICTIONARYVAR
  5
47
330
2D
100
DictionaryVariables
280
0
  1
1.4.4 @ 2026-10-03T15:01:02.955107+00:00
  0
ENDSEC
  0
EOF
