  0
SECTION
  2
HEADER
  9
$ACADVER
  1
AC1024
  9
$ACADMAINTVER
 70
6
  9
$DWGCODEPAGE
  3
ANSI_1252
  9
$LASTSAVEDBY
  1
ezdxf
  9
$INSBASE
 10
0.0
 20
0.0
 30
0.0
  9
$EXTMIN
 10
1e+20
 20
1e+20
 30
1e+20
  9
$EXTMAX
 10
-1e+20
 20
-1e+20
 30
-1e+20
  9
$LIMMIN
 10
0.0
 20
0.0
  9
$LIMMAX
 10
420.0
 20
297.0
  9
$ORTHOMODE
 70
0
  9
$REGENMODE
 70
1
  9
$FILLMODE
 70
1
  9
$QTEXTMODE
 70
0
  9
$MIRRTEXT
 70
1
  9
$LTSCALE
 40
1.0
  9
$ATTMODE
 70
1
  9
$TEXTSIZE
 40
2.5
  9
$TRACEWID
 40
1.0
  9
$TEXTSTYLE
  7
Standard
  9
$CLAYER
  8
0
  9
$CELTYPE
  6
ByLayer
  9
$CECOLOR
 62
256
  9
$CELTSCALE
 40
1.0
  9
$DISPSILH
 70
0
  9
$DIMSCALE
 40
1.0
  9
$DIMASZ
 40
2.5
  9
$DIMEXO
 40
0.625
  9
$DIMDLI
 40
3.75
  9
$DIMRND
 40
0.0
  9
$DIMDLE
 40
0.0
  9
$DIMEXE
 40
1.25
  9
$DIMTP
 40
0.0
  9
$DIMTM
 40
0.0
  9
$DIMTXT
 40
2.5
  9
$DIMCEN
 40
2.5
  9
$DIMTSZ
 40
0.0
  9
$DIMTOL
 70
0
  9
$DIMLIM
 70
0
  9
$DIMTIH
 70
0
  9
$DIMTOH
 70
0
  9
$DIMSE1
 70
0
  9
$DIMSE2
 70
0
  9
$DIMTAD
 70
1
  9
$DIMZIN
 70
8
  9
$DIMBLK
  1

  9
$DIMASO
 70
1
  9
$DIMSHO
 70
1
  9
$DIMPOST
  1

  9
$DIMAPOST
  1

  9
$DIMALT
 70
0
  9
$DIMALTD
 70
3
  9
$DIMALTF
 40
0.03937007874
  9
$DIMLFAC
 40
1.0
  9
$DIMTOFL
 70
1
  9
$DIMTVP
 40
0.0
  9
$DIMTIX
 70
0
  9
$DIMSOXD
 70
0
  9
$DIMSAH
 70
0
  9
$DIMBLK1
  1

  9
$DIMBLK2
  1

  9
$DIMSTYLE
  2
ISO-25
  9
$DIMCLRD
 70
0
  9
$DIMCLRE
 70
0
  9
$DIMCLRT
 70
0
  9
$DIMTFAC
 40
1.0
  9
$DIMGAP
 40
0.625
  9
$DIMJUST
 70
0
  9
$DIMSD1
 70
0
  9
$DIMSD2
 70
0
  9
$DIMTOLJ
 70
0
  9
$DIMTZIN
 70
8
  9
$DIMALTZ
 70
0
  9
$DIMALTTZ
 70
0
  9
$DIMUPT
 70
0
  9
$DIMDEC
 70
2
  9
$DIMTDEC
 70
2
  9
$DIMALTU
 70
2
  9
$DIMALTTD
 70
3
  9
$DIMTXSTY
  7
Standard
  9
$DIMAUNIT
 70
0
  9
$DIMADEC
 70
0
  9
$DIMALTRND
 40
0.0
  9
$DIMAZIN
 70
0
  9
$DIMDSEP
 70
44
  9
$DIMATFIT
 70
3
  9
$DIMFRAC
 70
0
  9
$DIMLDRBLK
  1

  9
$DIMLUNIT
 70
2
  9
$DIMLWD
 70
-2
  9
$DIMLWE
 70
-2
  9
$DIMTMOVE
 70
0
  9
$DIMFXL
 40
1.0
  9
$DIMFXLON
 70
0
  9
$DIMJOGANG
 40
0.785398163397
  9
$DIMTFILL
 70
0
  9
$DIMTFILLCLR
 70
0
  9
$DIMARCSYM
 70
0
  9
$DIMLTYPE
  6

  9
$DIMLTEX1
  6

  9
$DIMLTEX2
  6

  9
$DIMTXTDIRECTION
 70
0
  9
$LUNITS
 70
2
  9
$LUPREC
 70
4
  9
$SKETCHINC
 40
1.0
  9
$FILLETRAD
 40
10.0
  9
$AUNITS
 70
0
  9
$AUPREC
 70
2
  9
$MENU
  1
.
  9
$ELEVATION
 40
0.0
  9
$PELEVATION
 40
0.0
  9
$THICKNESS
 40
0.0
  9
$LIMCHECK
 70
0
  9
$CHAMFERA
 40
0.0
  9
$CHAMFERB
 40
0.0
  9
$CHAMFERC
 40
0.0
  9
$CHAMFERD
 40
0.0
  9
$SKPOLY
 70
0
  9
$TDCREATE
 40
2461317.4936226853
  9
$TDUCREATE
 40
2458532.153996898
  9
$TDUPDATE
 40
2461317.4936226853
  9
$TDUUPDATE
 40
2458532.1544311
  9
$TDINDWG
 40
0.0
  9
$TDUSRTIMER
 40
0.0
  9
$USRTIMER
 70
1
  9
$ANGBASE
 50
0.0
  9
$ANGDIR
 70
0
  9
$PDMODE
 70
0
  9
$PDSIZE
 40
0.0
  9
$PLINEWID
 40
0.0
  9
$SPLFRAME
 70
0
  9
$SPLINETYPE
 70
6
  9
$SPLINESEGS
 70
8
  9
$HANDSEED
  5
41
  9
$SURFTAB1
 70
6
  9
$SURFTAB2
 70
6
  9
$SURFTYPE
 70
6
  9
$SURFU
 70
6
  9
$SURFV
 70
6
  9
$UCSBASE
  2

  9
$UCSNAME
  2

  9
$UCSORG
 10
0.0
 20
0.0
 30
0.0
  9
$UCSXDIR
 10
1.0
 20
0.0
 30
0.0
  9
$UCSYDIR
 10
0.0
 20
1.0
 30
0.0
  9
$UCSORTHOREF
  2

  9
$UCSORTHOVIEW
 70
0
  9
$UCSORGTOP
 10
0.0
 20
0.0
 30
0.0
  9
$UCSORGBOTTOM
 10
0.0
 20
0.0
 30
0.0
  9
$UCSORGLEFT
 10
0.0
 20
0.0
 30
0.0
  9
$UCSORGRIGHT
 10
0.0
 20
0.0
 30
0.0
  9
$UCSORGFRONT
 10
0.0
 20
0.0
 30
0.0
  9
$UCSORGBACK
 10
0.0
 20
0.0
 30
0.0
  9
$PUCSBASE
  2

  9
$PUCSNAME
  2

  9
$PUCSORG
 10
0.0
 20
0.0
 30
0.0
  9
$PUCSXDIR
 10
1.0
 20
0.0
 30
0.0
  9
$PUCSYDIR
 10
0.0
 20
1.0
 30
0.0
  9
$PUCSORTHOREF
  2

  9
$PUCSORTHOVIEW
 70
0
  9
$PUCSORGTOP
 10
0.0
 20
0.0
 30
0.0
  9
$PUCSORGBOTTOM
 10
0.0
 20
0.0
 30
0.0
  9
$PUCSORGLEFT
 10
0.0
 20
0.0
 30
0.0
  9
$PUCSORGRIGHT
 10
0.0
 20
0.0
 30
0.0
  9
$PUCSORGFRONT
 10
0.0
 20
0.0
 30
0.0
  9
$PUCSORGBACK
 10
0.0
 20
0.0
 30
0.0
  9
$USERI1
 70
0
  9
$USERI2
 70
0
  9
$USERI3
 70
0
  9
$USERI4
 70
0
  9
$USERI5
 70
0
  9
$USERR1
 40
0.0
  9
$USERR2
 40
0.0
  9
$USERR3
 40
0.0
  9
$USERR4
 40
0.0
  9
$USERR5
 40
0.0
  9
$WORLDVIEW
 70
1
  9
$SHADEDGE
 70
3
  9
$SHADEDIF
 70
70
  9
$TILEMODE
 70
1
  9
$MAXACTVP
 70
64
  9
$PINSBASE
 10
0.0
 20
0.0
 30
0.0
  9
$PLIMCHECK
 70
0
  9
$PEXTMIN
 10
1e+20
 20
1e+20
 30
1e+20
  9
$PEXTMAX
 10
-1e+20
 20
-1e+20
 30
-1e+20
  9
$PLIMMIN
 10
0.0
 20
0.0
  9
$PLIMMAX
 10
420.0
 20
297.0
  9
$UNITMODE
 70
0
  9
$VISRETAIN
 70
1
  9
$PLINEGEN
 70
0
  9
$PSLTSCALE
 70
1
  9
$TREEDEPTH
 70
3020
  9
$CMLSTYLE
  2
Standard
  9
$CMLJUST
 70
0
  9
$CMLSCALE
 40
20.0
  9
$PROXYGRAPHICS
 70
1
  9
$MEASUREMENT
 70
0
  9
$CELWEIGHT
370
-1
  9
$ENDCAPS
280
0
  9
$JOINSTYLE
280
0
  9
$LWDISPLAY
290
0
  9
$INSUNITS
 70
1
  9
$HYPERLINKBASE
  1

  9
$STYLESHEET
  1

  9
$XEDIT
290
1
  9
$CEPSNTYPE
380
0
  9
$PSTYLEMODE
290
1
  9
$FINGERPRINTGUID
  2
{2B18903F-2353-4FE8-9B09-AF8E62BBA6DF}
  9
$VERSIONGUID
  2
{8382C31C-E6CA-4362-ACEF-41C4683A2249}
  9
$EXTNAMES
290
1
  9
$PSVPSCALE
 40
0.0
  9
$OLESTARTUP
290
0
  9
$SORTENTS
280
127
  9
$INDEXCTL
280
0
  9
$HIDETEXT
280
1
  9
$XCLIPFRAME
280
1
  9
$HALOGAP
280
0
  9
$OBSCOLOR
 70
257
  9
$OBSLTYPE
280
0
  9
$INTERSECTIONDISPLAY
280
0
  9
$INTERSECTIONCOLOR
 70
257
  9
$DIMASSOC
280
2
  9
$PROJECTNAME
  1

  9
$CAMERADISPLAY
290
0
  9
$LENSLENGTH
 40
50.0
  9
$CAMERAHEIGHT
 40
0.0
  9
$STEPSPERSEC
 40
24.0
  9
$STEPSIZE
 40
100.0
  9
$3DDWFPREC
 40
2.0
  9
$PSOLWIDTH
 40
0.005
  9
$PSOLHEIGHT
 40
0.08
  9
$LOFTANG1
 40
1.570796326795
  9
$LOFTANG2
 40
1.570796326795
  9
$LOFTMAG1
 40
0.0
  9
$LOFTMAG2
 40
0.0
  9
$LOFTPARAM
 70
7
  9
$LOFTNORMALS
280
1
  9
$LATITUDE
 40
37.795
  9
$LONGITUDE
 40
-122.394
  9
$NORTHDIRECTION
 40
0.0
  9
$TIMEZONE
 70
-8000
  9
$LIGHTGLYPHDISPLAY
280
1
  9
$TILEMODELIGHTSYNCH
280
1
  9
$CMATERIAL
347
20
  9
$SOLIDHIST
280
0
  9
$SHOWHIST
280
1
  9
$DWFFRAME
280
2
  9
$DGNFRAME
280
2
  9
$REALWORLDSCALE
290
1
  9
$INTERFERECOLOR
 62
256
  9
$CSHADOW
280
0
  9
$SHADOWPLANELOCATION
 40
0.0
  0
ENDSEC
  0
SECTION
  2
CLASSES
  0
CLASS
  1
ACDBDICTIONARYWDFLT
  2
AcDbDictionaryWithDefault
  3
ObjectDBX Classes
 90
0
 91
0
280
0
281
0
  0
CLASS
  1
SUN
  2
AcDbSun
  3
SCENEOE
 90
1153
 91
0
280
0
281
0
  0
CLASS
  1
VISUALSTYLE
  2
AcDbVisualStyle
  3
ObjectDBX Classes
 90
4095
 91
0
280
0
281
0
  0
CLASS
  1
MATERIAL
  2
AcDbMaterial
  3
ObjectDBX Classes
 90
1153
 91
0
280
0
281
0
  0
CLASS
  1
SCALE
  2
AcDbScale
  3
ObjectDBX Classes
 90
1153
 91
0
280
0
281
0
  0
CLASS
  1
TABLESTYLE
  2
AcDbTableStyle
  3
ObjectDBX Classes
 90
4095
 91
0
280
0
281
0
  0
CLASS
  1
MLEADERSTYLE
  2
AcDbMLeaderStyle
  3
ACDB_MLEADERSTYLE_CLASS
 90
4095
 91
0
280
0
281
0
  0
CLASS
  1
DICTIONARYVAR
  2
AcDbDictionaryVar
  3
ObjectDBX Classes
 90
0
 91
0
280
0
281
0
  0
CLASS
  1
CELLSTYLEMAP
  2
AcDbCellStyleMap
  3
ObjectDBX Classes
 90
1152
 91
0
280
0
281
0
  0
CLASS
  1
MENTALRAYRENDERSETTINGS
  2
AcDbMentalRayRenderSettings
  3
SCENEOE
 90
1024
 91
0
280
0
281
0
  0
CLASS
  1
ACDBDETAILVIEWSTYLE
  2
AcDbDetailViewStyle
  3
ObjectDBX Classes
 90
1025
 91
0
280
0
281
0
  0
CLASS
  1
ACDBSECTIONVIEWSTYLE
  2
AcDbSectionViewStyle
  3
ObjectDBX Classes
 90
1025
 91
0
280
0
281
0
  0
CLASS
  1
RASTERVARIABLES
  2
AcDbRasterVariables
  3
ISM
 90
0
 91
0
280
0
281
0
  0
CLASS
  1
ACDBPLACEHOLDER
  2
AcDbPlaceHolder
  3
ObjectDBX Classes
 90
0
 91
0
280
0
281
0
  0
CLASS
  1
LAYOUT
  2
AcDbLayout
  3
ObjectDBX Classes
 90
0
 91
0
280
0
281
0
  0
ENDSEC
  0
SECTION
  2
TABLES
  0
TABLE
  2
VPORT
  5
8
330
0
100
AcDbSymbolTable
 70
1
  0
VPORT
  5
23
330
8
100
AcDbSymbolTableRecord
100
AcDbViewportTableRecord
  2
*Active
 70
0
 10
0.0
 20
0.0
 11
1.0
 21
1.0
 12
0.0
 22
0.0
 13
0.0
 23
0.0
 14
0.5
 24
0.5
 15
0.5
 25
0.5
 16
0.0
 26
0.0
 36
1.0
 17
0.0
 27
0.0
 37
0.0
 40
1000.0
 41
1.34
 42
50.0
 43
0.0
 44
0.0
 50
0.0
 51
0.0
 71
0
 72
1000
 73
1
 74
3
 75
0
 76
0
 77
0
 78
0
281
0
 65
0
146
0.0
  0
ENDTAB
  0
TABLE
  2
LTYPE
  5
2
330
0
100
AcDbSymbolTable
 70
3
  0
LTYPE
  5
24
330
2
100
AcDbSymbolTableRecord
100
AcDbLinetypeTableRecord
  2
ByBlock
 70
0
  3

 72
65
 73
0
 40
0.0
  0
LTYPE
  5
25
330
2
100
AcDbSymbolTableRecord
100
AcDbLinetypeTableRecord
  2
ByLayer
 70
0
  3

 72
65
 73
0
 40
0.0
  0
LTYPE
  5
26
330
2
100
AcDbSymbolTableRecord
100
AcDbLinetypeTableRecord
  2
Continuous
 70
0
  3

 72
65
 73
0
 40
0.0
  0
ENDTAB
  0
TABLE
  2
LAYER
  5
1
330
0
100
AcDbSymbolTable
 70
6
  0
LAYER
  5
27
330
1
100
AcDbSymbolTableRecord
100
AcDbLayerTableRecord
  2
0
 70
0
 62
7
  6
Continuous
370
-3
390
13
347
21
  0
LAYER
  5
28
330
1
100
AcDbSymbolTableRecord
100
AcDbLayerTableRecord
  2
Defpoints
 70
0
 62
7
  6
Continuous
290
0
370
-3
390
13
347
21
  0
LAYER
  5
2F
330
1
100
AcDbSymbolTableRecord
100
AcDbLayerTableRecord
  2
CUT
 70
0
 62
7
  6
Continuous
370
-3
390
13
347
21
  0
LAYER
  5
30
330
1
100
AcDbSymbolTableRecord
100
AcDbLayerTableRecord
  2
BEND
 70
0
 62
5
  6
Continuous
370
-3
390
13
347
21
  0
LAYER
  5
31
330
1
100
AcDbSymbolTableRecord
100
AcDbLayerTableRecord
  2
DRILL_LATER
 70
0
 62
1
  6
Continuous
370
-3
390
13
347
21
  0
LAYER
  5
32
330
1
100
AcDbSymbolTableRecord
100
AcDbLayerTableRecord
  2
TEXT
 70
0
 62
3
  6
Continuous
370
-3
390
13
347
21
  0
ENDTAB
  0
TABLE
  2
STYLE
  5
5
330
0
100
AcDbSymbolTable
 70
1
  0
STYLE
  5
29
330
5
100
AcDbSymbolTableRecord
100
AcDbTextStyleTableRecord
  2
Standard
 70
0
 40
0.0
 41
1.0
 50
0.0
 71
0
 42
2.5
  3
txt
  4

  0
ENDTAB
  0
TABLE
  2
VIEW
  5
7
330
0
100
AcDbSymbolTable
 70
0
  0
ENDTAB
  0
TABLE
  2
UCS
  5
6
330
0
100
AcDbSymbolTable
 70
0
  0
ENDTAB
  0
TABLE
  2
APPID
  5
3
330
0
100
AcDbSymbolTable
 70
3
  0
APPID
  5
2A
330
3
100
AcDbSymbolTableRecord
100
AcDbRegAppTableRecord
  2
ACAD
 70
0
  0
APPID
  5
3E
330
3
100
AcDbSymbolTableRecord
100
AcDbRegAppTableRecord
  2
HATCHBACKGROUNDCOLOR
 70
0
  0
APPID
  5
3F
330
3
100
AcDbSymbolTableRecord
100
AcDbRegAppTableRecord
  2
EZDXF
 70
0
  0
ENDTAB
  0
TABLE
  2
DIMSTYLE
  5
4
330
0
100
AcDbSymbolTable
 70
1
100
AcDbDimStyleTable
  0
DIMSTYLE
105
2B
330
4
100
AcDbSymbolTableRecord
100
AcDbDimStyleTableRecord
  2
Standard
 70
0
 40
1.0
 41
2.5
 42
0.625
 43
3.75
 44
1.25
 45
0.0
 46
0.0
 47
0.0
 48
0.0
 49
2.5
140
2.5
141
2.5
142
0.0
143
0.03937007874
144
1.0
145
0.0
146
1.0
147
0.625
148
0.0
 69
0
 70
0
 71
0
 72
0
 73
0
 74
0
 75
0
 76
0
 77
1
 78
8
 79
3
170
0
171
3
172
1
173
0
174
0
175
0
176
0
177
0
178
0
179
2
271
2
272
2
273
2
274
3
275
0
276
0
277
2
278
44
279
0
280
0
281
0
282
0
283
0
284
8
285
0
286
0
288
0
289
3
290
0
371
-2
372
-2
  0
ENDTAB
  0
TABLE
  2
BLOCK_RECORD
  5
9
330
0
100
AcDbSymbolTable
 70
2
  0
BLOCK_RECORD
  5
17
330
9
100
AcDbSymbolTableRecord
100
AcDbBlockTableRecord
  2
*Model_Space
340
1A
 70
0
280
1
281
0
  0
BLOCK_RECORD
  5
1B
330
9
100
AcDbSymbolTableRecord
100
AcDbBlockTableRecord
  2
*Paper_Space
340
1E
 70
0
280
1
281
0
  0
ENDTAB
  0
ENDSEC
  0
SECTION
  2
BLOCKS
  0
BLOCK
  5
18
330
17
100
AcDbEntity
  8
0
100
AcDbBlockBegin
  2
*Model_Space
 70
0
 10
0.0
 20
0.0
 30
0.0
  3
*Model_Space
  1

  0
ENDBLK
  5
19
330
17
100
AcDbEntity
  8
0
100
AcDbBlockEnd
  0
BLOCK
  5
1C
330
1B
100
AcDbEntity
  8
0
100
AcDbBlockBegin
  2
*Paper_Space
 70
0
 10
0.0
 20
0.0
 30
0.0
  3
*Paper_Space
  1

  0
ENDBLK
  5
1D
330
1B
100
AcDbEntity
  8
0
100
AcDbBlockEnd
  0
ENDSEC
  0
SECTION
  2
ENTITIES
  0
LWPOLYLINE
  5
33
330
17
100
AcDbEntity
  8
CUT
100
AcDbPolyline
 90
494
 70
1
 10
0.75
 20
6.6605
 10
0.7501
 20
6.6605
 10
0.7501
 20
6.6605
 10
0.7501
 20
6.6604
 10
0.7501
 20
6.6604
 10
0.7502
 20
6.6603
 10
0.7502
 20
6.6603
 10
0.7503
 20
6.6603
 10
0.7503
 20
6.6603
 10
0.7504
 20
6.6603
 10
0.7504
 20
6.6602
 10
0.7505
 20
6.6602
 10
0.7505
 20
6.6602
 10
3.75
 20
6.6602
 10
3.75
 20
6.6602
 10
3.75
 20
6.6602
 10
3.75
 20
6.6512
 10
3.75
 20
6.6512
 10
3.75
 20
6.6511
 10
3.75
 20
6.6511
 10
3.75
 20
6.651
 10
3.7501
 20
6.651
 10
3.7501
 20
6.651
 10
3.7501
 20
6.6509
 10
3.7501
 20
6.6509
 10
3.7502
 20
6.6508
 10
3.7502
 20
6.6508
 10
3.7503
 20
6.6508
 10
3.7503
 20
6.6508
 10
3.7504
 20
6.6508
 10
3.7504
 20
6.6507
 10
3.7505
 20
6.6507
 10
3.7505
 20
6.6507
 10
4.6547
 20
6.6507
 10
4.9007
 20
6.0257
 10
5.1468
 20
6.6507
 10
6.051
 20
6.6507
 10
6.051
 20
6.6507
 10
6.0511
 20
6.6507
 10
6.0511
 20
6.6508
 10
6.0512
 20
6.6508
 10
6.0512
 20
6.6508
 10
6.0512
 20
6.6508
 10
6.0513
 20
6.6508
 10
6.0513
 20
6.6509
 10
6.0514
 20
6.6509
 10
6.0514
 20
6.651
 10
6.0514
 20
6.651
 10
6.0514
 20
6.651
 10
6.0514
 20
6.6511
 10
6.0515
 20
6.6511
 10
6.0515
 20
6.6512
 10
6.0515
 20
6.6512
 10
6.0515
 20
6.6602
 10
6.0515
 20
6.6602
 10
6.0515
 20
6.6602
 10
9.051
 20
6.6602
 10
9.051
 20
6.6602
 10
9.0511
 20
6.6602
 10
9.0511
 20
6.6603
 10
9.0512
 20
6.6603
 10
9.0512
 20
6.6603
 10
9.0512
 20
6.6603
 10
9.0513
 20
6.6603
 10
9.0513
 20
6.6604
 10
9.0514
 20
6.6604
 10
9.0514
 20
6.6605
 10
9.0514
 20
6.6605
 10
9.0514
 20
6.6605
 10
9.0514
 20
6.6606
 10
9.0515
 20
6.6606
 10
9.0515
 20
6.6607
 10
9.0515
 20
6.6607
 10
9.0515
 20
8.1602
 10
9.0515
 20
8.1602
 10
9.0515
 20
8.1602
 10
9.0883
 20
8.1593
 10
9.0883
 20
8.1593
 10
9.125
 20
8.1566
 10
9.125
 20
8.1566
 10
9.1615
 20
8.1521
 10
9.1615
 20
8.1521
 10
9.1978
 20
8.1458
 10
9.1978
 20
8.1458
 10
9.2337
 20
8.1378
 10
9.2337
 20
8.1378
 10
9.2692
 20
8.1279
 10
9.2692
 20
8.1279
 10
9.3041
 20
8.1164
 10
9.3041
 20
8.1164
 10
9.3385
 20
8.1031
 10
9.3385
 20
8.1031
 10
9.3721
 20
8.0882
 10
9.3721
 20
8.0882
 10
9.405
 20
8.0717
 10
9.405
 20
8.0717
 10
9.437
 20
8.0535
 10
9.437
 20
8.0535
 10
9.4681
 20
8.0338
 10
9.4681
 20
8.0338
 10
9.4982
 20
8.0126
 10
9.4982
 20
8.0126
 10
9.5273
 20
7.99
 10
9.5273
 20
7.99
 10
9.5551
 20
7.9659
 10
9.5551
 20
7.9659
 10
9.5818
 20
7.9406
 10
9.5818
 20
7.9406
 10
9.6072
 20
7.9139
 10
9.6072
 20
7.9139
 10
9.6312
 20
7.886
 10
9.6312
 20
7.886
 10
9.6539
 20
7.857
 10
9.6539
 20
7.857
 10
9.6751
 20
7.8269
 10
9.6751
 20
7.8269
 10
9.6948
 20
7.7958
 10
9.6948
 20
7.7958
 10
9.7129
 20
7.7638
 10
9.7129
 20
7.7638
 10
9.7295
 20
7.7309
 10
9.7295
 20
7.7309
 10
9.7444
 20
7.6973
 10
9.7444
 20
7.6972
 10
9.7576
 20
7.6629
 10
9.7576
 20
7.6629
 10
9.7692
 20
7.628
 10
9.7692
 20
7.6279
 10
9.779
 20
7.5925
 10
9.779
 20
7.5925
 10
9.7871
 20
7.5566
 10
9.7871
 20
7.5565
 10
9.7933
 20
7.5203
 10
9.7933
 20
7.5203
 10
9.7979
 20
7.4838
 10
9.7979
 20
7.4837
 10
9.8006
 20
7.447
 10
9.8006
 20
7.447
 10
9.8015
 20
7.4102
 10
9.8015
 20
7.4102
 10
9.8015
 20
3.7852
 10
9.8015
 20
3.7852
 10
9.8007
 20
3.7546
 10
9.8007
 20
3.7546
 10
9.7985
 20
3.724
 10
9.7985
 20
3.724
 10
9.7947
 20
3.6935
 10
9.7947
 20
3.6935
 10
9.7895
 20
3.6633
 10
9.7895
 20
3.6633
 10
9.7827
 20
3.6334
 10
9.7827
 20
3.6334
 10
9.7746
 20
3.6038
 10
9.7745
 20
3.6038
 10
9.7649
 20
3.5747
 10
9.7649
 20
3.5747
 10
9.7539
 20
3.5461
 10
9.7539
 20
3.546
 10
9.7415
 20
3.518
 10
9.7415
 20
3.518
 10
9.7277
 20
3.4906
 10
9.7277
 20
3.4906
 10
9.7125
 20
3.4639
 10
9.7125
 20
3.4639
 10
9.6961
 20
3.438
 10
9.6961
 20
3.438
 10
9.6785
 20
3.4129
 10
9.6785
 20
3.4129
 10
9.6596
 20
3.3887
 10
9.6596
 20
3.3887
 10
9.6396
 20
3.3655
 10
9.6396
 20
3.3655
 10
9.6184
 20
3.3433
 10
9.6184
 20
3.3433
 10
9.5962
 20
3.3221
 10
9.5962
 20
3.3221
 10
9.573
 20
3.3021
 10
9.573
 20
3.3021
 10
9.5488
 20
3.2832
 10
9.5488
 20
3.2832
 10
9.5237
 20
3.2656
 10
9.5237
 20
3.2656
 10
9.4978
 20
3.2492
 10
9.4978
 20
3.2491
 10
9.4711
 20
3.234
 10
9.4711
 20
3.234
 10
9.4437
 20
3.2202
 10
9.4437
 20
3.2202
 10
9.4156
 20
3.2078
 10
9.4156
 20
3.2078
 10
9.387
 20
3.1968
 10
9.387
 20
3.1968
 10
9.3579
 20
3.1871
 10
9.3579
 20
3.1871
 10
9.3283
 20
3.179
 10
9.3283
 20
3.179
 10
9.2984
 20
3.1722
 10
9.2984
 20
3.1722
 10
9.2682
 20
3.167
 10
9.2682
 20
3.167
 10
9.2377
 20
3.1632
 10
9.2377
 20
3.1632
 10
9.2071
 20
3.161
 10
9.2071
 20
3.161
 10
9.1765
 20
3.1602
 10
9.1765
 20
3.1602
 10
6.1828
 20
3.1602
 10
6.1826
 20
3.1622
 10
6.181
 20
3.1719
 10
6.1787
 20
3.1814
 10
6.1759
 20
3.1908
 10
6.1724
 20
3.2
 10
6.1684
 20
3.209
 10
6.1638
 20
3.2176
 10
6.1586
 20
3.226
 10
6.1529
 20
3.2339
 10
6.1466
 20
3.2415
 10
6.1399
 20
3.2487
 10
6.1327
 20
3.2554
 10
6.1252
 20
3.2616
 10
6.1172
 20
3.2673
 10
6.1088
 20
3.2725
 10
6.1002
 20
3.2771
 10
6.0913
 20
3.2812
 10
6.0821
 20
3.2847
 10
6.0727
 20
3.2875
 10
6.0631
 20
3.2897
 10
6.0534
 20
3.2913
 10
6.0437
 20
3.2923
 10
6.0338
 20
3.2926
 10
6.024
 20
3.2923
 10
6.0143
 20
3.2913
 10
6.0046
 20
3.2897
 10
5.995
 20
3.2875
 10
5.9856
 20
3.2847
 10
5.9764
 20
3.2812
 10
5.9675
 20
3.2771
 10
5.9588
 20
3.2725
 10
5.9505
 20
3.2673
 10
5.9425
 20
3.2616
 10
5.9349
 20
3.2554
 10
5.9278
 20
3.2487
 10
5.9211
 20
3.2415
 10
5.9148
 20
3.2339
 10
5.9091
 20
3.226
 10
5.9039
 20
3.2176
 10
5.8993
 20
3.209
 10
5.8953
 20
3.2
 10
5.8918
 20
3.1908
 10
5.889
 20
3.1814
 10
5.8867
 20
3.1719
 10
5.8851
 20
3.1622
 10
5.8842
 20
3.1524
 10
5.8838
 20
3.1426
 10
5.8842
 20
3.1328
 10
5.8851
 20
3.123
 10
5.8867
 20
3.1134
 10
5.889
 20
3.1038
 10
5.8918
 20
3.0944
 10
5.8953
 20
3.0852
 10
5.8993
 20
3.0763
 10
5.9039
 20
3.0676
 10
5.9091
 20
3.0593
 10
5.9148
 20
3.0513
 10
5.9211
 20
3.0437
 10
5.9278
 20
3.0365
 10
5.9349
 20
3.0298
 10
5.9425
 20
3.0236
 10
5.9505
 20
3.0179
 10
5.9588
 20
3.0127
 10
5.9675
 20
3.0081
 10
5.9764
 20
3.004
 10
5.9856
 20
3.0006
 10
5.995
 20
2.9977
 10
6.0046
 20
2.9955
 10
6.0143
 20
2.9939
 10
6.024
 20
2.9929
 10
6.0338
 20
2.9926
 10
6.0338
 20
0.0
 10
6.0338
 20
0.0
 10
6.0338
 20
0.0
 10
3.7676
 20
0.0
 10
3.7676
 20
0.0
 10
3.7676
 20
0.0
 10
3.7676
 20
2.9926
 10
3.7774
 20
2.9929
 10
3.7872
 20
2.9939
 10
3.7969
 20
2.9955
 10
3.8064
 20
2.9977
 10
3.8158
 20
3.0006
 10
3.825
 20
3.004
 10
3.834
 20
3.0081
 10
3.8426
 20
3.0127
 10
3.851
 20
3.0179
 10
3.8589
 20
3.0236
 10
3.8665
 20
3.0298
 10
3.8737
 20
3.0365
 10
3.8804
 20
3.0437
 10
3.8866
 20
3.0513
 10
3.8923
 20
3.0593
 10
3.8975
 20
3.0676
 10
3.9021
 20
3.0763
 10
3.9062
 20
3.0852
 10
3.9097
 20
3.0944
 10
3.9125
 20
3.1038
 10
3.9147
 20
3.1134
 10
3.9163
 20
3.123
 10
3.9173
 20
3.1328
 10
3.9176
 20
3.1426
 10
3.9173
 20
3.1524
 10
3.9163
 20
3.1622
 10
3.9147
 20
3.1719
 10
3.9125
 20
3.1814
 10
3.9097
 20
3.1908
 10
3.9062
 20
3.2
 10
3.9021
 20
3.209
 10
3.8975
 20
3.2176
 10
3.8923
 20
3.226
 10
3.8866
 20
3.2339
 10
3.8804
 20
3.2415
 10
3.8737
 20
3.2487
 10
3.8665
 20
3.2554
 10
3.8589
 20
3.2616
 10
3.851
 20
3.2673
 10
3.8426
 20
3.2725
 10
3.834
 20
3.2771
 10
3.825
 20
3.2812
 10
3.8158
 20
3.2847
 10
3.8064
 20
3.2875
 10
3.7969
 20
3.2897
 10
3.7872
 20
3.2913
 10
3.7774
 20
3.2923
 10
3.7676
 20
3.2926
 10
3.7578
 20
3.2923
 10
3.748
 20
3.2913
 10
3.7384
 20
3.2897
 10
3.7288
 20
3.2875
 10
3.7194
 20
3.2847
 10
3.7102
 20
3.2812
 10
3.7013
 20
3.2771
 10
3.6926
 20
3.2725
 10
3.6843
 20
3.2673
 10
3.6763
 20
3.2616
 10
3.6687
 20
3.2554
 10
3.6615
 20
3.2487
 10
3.6548
 20
3.2415
 10
3.6486
 20
3.2339
 10
3.6429
 20
3.226
 10
3.6377
 20
3.2176
 10
3.6331
 20
3.209
 10
3.629
 20
3.2
 10
3.6256
 20
3.1908
 10
3.6227
 20
3.1814
 10
3.6205
 20
3.1719
 10
3.6189
 20
3.1622
 10
3.6187
 20
3.1602
 10
0.625
 20
3.1602
 10
0.625
 20
3.1602
 10
0.5943
 20
3.161
 10
0.5943
 20
3.161
 10
0.5637
 20
3.1632
 10
0.5637
 20
3.1632
 10
0.5333
 20
3.167
 10
0.5333
 20
3.167
 10
0.5031
 20
3.1722
 10
0.5031
 20
3.1722
 10
0.4731
 20
3.179
 10
0.4731
 20
3.179
 10
0.4436
 20
3.1871
 10
0.4436
 20
3.1871
 10
0.4144
 20
3.1968
 10
0.4144
 20
3.1968
 10
0.3858
 20
3.2078
 10
0.3858
 20
3.2078
 10
0.3578
 20
3.2202
 10
0.3578
 20
3.2202
 10
0.3304
 20
3.234
 10
0.3304
 20
3.234
 10
0.3037
 20
3.2491
 10
0.3037
 20
3.2492
 10
0.2778
 20
3.2656
 10
0.2778
 20
3.2656
 10
0.2527
 20
3.2832
 10
0.2527
 20
3.2832
 10
0.2285
 20
3.3021
 10
0.2285
 20
3.3021
 10
0.2053
 20
3.3221
 10
0.2053
 20
3.3221
 10
0.1831
 20
3.3433
 10
0.1831
 20
3.3433
 10
0.1619
 20
3.3655
 10
0.1619
 20
3.3655
 10
0.1419
 20
3.3887
 10
0.1419
 20
3.3887
 10
0.123
 20
3.4129
 10
0.123
 20
3.4129
 10
0.1053
 20
3.438
 10
0.1053
 20
3.438
 10
0.0889
 20
3.4639
 10
0.0889
 20
3.4639
 10
0.0738
 20
3.4906
 10
0.0738
 20
3.4906
 10
0.06
 20
3.518
 10
0.06
 20
3.518
 10
0.0476
 20
3.546
 10
0.0476
 20
3.5461
 10
0.0365
 20
3.5747
 10
0.0365
 20
3.5747
 10
0.0269
 20
3.6038
 10
0.0269
 20
3.6038
 10
0.0187
 20
3.6334
 10
0.0187
 20
3.6334
 10
0.012
 20
3.6633
 10
0.012
 20
3.6633
 10
0.0068
 20
3.6935
 10
0.0068
 20
3.6935
 10
0.003
 20
3.724
 10
0.003
 20
3.724
 10
0.0008
 20
3.7546
 10
0.0008
 20
3.7546
 10
0.0
 20
3.7852
 10
0.0
 20
3.7852
 10
0.0
 20
7.4102
 10
0.0
 20
7.4102
 10
0.0009
 20
7.447
 10
0.0009
 20
7.447
 10
0.0036
 20
7.4837
 10
0.0036
 20
7.4838
 10
0.0081
 20
7.5203
 10
0.0081
 20
7.5203
 10
0.0144
 20
7.5565
 10
0.0144
 20
7.5566
 10
0.0225
 20
7.5925
 10
0.0225
 20
7.5925
 10
0.0323
 20
7.6279
 10
0.0323
 20
7.628
 10
0.0438
 20
7.6629
 10
0.0438
 20
7.6629
 10
0.0571
 20
7.6972
 10
0.0571
 20
7.6973
 10
0.072
 20
7.7309
 10
0.072
 20
7.7309
 10
0.0886
 20
7.7638
 10
0.0886
 20
7.7638
 10
0.1067
 20
7.7958
 10
0.1067
 20
7.7958
 10
0.1264
 20
7.8269
 10
0.1264
 20
7.8269
 10
0.1476
 20
7.857
 10
0.1476
 20
7.857
 10
0.1702
 20
7.886
 10
0.1702
 20
7.886
 10
0.1943
 20
7.9139
 10
0.1943
 20
7.9139
 10
0.2197
 20
7.9406
 10
0.2197
 20
7.9406
 10
0.2463
 20
7.9659
 10
0.2463
 20
7.9659
 10
0.2742
 20
7.99
 10
0.2742
 20
7.99
 10
0.3032
 20
8.0126
 10
0.3032
 20
8.0126
 10
0.3333
 20
8.0338
 10
0.3333
 20
8.0338
 10
0.3644
 20
8.0535
 10
0.3644
 20
8.0535
 10
0.3964
 20
8.0717
 10
0.3965
 20
8.0717
 10
0.4293
 20
8.0882
 10
0.4293
 20
8.0882
 10
0.463
 20
8.1031
 10
0.463
 20
8.1031
 10
0.4973
 20
8.1164
 10
0.4973
 20
8.1164
 10
0.5323
 20
8.1279
 10
0.5323
 20
8.1279
 10
0.5678
 20
8.1378
 10
0.5678
 20
8.1378
 10
0.6037
 20
8.1458
 10
0.6037
 20
8.1458
 10
0.6399
 20
8.1521
 10
0.64
 20
8.1521
 10
0.6765
 20
8.1566
 10
0.6765
 20
8.1566
 10
0.7132
 20
8.1593
 10
0.7132
 20
8.1593
 10
0.75
 20
8.1602
 10
0.75
 20
8.1602
 10
0.75
 20
8.1602
 10
0.75
 20
6.6607
 10
0.75
 20
6.6607
 10
0.75
 20
6.6606
 10
0.75
 20
6.6606
 10
0.75
 20
6.6605
  0
CIRCLE
  5
34
330
17
100
AcDbEntity
  8
CUT
100
AcDbCircle
 10
2.624999999999998
 20
4.785232524882959
 30
0.0
 40
0.295296464273927
  0
CIRCLE
  5
35
330
17
100
AcDbEntity
  8
CUT
100
AcDbCircle
 10
7.176462618060864
 20
4.785232525506227
 30
0.0
 40
0.2953004136134792
  0
CIRCLE
  5
36
330
17
100
AcDbEntity
  8
CUT
100
AcDbCircle
 10
5.035221579034508
 20
4.900721579034529
 30
0.0
 40
0.2500010678997029
  0
LINE
  5
37
330
17
100
AcDbEntity
  8
BEND
100
AcDbLine
 10
3.9176
 20
3.1426
 30
0.0
 11
6.0338
 21
3.1426
 31
0.0
  0
TEXT
  5
38
330
17
100
AcDbEntity
  8
TEXT
100
AcDbText
 10
4.9757
 20
3.1426
 30
0.0
 40
0.12
  1
B1 (1) 90 deg
100
AcDbText
  0
LINE
  5
39
330
17
100
AcDbEntity
  8
BEND
100
AcDbLine
 10
3.7676
 20
3.2926
 30
0.0
 11
3.7676
 21
6.6507
 31
0.0
  0
TEXT
  5
3A
330
17
100
AcDbEntity
  8
TEXT
100
AcDbText
 10
3.7676
 20
4.97165
 30
0.0
 40
0.12
  1
B2 (2) 90 deg
100
AcDbText
  0
LINE
  5
3B
330
17
100
AcDbEntity
  8
BEND
100
AcDbLine
 10
6.0338
 20
3.2926
 30
0.0
 11
6.0338
 21
6.6507
 31
0.0
  0
TEXT
  5
3C
330
17
100
AcDbEntity
  8
TEXT
100
AcDbText
 10
6.0338
 20
4.97165
 30
0.0
 40
0.12
  1
B3 (3) 90 deg
100
AcDbText
  0
TEXT
  5
3D
330
17
100
AcDbEntity
  8
TEXT
100
AcDbText
 10
0.0
 20
-0.6
 30
0.0
 40
0.15
  1
FR-7 blank 1: FR-7 one piece (back + bottom + 2 sides)  HR steel sheet 10 ga (0.135")  QTY 1 per side · FR + FL (mirror) = 2 per vehicle
100
AcDbText
  0
ENDSEC
  0
SECTION
  2
OBJECTS
  0
DICTIONARY
  5
A
330
0
100
AcDbDictionary
281
1
  3
ACAD_COLOR
350
B
  3
ACAD_GROUP
350
C
  3
ACAD_LAYOUT
350
D
  3
ACAD_MATERIAL
350
E
  3
ACAD_MLEADERSTYLE
350
F
  3
ACAD_MLINESTYLE
350
10
  3
ACAD_PLOTSETTINGS
350
11
  3
ACAD_PLOTSTYLENAME
350
12
  3
ACAD_SCALELIST
350
14
  3
ACAD_TABLESTYLE
350
15
  3
ACAD_VISUALSTYLE
350
16
  3
EZDXF_META
350
2D
  0
DICTIONARY
  5
B
330
A
100
AcDbDictionary
281
1
  0
DICTIONARY
  5
C
330
A
100
AcDbDictionary
281
1
  0
DICTIONARY
  5
D
330
A
100
AcDbDictionary
281
1
  3
Model
350
1A
  3
Layout1
350
1E
  0
DICTIONARY
  5
E
330
A
100
AcDbDictionary
281
1
  3
ByBlock
350
1F
  3
ByLayer
350
20
  3
Global
350
21
  0
DICTIONARY
  5
F
330
A
100
AcDbDictionary
281
1
  3
Standard
350
2C
  0
DICTIONARY
  5
10
330
A
100
AcDbDictionary
281
1
  3
Standard
350
22
  0
DICTIONARY
  5
11
330
A
100
AcDbDictionary
281
1
  0
ACDBDICTIONARYWDFLT
  5
12
330
A
100
AcDbDictionary
281
1
  3
Normal
350
13
100
AcDbDictionaryWithDefault
340
13
  0
ACDBPLACEHOLDER
  5
13
330
12
  0
DICTIONARY
  5
14
330
A
100
AcDbDictionary
281
1
  0
DICTIONARY
  5
15
330
A
100
AcDbDictionary
281
1
  0
DICTIONARY
  5
16
330
A
100
AcDbDictionary
281
1
  0
LAYOUT
  5
1A
330
D
100
AcDbPlotSettings
  1

  4
A3
  6

 40
7.5
 41
20.0
 42
7.5
 43
20.0
 44
420.0
 45
297.0
 46
0.0
 47
0.0
 48
0.0
 49
0.0
140
0.0
141
0.0
142
1.0
143
1.0
 70
1024
 72
1
 73
0
 74
5
  7

 75
16
 76
0
 77
2
 78
300
147
1.0
148
0.0
149
0.0
100
AcDbLayout
  1
Model
 70
1
 71
0
 10
0.0
 20
0.0
 11
420.0
 21
297.0
 12
0.0
 22
0.0
 32
0.0
 14
1e+20
 24
1e+20
 34
1e+20
 15
-1e+20
 25
-1e+20
 35
-1e+20
146
0.0
 13
0.0
 23
0.0
 33
0.0
 16
1.0
 26
0.0
 36
0.0
 17
0.0
 27
1.0
 37
0.0
 76
1
330
17
  0
LAYOUT
  5
1E
330
D
100
AcDbPlotSettings
  1

  4
A3
  6

 40
7.5
 41
20.0
 42
7.5
 43
20.0
 44
420.0
 45
297.0
 46
0.0
 47
0.0
 48
0.0
 49
0.0
140
0.0
141
0.0
142
1.0
143
1.0
 70
0
 72
1
 73
0
 74
5
  7

 75
16
 76
0
 77
2
 78
300
147
1.0
148
0.0
149
0.0
100
AcDbLayout
  1
Layout1
 70
1
 71
1
 10
0.0
 20
0.0
 11
420.0
 21
297.0
 12
0.0
 22
0.0
 32
0.0
 14
1e+20
 24
1e+20
 34
1e+20
 15
-1e+20
 25
-1e+20
 35
-1e+20
146
0.0
 13
0.0
 23
0.0
 33
0.0
 16
1.0
 26
0.0
 36
0.0
 17
0.0
 27
1.0
 37
0.0
 76
1
330
1B
  0
MATERIAL
  5
1F
102
{ACAD_REACTORS
330
E
102
}
330
E
100
AcDbMaterial
  1
ByBlock
  2

 70
0
 40
1.0
 71
1
 41
1.0
 91
-1023410177
 42
1.0
 72
1
  3

 73
1
 74
1
 75
1
 44
0.5
 73
0
 45
1.0
 46
1.0
 77
1
  4

 78
1
 79
1
170
1
 48
1.0
171
1
  6

172
1
173
1
174
1
140
1.0
141
1.0
175
1
  7

176
1
177
1
178
1
143
1.0
179
1
  8

270
1
271
1
272
1
145
1.0
146
1.0
273
1
  9

274
1
275
1
276
1
 42
1.0
 72
1
  3

 73
1
 74
1
 75
1
 94
63
  0
MATERIAL
  5
20
102
{ACAD_REACTORS
330
E
102
}
330
E
100
AcDbMaterial
  1
ByLayer
  2

 70
0
 40
1.0
 71
1
 41
1.0
 91
-1023410177
 42
1.0
 72
1
  3

 73
1
 74
1
 75
1
 44
0.5
 73
0
 45
1.0
 46
1.0
 77
1
  4

 78
1
 79
1
170
1
 48
1.0
171
1
  6

172
1
173
1
174
1
140
1.0
141
1.0
175
1
  7

176
1
177
1
178
1
143
1.0
179
1
  8

270
1
271
1
272
1
145
1.0
146
1.0
273
1
  9

274
1
275
1
276
1
 42
1.0
 72
1
  3

 73
1
 74
1
 75
1
 94
63
  0
MATERIAL
  5
21
102
{ACAD_REACTORS
330
E
102
}
330
E
100
AcDbMaterial
  1
Global
  2

 70
0
 40
1.0
 71
1
 41
1.0
 91
-1023410177
 42
1.0
 72
1
  3

 73
1
 74
1
 75
1
 44
0.5
 73
0
 45
1.0
 46
1.0
 77
1
  4

 78
1
 79
1
170
1
 48
1.0
171
1
  6

172
1
173
1
174
1
140
1.0
141
1.0
175
1
  7

176
1
177
1
178
1
143
1.0
179
1
  8

270
1
271
1
272
1
145
1.0
146
1.0
273
1
  9

274
1
275
1
276
1
 42
1.0
 72
1
  3

 73
1
 74
1
 75
1
 94
63
  0
MLINESTYLE
  5
22
102
{ACAD_REACTORS
330
10
102
}
330
10
100
AcDbMlineStyle
  2
Standard
 70
0
  3

 62
256
 51
90.0
 52
90.0
 71
2
 49
0.5
 62
256
  6
BYLAYER
 49
-0.5
 62
256
  6
BYLAYER
  0
MLEADERSTYLE
  5
2C
102
{ACAD_REACTORS
330
F
102
}
330
F
100
AcDbMLeaderStyle
179
2
170
2
171
1
172
0
 90
2
 40
0.0
 41
0.0
173
1
 91
-1056964608
 92
-2
290
1
 42
2.0
291
1
 43
8.0
  3
Standard
 44
4.0
300

342
29
174
1
175
1
176
0
178
1
 93
-1056964608
 45
4.0
292
0
297
0
 46
4.0
 94
-1056964608
 47
1.0
 49
1.0
140
1.0
294
1
141
0.0
177
0
142
1.0
295
0
296
0
143
3.75
271
0
272
9
273
9
  0
DICTIONARY
  5
2D
330
A
100
AcDbDictionary
280
1
281
1
  3
CREATED_BY_EZDXF
350
2E
  3
WRITTEN_BY_EZDXF
350
40
  0
DICTIONARYVAR
  5
2E
330
2D
100
DictionaryVariables
280
0
  1
1.4.4 @ 2026-10-03T15:50:49.661589+00:00
  0
DICTIONARYVAR
  5
40
330
2D
100
DictionaryVariables
280
0
  1
1.4.4 @ 2026-10-03T15:50:49.665047+00:00
  0
ENDSEC
  0
EOF
